G04 #@! TF.GenerationSoftware,KiCad,Pcbnew,6.0.10+dfsg-1~bpo11+1*
G04 #@! TF.CreationDate,2023-02-14T08:24:13+00:00*
G04 #@! TF.ProjectId,cellular-featherwing-pcb,63656c6c-756c-4617-922d-666561746865,rev?*
G04 #@! TF.SameCoordinates,Original*
G04 #@! TF.FileFunction,Soldermask,Top*
G04 #@! TF.FilePolarity,Negative*
%FSLAX46Y46*%
G04 Gerber Fmt 4.6, Leading zero omitted, Abs format (unit mm)*
G04 Created by KiCad (PCBNEW 6.0.10+dfsg-1~bpo11+1) date 2023-02-14 08:24:13*
%MOMM*%
%LPD*%
G01*
G04 APERTURE LIST*
%ADD10C,0.010000*%
%ADD11C,1.000000*%
%ADD12R,0.700000X1.150000*%
%ADD13R,1.150000X0.700000*%
%ADD14R,1.000000X1.000000*%
%ADD15R,1.000000X1.050000*%
%ADD16R,1.050000X2.200000*%
%ADD17R,0.900000X1.200000*%
%ADD18R,1.300000X1.800000*%
G04 APERTURE END LIST*
G36*
X132075000Y-99239692D02*
G01*
X131625262Y-99239692D01*
X131625262Y-98340000D01*
X132075000Y-98340000D01*
X132075000Y-99239692D01*
G37*
D10*
X132075000Y-99239692D02*
X131625262Y-99239692D01*
X131625262Y-98340000D01*
X132075000Y-98340000D01*
X132075000Y-99239692D01*
G36*
X130775000Y-99239917D02*
G01*
X130324855Y-99239917D01*
X130324855Y-98340000D01*
X130775000Y-98340000D01*
X130775000Y-99239917D01*
G37*
X130775000Y-99239917D02*
X130324855Y-99239917D01*
X130324855Y-98340000D01*
X130775000Y-98340000D01*
X130775000Y-99239917D01*
G36*
X132075000Y-101141810D02*
G01*
X131625551Y-101141810D01*
X131625551Y-100240000D01*
X132075000Y-100240000D01*
X132075000Y-101141810D01*
G37*
X132075000Y-101141810D02*
X131625551Y-101141810D01*
X131625551Y-100240000D01*
X132075000Y-100240000D01*
X132075000Y-101141810D01*
G36*
X130775000Y-101140700D02*
G01*
X130324564Y-101140700D01*
X130324564Y-100240000D01*
X130775000Y-100240000D01*
X130775000Y-101140700D01*
G37*
X130775000Y-101140700D02*
X130324564Y-101140700D01*
X130324564Y-100240000D01*
X130775000Y-100240000D01*
X130775000Y-101140700D01*
G36*
X131425000Y-99239435D02*
G01*
X130974746Y-99239435D01*
X130974746Y-98340000D01*
X131425000Y-98340000D01*
X131425000Y-99239435D01*
G37*
X131425000Y-99239435D02*
X130974746Y-99239435D01*
X130974746Y-98340000D01*
X131425000Y-98340000D01*
X131425000Y-99239435D01*
G36*
X131425000Y-101140820D02*
G01*
X130974869Y-101140820D01*
X130974869Y-100240000D01*
X131425000Y-100240000D01*
X131425000Y-101140820D01*
G37*
X131425000Y-101140820D02*
X130974869Y-101140820D01*
X130974869Y-100240000D01*
X131425000Y-100240000D01*
X131425000Y-101140820D01*
D11*
X140250000Y-91100000D03*
D12*
X165000000Y-83520000D03*
X163900000Y-83520000D03*
X162800000Y-83520000D03*
X161700000Y-83520000D03*
X160600000Y-83520000D03*
X159500000Y-83520000D03*
X158400000Y-83520000D03*
X157300000Y-83520000D03*
X156200000Y-83520000D03*
X155100000Y-83520000D03*
X153400000Y-83520000D03*
X152300000Y-83520000D03*
X151200000Y-83520000D03*
X150100000Y-83520000D03*
X149000000Y-83520000D03*
X147900000Y-83520000D03*
X146800000Y-83520000D03*
X145700000Y-83520000D03*
D13*
X144270000Y-85250000D03*
X144270000Y-86350000D03*
X144270000Y-87450000D03*
X144270000Y-88550000D03*
X144270000Y-89650000D03*
X144270000Y-90750000D03*
X144270000Y-93250000D03*
X144270000Y-94350000D03*
X144270000Y-95450000D03*
X144270000Y-96550000D03*
X144270000Y-97650000D03*
X144270000Y-98750000D03*
X144270000Y-99850000D03*
D12*
X145700000Y-101880000D03*
X146800000Y-101880000D03*
X147900000Y-101880000D03*
X149000000Y-101880000D03*
X150100000Y-101880000D03*
X151200000Y-101880000D03*
X152300000Y-101880000D03*
X153400000Y-101880000D03*
X155100000Y-101880000D03*
X156200000Y-101880000D03*
X157300000Y-101880000D03*
X158400000Y-101880000D03*
X159500000Y-101880000D03*
X160600000Y-101880000D03*
X161700000Y-101880000D03*
X162800000Y-101880000D03*
X163900000Y-101880000D03*
X165000000Y-101880000D03*
D13*
X166330000Y-99850000D03*
X166330000Y-98750000D03*
X166330000Y-97650000D03*
X166330000Y-96550000D03*
X166330000Y-95450000D03*
X166330000Y-94350000D03*
X166330000Y-93250000D03*
X166330000Y-90750000D03*
X166330000Y-89650000D03*
X166330000Y-88550000D03*
X166330000Y-87450000D03*
X166330000Y-86350000D03*
X166330000Y-85250000D03*
D14*
X159550000Y-86750000D03*
X157850000Y-86750000D03*
X156150000Y-86750000D03*
X154450000Y-86750000D03*
X152750000Y-86750000D03*
X151050000Y-86750000D03*
X147650000Y-90150000D03*
X147650000Y-91850000D03*
X147650000Y-93550000D03*
X147650000Y-95250000D03*
X151050000Y-98650000D03*
X152750000Y-98650000D03*
X154450000Y-98650000D03*
X156150000Y-98650000D03*
X157850000Y-98650000D03*
X159550000Y-98650000D03*
X162950000Y-95250000D03*
X162950000Y-93550000D03*
X162950000Y-91850000D03*
X162950000Y-90150000D03*
X159550000Y-88450000D03*
X157850000Y-88450000D03*
X156150000Y-88450000D03*
X154450000Y-88450000D03*
X152750000Y-88450000D03*
X151050000Y-88450000D03*
X149350000Y-90150000D03*
X149350000Y-91850000D03*
X149350000Y-93550000D03*
X149350000Y-95250000D03*
X151050000Y-96950000D03*
X152750000Y-96950000D03*
X154450000Y-96950000D03*
X156150000Y-96950000D03*
X157850000Y-96950000D03*
X159550000Y-96950000D03*
X161250000Y-95250000D03*
X161250000Y-93550000D03*
X161250000Y-91850000D03*
X161250000Y-90150000D03*
G36*
G01*
X127000000Y-105425000D02*
X127000000Y-105055000D01*
G75*
G02*
X127135000Y-104920000I135000J0D01*
G01*
X127405000Y-104920000D01*
G75*
G02*
X127540000Y-105055000I0J-135000D01*
G01*
X127540000Y-105425000D01*
G75*
G02*
X127405000Y-105560000I-135000J0D01*
G01*
X127135000Y-105560000D01*
G75*
G02*
X127000000Y-105425000I0J135000D01*
G01*
G37*
G36*
G01*
X128020000Y-105425000D02*
X128020000Y-105055000D01*
G75*
G02*
X128155000Y-104920000I135000J0D01*
G01*
X128425000Y-104920000D01*
G75*
G02*
X128560000Y-105055000I0J-135000D01*
G01*
X128560000Y-105425000D01*
G75*
G02*
X128425000Y-105560000I-135000J0D01*
G01*
X128155000Y-105560000D01*
G75*
G02*
X128020000Y-105425000I0J135000D01*
G01*
G37*
G36*
G01*
X148130000Y-104740000D02*
X148470000Y-104740000D01*
G75*
G02*
X148610000Y-104880000I0J-140000D01*
G01*
X148610000Y-105160000D01*
G75*
G02*
X148470000Y-105300000I-140000J0D01*
G01*
X148130000Y-105300000D01*
G75*
G02*
X147990000Y-105160000I0J140000D01*
G01*
X147990000Y-104880000D01*
G75*
G02*
X148130000Y-104740000I140000J0D01*
G01*
G37*
G36*
G01*
X148130000Y-105700000D02*
X148470000Y-105700000D01*
G75*
G02*
X148610000Y-105840000I0J-140000D01*
G01*
X148610000Y-106120000D01*
G75*
G02*
X148470000Y-106260000I-140000J0D01*
G01*
X148130000Y-106260000D01*
G75*
G02*
X147990000Y-106120000I0J140000D01*
G01*
X147990000Y-105840000D01*
G75*
G02*
X148130000Y-105700000I140000J0D01*
G01*
G37*
G36*
G01*
X170530000Y-98290000D02*
X170870000Y-98290000D01*
G75*
G02*
X171010000Y-98430000I0J-140000D01*
G01*
X171010000Y-98710000D01*
G75*
G02*
X170870000Y-98850000I-140000J0D01*
G01*
X170530000Y-98850000D01*
G75*
G02*
X170390000Y-98710000I0J140000D01*
G01*
X170390000Y-98430000D01*
G75*
G02*
X170530000Y-98290000I140000J0D01*
G01*
G37*
G36*
G01*
X170530000Y-99250000D02*
X170870000Y-99250000D01*
G75*
G02*
X171010000Y-99390000I0J-140000D01*
G01*
X171010000Y-99670000D01*
G75*
G02*
X170870000Y-99810000I-140000J0D01*
G01*
X170530000Y-99810000D01*
G75*
G02*
X170390000Y-99670000I0J140000D01*
G01*
X170390000Y-99390000D01*
G75*
G02*
X170530000Y-99250000I140000J0D01*
G01*
G37*
G36*
G01*
X169180000Y-87170000D02*
X169520000Y-87170000D01*
G75*
G02*
X169660000Y-87310000I0J-140000D01*
G01*
X169660000Y-87590000D01*
G75*
G02*
X169520000Y-87730000I-140000J0D01*
G01*
X169180000Y-87730000D01*
G75*
G02*
X169040000Y-87590000I0J140000D01*
G01*
X169040000Y-87310000D01*
G75*
G02*
X169180000Y-87170000I140000J0D01*
G01*
G37*
G36*
G01*
X169180000Y-88130000D02*
X169520000Y-88130000D01*
G75*
G02*
X169660000Y-88270000I0J-140000D01*
G01*
X169660000Y-88550000D01*
G75*
G02*
X169520000Y-88690000I-140000J0D01*
G01*
X169180000Y-88690000D01*
G75*
G02*
X169040000Y-88550000I0J140000D01*
G01*
X169040000Y-88270000D01*
G75*
G02*
X169180000Y-88130000I140000J0D01*
G01*
G37*
G36*
G01*
X171580000Y-87265000D02*
X171580000Y-87635000D01*
G75*
G02*
X171445000Y-87770000I-135000J0D01*
G01*
X171175000Y-87770000D01*
G75*
G02*
X171040000Y-87635000I0J135000D01*
G01*
X171040000Y-87265000D01*
G75*
G02*
X171175000Y-87130000I135000J0D01*
G01*
X171445000Y-87130000D01*
G75*
G02*
X171580000Y-87265000I0J-135000D01*
G01*
G37*
G36*
G01*
X170560000Y-87265000D02*
X170560000Y-87635000D01*
G75*
G02*
X170425000Y-87770000I-135000J0D01*
G01*
X170155000Y-87770000D01*
G75*
G02*
X170020000Y-87635000I0J135000D01*
G01*
X170020000Y-87265000D01*
G75*
G02*
X170155000Y-87130000I135000J0D01*
G01*
X170425000Y-87130000D01*
G75*
G02*
X170560000Y-87265000I0J-135000D01*
G01*
G37*
G36*
G01*
X172080000Y-87170000D02*
X172420000Y-87170000D01*
G75*
G02*
X172560000Y-87310000I0J-140000D01*
G01*
X172560000Y-87590000D01*
G75*
G02*
X172420000Y-87730000I-140000J0D01*
G01*
X172080000Y-87730000D01*
G75*
G02*
X171940000Y-87590000I0J140000D01*
G01*
X171940000Y-87310000D01*
G75*
G02*
X172080000Y-87170000I140000J0D01*
G01*
G37*
G36*
G01*
X172080000Y-88130000D02*
X172420000Y-88130000D01*
G75*
G02*
X172560000Y-88270000I0J-140000D01*
G01*
X172560000Y-88550000D01*
G75*
G02*
X172420000Y-88690000I-140000J0D01*
G01*
X172080000Y-88690000D01*
G75*
G02*
X171940000Y-88550000I0J140000D01*
G01*
X171940000Y-88270000D01*
G75*
G02*
X172080000Y-88130000I140000J0D01*
G01*
G37*
D15*
X172250000Y-85087500D03*
D16*
X170775000Y-83562500D03*
X173725000Y-83562500D03*
G36*
G01*
X150375000Y-106550000D02*
X150375000Y-105650000D01*
G75*
G02*
X150625000Y-105400000I250000J0D01*
G01*
X151150000Y-105400000D01*
G75*
G02*
X151400000Y-105650000I0J-250000D01*
G01*
X151400000Y-106550000D01*
G75*
G02*
X151150000Y-106800000I-250000J0D01*
G01*
X150625000Y-106800000D01*
G75*
G02*
X150375000Y-106550000I0J250000D01*
G01*
G37*
G36*
G01*
X152200000Y-106550000D02*
X152200000Y-105650000D01*
G75*
G02*
X152450000Y-105400000I250000J0D01*
G01*
X152975000Y-105400000D01*
G75*
G02*
X153225000Y-105650000I0J-250000D01*
G01*
X153225000Y-106550000D01*
G75*
G02*
X152975000Y-106800000I-250000J0D01*
G01*
X152450000Y-106800000D01*
G75*
G02*
X152200000Y-106550000I0J250000D01*
G01*
G37*
G36*
G01*
X147130000Y-104740000D02*
X147470000Y-104740000D01*
G75*
G02*
X147610000Y-104880000I0J-140000D01*
G01*
X147610000Y-105160000D01*
G75*
G02*
X147470000Y-105300000I-140000J0D01*
G01*
X147130000Y-105300000D01*
G75*
G02*
X146990000Y-105160000I0J140000D01*
G01*
X146990000Y-104880000D01*
G75*
G02*
X147130000Y-104740000I140000J0D01*
G01*
G37*
G36*
G01*
X147130000Y-105700000D02*
X147470000Y-105700000D01*
G75*
G02*
X147610000Y-105840000I0J-140000D01*
G01*
X147610000Y-106120000D01*
G75*
G02*
X147470000Y-106260000I-140000J0D01*
G01*
X147130000Y-106260000D01*
G75*
G02*
X146990000Y-106120000I0J140000D01*
G01*
X146990000Y-105840000D01*
G75*
G02*
X147130000Y-105700000I140000J0D01*
G01*
G37*
D11*
X140200000Y-86400000D03*
G36*
G01*
X131965000Y-105420000D02*
X131595000Y-105420000D01*
G75*
G02*
X131460000Y-105285000I0J135000D01*
G01*
X131460000Y-105015000D01*
G75*
G02*
X131595000Y-104880000I135000J0D01*
G01*
X131965000Y-104880000D01*
G75*
G02*
X132100000Y-105015000I0J-135000D01*
G01*
X132100000Y-105285000D01*
G75*
G02*
X131965000Y-105420000I-135000J0D01*
G01*
G37*
G36*
G01*
X131965000Y-104400000D02*
X131595000Y-104400000D01*
G75*
G02*
X131460000Y-104265000I0J135000D01*
G01*
X131460000Y-103995000D01*
G75*
G02*
X131595000Y-103860000I135000J0D01*
G01*
X131965000Y-103860000D01*
G75*
G02*
X132100000Y-103995000I0J-135000D01*
G01*
X132100000Y-104265000D01*
G75*
G02*
X131965000Y-104400000I-135000J0D01*
G01*
G37*
G36*
G01*
X132910000Y-98480000D02*
X133250000Y-98480000D01*
G75*
G02*
X133390000Y-98620000I0J-140000D01*
G01*
X133390000Y-98900000D01*
G75*
G02*
X133250000Y-99040000I-140000J0D01*
G01*
X132910000Y-99040000D01*
G75*
G02*
X132770000Y-98900000I0J140000D01*
G01*
X132770000Y-98620000D01*
G75*
G02*
X132910000Y-98480000I140000J0D01*
G01*
G37*
G36*
G01*
X132910000Y-99440000D02*
X133250000Y-99440000D01*
G75*
G02*
X133390000Y-99580000I0J-140000D01*
G01*
X133390000Y-99860000D01*
G75*
G02*
X133250000Y-100000000I-140000J0D01*
G01*
X132910000Y-100000000D01*
G75*
G02*
X132770000Y-99860000I0J140000D01*
G01*
X132770000Y-99580000D01*
G75*
G02*
X132910000Y-99440000I140000J0D01*
G01*
G37*
D17*
X134375000Y-97200000D03*
X131835000Y-97200000D03*
X129295000Y-97200000D03*
X133105000Y-97200000D03*
X130565000Y-97200000D03*
X128025000Y-97200000D03*
D18*
X137350000Y-93100000D03*
X125050000Y-93100000D03*
X125050000Y-84300000D03*
X137350000Y-84300000D03*
G36*
G01*
X173950000Y-97275000D02*
X173050000Y-97275000D01*
G75*
G02*
X172800000Y-97025000I0J250000D01*
G01*
X172800000Y-96500000D01*
G75*
G02*
X173050000Y-96250000I250000J0D01*
G01*
X173950000Y-96250000D01*
G75*
G02*
X174200000Y-96500000I0J-250000D01*
G01*
X174200000Y-97025000D01*
G75*
G02*
X173950000Y-97275000I-250000J0D01*
G01*
G37*
G36*
G01*
X173950000Y-95450000D02*
X173050000Y-95450000D01*
G75*
G02*
X172800000Y-95200000I0J250000D01*
G01*
X172800000Y-94675000D01*
G75*
G02*
X173050000Y-94425000I250000J0D01*
G01*
X173950000Y-94425000D01*
G75*
G02*
X174200000Y-94675000I0J-250000D01*
G01*
X174200000Y-95200000D01*
G75*
G02*
X173950000Y-95450000I-250000J0D01*
G01*
G37*
G36*
G01*
X172030000Y-89340000D02*
X172370000Y-89340000D01*
G75*
G02*
X172510000Y-89480000I0J-140000D01*
G01*
X172510000Y-89760000D01*
G75*
G02*
X172370000Y-89900000I-140000J0D01*
G01*
X172030000Y-89900000D01*
G75*
G02*
X171890000Y-89760000I0J140000D01*
G01*
X171890000Y-89480000D01*
G75*
G02*
X172030000Y-89340000I140000J0D01*
G01*
G37*
G36*
G01*
X172030000Y-90300000D02*
X172370000Y-90300000D01*
G75*
G02*
X172510000Y-90440000I0J-140000D01*
G01*
X172510000Y-90720000D01*
G75*
G02*
X172370000Y-90860000I-140000J0D01*
G01*
X172030000Y-90860000D01*
G75*
G02*
X171890000Y-90720000I0J140000D01*
G01*
X171890000Y-90440000D01*
G75*
G02*
X172030000Y-90300000I140000J0D01*
G01*
G37*
G36*
G01*
X173515000Y-86290000D02*
X173515000Y-86635000D01*
G75*
G02*
X173367500Y-86782500I-147500J0D01*
G01*
X173072500Y-86782500D01*
G75*
G02*
X172925000Y-86635000I0J147500D01*
G01*
X172925000Y-86290000D01*
G75*
G02*
X173072500Y-86142500I147500J0D01*
G01*
X173367500Y-86142500D01*
G75*
G02*
X173515000Y-86290000I0J-147500D01*
G01*
G37*
G36*
G01*
X172545000Y-86290000D02*
X172545000Y-86635000D01*
G75*
G02*
X172397500Y-86782500I-147500J0D01*
G01*
X172102500Y-86782500D01*
G75*
G02*
X171955000Y-86635000I0J147500D01*
G01*
X171955000Y-86290000D01*
G75*
G02*
X172102500Y-86142500I147500J0D01*
G01*
X172397500Y-86142500D01*
G75*
G02*
X172545000Y-86290000I0J-147500D01*
G01*
G37*
G36*
G01*
X149130000Y-104740000D02*
X149470000Y-104740000D01*
G75*
G02*
X149610000Y-104880000I0J-140000D01*
G01*
X149610000Y-105160000D01*
G75*
G02*
X149470000Y-105300000I-140000J0D01*
G01*
X149130000Y-105300000D01*
G75*
G02*
X148990000Y-105160000I0J140000D01*
G01*
X148990000Y-104880000D01*
G75*
G02*
X149130000Y-104740000I140000J0D01*
G01*
G37*
G36*
G01*
X149130000Y-105700000D02*
X149470000Y-105700000D01*
G75*
G02*
X149610000Y-105840000I0J-140000D01*
G01*
X149610000Y-106120000D01*
G75*
G02*
X149470000Y-106260000I-140000J0D01*
G01*
X149130000Y-106260000D01*
G75*
G02*
X148990000Y-106120000I0J140000D01*
G01*
X148990000Y-105840000D01*
G75*
G02*
X149130000Y-105700000I140000J0D01*
G01*
G37*
G36*
G01*
X134210000Y-98480000D02*
X134550000Y-98480000D01*
G75*
G02*
X134690000Y-98620000I0J-140000D01*
G01*
X134690000Y-98900000D01*
G75*
G02*
X134550000Y-99040000I-140000J0D01*
G01*
X134210000Y-99040000D01*
G75*
G02*
X134070000Y-98900000I0J140000D01*
G01*
X134070000Y-98620000D01*
G75*
G02*
X134210000Y-98480000I140000J0D01*
G01*
G37*
G36*
G01*
X134210000Y-99440000D02*
X134550000Y-99440000D01*
G75*
G02*
X134690000Y-99580000I0J-140000D01*
G01*
X134690000Y-99860000D01*
G75*
G02*
X134550000Y-100000000I-140000J0D01*
G01*
X134210000Y-100000000D01*
G75*
G02*
X134070000Y-99860000I0J140000D01*
G01*
X134070000Y-99580000D01*
G75*
G02*
X134210000Y-99440000I140000J0D01*
G01*
G37*
G36*
G01*
X171525000Y-97450000D02*
X169675000Y-97450000D01*
G75*
G02*
X169425000Y-97200000I0J250000D01*
G01*
X169425000Y-96375000D01*
G75*
G02*
X169675000Y-96125000I250000J0D01*
G01*
X171525000Y-96125000D01*
G75*
G02*
X171775000Y-96375000I0J-250000D01*
G01*
X171775000Y-97200000D01*
G75*
G02*
X171525000Y-97450000I-250000J0D01*
G01*
G37*
G36*
G01*
X171525000Y-94375000D02*
X169675000Y-94375000D01*
G75*
G02*
X169425000Y-94125000I0J250000D01*
G01*
X169425000Y-93300000D01*
G75*
G02*
X169675000Y-93050000I250000J0D01*
G01*
X171525000Y-93050000D01*
G75*
G02*
X171775000Y-93300000I0J-250000D01*
G01*
X171775000Y-94125000D01*
G75*
G02*
X171525000Y-94375000I-250000J0D01*
G01*
G37*
G36*
G01*
X129065000Y-103220000D02*
X128695000Y-103220000D01*
G75*
G02*
X128560000Y-103085000I0J135000D01*
G01*
X128560000Y-102815000D01*
G75*
G02*
X128695000Y-102680000I135000J0D01*
G01*
X129065000Y-102680000D01*
G75*
G02*
X129200000Y-102815000I0J-135000D01*
G01*
X129200000Y-103085000D01*
G75*
G02*
X129065000Y-103220000I-135000J0D01*
G01*
G37*
G36*
G01*
X129065000Y-102200000D02*
X128695000Y-102200000D01*
G75*
G02*
X128560000Y-102065000I0J135000D01*
G01*
X128560000Y-101795000D01*
G75*
G02*
X128695000Y-101660000I135000J0D01*
G01*
X129065000Y-101660000D01*
G75*
G02*
X129200000Y-101795000I0J-135000D01*
G01*
X129200000Y-102065000D01*
G75*
G02*
X129065000Y-102200000I-135000J0D01*
G01*
G37*
G36*
G01*
X173543750Y-89125000D02*
X174056250Y-89125000D01*
G75*
G02*
X174275000Y-89343750I0J-218750D01*
G01*
X174275000Y-89781250D01*
G75*
G02*
X174056250Y-90000000I-218750J0D01*
G01*
X173543750Y-90000000D01*
G75*
G02*
X173325000Y-89781250I0J218750D01*
G01*
X173325000Y-89343750D01*
G75*
G02*
X173543750Y-89125000I218750J0D01*
G01*
G37*
G36*
G01*
X173543750Y-90700000D02*
X174056250Y-90700000D01*
G75*
G02*
X174275000Y-90918750I0J-218750D01*
G01*
X174275000Y-91356250D01*
G75*
G02*
X174056250Y-91575000I-218750J0D01*
G01*
X173543750Y-91575000D01*
G75*
G02*
X173325000Y-91356250I0J218750D01*
G01*
X173325000Y-90918750D01*
G75*
G02*
X173543750Y-90700000I218750J0D01*
G01*
G37*
G36*
G01*
X169330000Y-98290000D02*
X169670000Y-98290000D01*
G75*
G02*
X169810000Y-98430000I0J-140000D01*
G01*
X169810000Y-98710000D01*
G75*
G02*
X169670000Y-98850000I-140000J0D01*
G01*
X169330000Y-98850000D01*
G75*
G02*
X169190000Y-98710000I0J140000D01*
G01*
X169190000Y-98430000D01*
G75*
G02*
X169330000Y-98290000I140000J0D01*
G01*
G37*
G36*
G01*
X169330000Y-99250000D02*
X169670000Y-99250000D01*
G75*
G02*
X169810000Y-99390000I0J-140000D01*
G01*
X169810000Y-99670000D01*
G75*
G02*
X169670000Y-99810000I-140000J0D01*
G01*
X169330000Y-99810000D01*
G75*
G02*
X169190000Y-99670000I0J140000D01*
G01*
X169190000Y-99390000D01*
G75*
G02*
X169330000Y-99250000I140000J0D01*
G01*
G37*
G36*
G01*
X127710000Y-98980000D02*
X128050000Y-98980000D01*
G75*
G02*
X128190000Y-99120000I0J-140000D01*
G01*
X128190000Y-99400000D01*
G75*
G02*
X128050000Y-99540000I-140000J0D01*
G01*
X127710000Y-99540000D01*
G75*
G02*
X127570000Y-99400000I0J140000D01*
G01*
X127570000Y-99120000D01*
G75*
G02*
X127710000Y-98980000I140000J0D01*
G01*
G37*
G36*
G01*
X127710000Y-99940000D02*
X128050000Y-99940000D01*
G75*
G02*
X128190000Y-100080000I0J-140000D01*
G01*
X128190000Y-100360000D01*
G75*
G02*
X128050000Y-100500000I-140000J0D01*
G01*
X127710000Y-100500000D01*
G75*
G02*
X127570000Y-100360000I0J140000D01*
G01*
X127570000Y-100080000D01*
G75*
G02*
X127710000Y-99940000I140000J0D01*
G01*
G37*
G36*
G01*
X171730000Y-98290000D02*
X172070000Y-98290000D01*
G75*
G02*
X172210000Y-98430000I0J-140000D01*
G01*
X172210000Y-98710000D01*
G75*
G02*
X172070000Y-98850000I-140000J0D01*
G01*
X171730000Y-98850000D01*
G75*
G02*
X171590000Y-98710000I0J140000D01*
G01*
X171590000Y-98430000D01*
G75*
G02*
X171730000Y-98290000I140000J0D01*
G01*
G37*
G36*
G01*
X171730000Y-99250000D02*
X172070000Y-99250000D01*
G75*
G02*
X172210000Y-99390000I0J-140000D01*
G01*
X172210000Y-99670000D01*
G75*
G02*
X172070000Y-99810000I-140000J0D01*
G01*
X171730000Y-99810000D01*
G75*
G02*
X171590000Y-99670000I0J140000D01*
G01*
X171590000Y-99390000D01*
G75*
G02*
X171730000Y-99250000I140000J0D01*
G01*
G37*
G36*
G01*
X128710000Y-98980000D02*
X129050000Y-98980000D01*
G75*
G02*
X129190000Y-99120000I0J-140000D01*
G01*
X129190000Y-99400000D01*
G75*
G02*
X129050000Y-99540000I-140000J0D01*
G01*
X128710000Y-99540000D01*
G75*
G02*
X128570000Y-99400000I0J140000D01*
G01*
X128570000Y-99120000D01*
G75*
G02*
X128710000Y-98980000I140000J0D01*
G01*
G37*
G36*
G01*
X128710000Y-99940000D02*
X129050000Y-99940000D01*
G75*
G02*
X129190000Y-100080000I0J-140000D01*
G01*
X129190000Y-100360000D01*
G75*
G02*
X129050000Y-100500000I-140000J0D01*
G01*
X128710000Y-100500000D01*
G75*
G02*
X128570000Y-100360000I0J140000D01*
G01*
X128570000Y-100080000D01*
G75*
G02*
X128710000Y-99940000I140000J0D01*
G01*
G37*
G36*
G01*
X135565000Y-105020000D02*
X135195000Y-105020000D01*
G75*
G02*
X135060000Y-104885000I0J135000D01*
G01*
X135060000Y-104615000D01*
G75*
G02*
X135195000Y-104480000I135000J0D01*
G01*
X135565000Y-104480000D01*
G75*
G02*
X135700000Y-104615000I0J-135000D01*
G01*
X135700000Y-104885000D01*
G75*
G02*
X135565000Y-105020000I-135000J0D01*
G01*
G37*
G36*
G01*
X135565000Y-104000000D02*
X135195000Y-104000000D01*
G75*
G02*
X135060000Y-103865000I0J135000D01*
G01*
X135060000Y-103595000D01*
G75*
G02*
X135195000Y-103460000I135000J0D01*
G01*
X135565000Y-103460000D01*
G75*
G02*
X135700000Y-103595000I0J-135000D01*
G01*
X135700000Y-103865000D01*
G75*
G02*
X135565000Y-104000000I-135000J0D01*
G01*
G37*
G36*
G01*
X146400000Y-104975000D02*
X146400000Y-106825000D01*
G75*
G02*
X146150000Y-107075000I-250000J0D01*
G01*
X145325000Y-107075000D01*
G75*
G02*
X145075000Y-106825000I0J250000D01*
G01*
X145075000Y-104975000D01*
G75*
G02*
X145325000Y-104725000I250000J0D01*
G01*
X146150000Y-104725000D01*
G75*
G02*
X146400000Y-104975000I0J-250000D01*
G01*
G37*
G36*
G01*
X143325000Y-104975000D02*
X143325000Y-106825000D01*
G75*
G02*
X143075000Y-107075000I-250000J0D01*
G01*
X142250000Y-107075000D01*
G75*
G02*
X142000000Y-106825000I0J250000D01*
G01*
X142000000Y-104975000D01*
G75*
G02*
X142250000Y-104725000I250000J0D01*
G01*
X143075000Y-104725000D01*
G75*
G02*
X143325000Y-104975000I0J-250000D01*
G01*
G37*
M02*
