G04 #@! TF.GenerationSoftware,KiCad,Pcbnew,6.0.10+dfsg-1~bpo11+1*
G04 #@! TF.CreationDate,2023-02-03T04:09:12+00:00*
G04 #@! TF.ProjectId,cellular-featherwing-pcb,63656c6c-756c-4617-922d-666561746865,rev?*
G04 #@! TF.SameCoordinates,Original*
G04 #@! TF.FileFunction,Copper,L2,Bot*
G04 #@! TF.FilePolarity,Positive*
%FSLAX46Y46*%
G04 Gerber Fmt 4.6, Leading zero omitted, Abs format (unit mm)*
G04 Created by KiCad (PCBNEW 6.0.10+dfsg-1~bpo11+1) date 2023-02-03 04:09:12*
%MOMM*%
%LPD*%
G01*
G04 APERTURE LIST*
G04 #@! TA.AperFunction,SMDPad,CuDef*
%ADD10R,1.270000X3.430000*%
G04 #@! TD*
G04 #@! TA.AperFunction,SMDPad,CuDef*
%ADD11R,0.762000X0.355600*%
G04 #@! TD*
G04 #@! TA.AperFunction,SMDPad,CuDef*
%ADD12C,1.000000*%
G04 #@! TD*
G04 #@! TA.AperFunction,SMDPad,CuDef*
%ADD13R,1.100000X1.100000*%
G04 #@! TD*
G04 #@! TA.AperFunction,SMDPad,CuDef*
%ADD14O,0.600000X0.240000*%
G04 #@! TD*
G04 #@! TA.AperFunction,SMDPad,CuDef*
%ADD15R,0.200000X1.100000*%
G04 #@! TD*
G04 #@! TA.AperFunction,SMDPad,CuDef*
%ADD16R,0.200000X1.000000*%
G04 #@! TD*
G04 #@! TA.AperFunction,SMDPad,CuDef*
%ADD17R,0.980000X3.400000*%
G04 #@! TD*
G04 #@! TA.AperFunction,ViaPad*
%ADD18C,0.800000*%
G04 #@! TD*
G04 #@! TA.AperFunction,Conductor*
%ADD19C,0.200000*%
G04 #@! TD*
G04 #@! TA.AperFunction,Conductor*
%ADD20C,0.500000*%
G04 #@! TD*
G04 #@! TA.AperFunction,Conductor*
%ADD21C,0.250000*%
G04 #@! TD*
G04 #@! TA.AperFunction,Conductor*
%ADD22C,1.000000*%
G04 #@! TD*
G04 APERTURE END LIST*
G04 #@! TA.AperFunction,SMDPad,CuDef*
G36*
G01*
X167500000Y-91975000D02*
X168000000Y-91975000D01*
G75*
G02*
X168225000Y-92200000I0J-225000D01*
G01*
X168225000Y-92650000D01*
G75*
G02*
X168000000Y-92875000I-225000J0D01*
G01*
X167500000Y-92875000D01*
G75*
G02*
X167275000Y-92650000I0J225000D01*
G01*
X167275000Y-92200000D01*
G75*
G02*
X167500000Y-91975000I225000J0D01*
G01*
G37*
G04 #@! TD.AperFunction*
G04 #@! TA.AperFunction,SMDPad,CuDef*
G36*
G01*
X167500000Y-93525000D02*
X168000000Y-93525000D01*
G75*
G02*
X168225000Y-93750000I0J-225000D01*
G01*
X168225000Y-94200000D01*
G75*
G02*
X168000000Y-94425000I-225000J0D01*
G01*
X167500000Y-94425000D01*
G75*
G02*
X167275000Y-94200000I0J225000D01*
G01*
X167275000Y-93750000D01*
G75*
G02*
X167500000Y-93525000I225000J0D01*
G01*
G37*
G04 #@! TD.AperFunction*
D10*
X127350000Y-106126000D03*
X129890000Y-103206000D03*
X132430000Y-106126000D03*
X134970000Y-103206000D03*
X137510000Y-106126000D03*
X140050000Y-103206000D03*
X142590000Y-106126000D03*
X145130000Y-103206000D03*
X147670000Y-106126000D03*
X150210000Y-103206000D03*
X152750000Y-106126000D03*
X155290000Y-103206000D03*
X157830000Y-106126000D03*
X160370000Y-103206000D03*
X162910000Y-106126000D03*
X165450000Y-103206000D03*
D11*
X147573100Y-88500001D03*
X147573100Y-89499999D03*
X146226900Y-89000000D03*
G04 #@! TA.AperFunction,SMDPad,CuDef*
G36*
G01*
X169140000Y-96427500D02*
X169560000Y-96427500D01*
G75*
G02*
X169650000Y-96517500I0J-90000D01*
G01*
X169650000Y-97557500D01*
G75*
G02*
X169560000Y-97647500I-90000J0D01*
G01*
X169140000Y-97647500D01*
G75*
G02*
X169050000Y-97557500I0J90000D01*
G01*
X169050000Y-96517500D01*
G75*
G02*
X169140000Y-96427500I90000J0D01*
G01*
G37*
G04 #@! TD.AperFunction*
G04 #@! TA.AperFunction,SMDPad,CuDef*
G36*
G01*
X170090000Y-96427500D02*
X170510000Y-96427500D01*
G75*
G02*
X170600000Y-96517500I0J-90000D01*
G01*
X170600000Y-97557500D01*
G75*
G02*
X170510000Y-97647500I-90000J0D01*
G01*
X170090000Y-97647500D01*
G75*
G02*
X170000000Y-97557500I0J90000D01*
G01*
X170000000Y-96517500D01*
G75*
G02*
X170090000Y-96427500I90000J0D01*
G01*
G37*
G04 #@! TD.AperFunction*
G04 #@! TA.AperFunction,SMDPad,CuDef*
G36*
G01*
X171040000Y-96427500D02*
X171460000Y-96427500D01*
G75*
G02*
X171550000Y-96517500I0J-90000D01*
G01*
X171550000Y-97557500D01*
G75*
G02*
X171460000Y-97647500I-90000J0D01*
G01*
X171040000Y-97647500D01*
G75*
G02*
X170950000Y-97557500I0J90000D01*
G01*
X170950000Y-96517500D01*
G75*
G02*
X171040000Y-96427500I90000J0D01*
G01*
G37*
G04 #@! TD.AperFunction*
G04 #@! TA.AperFunction,SMDPad,CuDef*
G36*
G01*
X171040000Y-98917500D02*
X171460000Y-98917500D01*
G75*
G02*
X171550000Y-99007500I0J-90000D01*
G01*
X171550000Y-100047500D01*
G75*
G02*
X171460000Y-100137500I-90000J0D01*
G01*
X171040000Y-100137500D01*
G75*
G02*
X170950000Y-100047500I0J90000D01*
G01*
X170950000Y-99007500D01*
G75*
G02*
X171040000Y-98917500I90000J0D01*
G01*
G37*
G04 #@! TD.AperFunction*
G04 #@! TA.AperFunction,SMDPad,CuDef*
G36*
G01*
X169140000Y-98917500D02*
X169560000Y-98917500D01*
G75*
G02*
X169650000Y-99007500I0J-90000D01*
G01*
X169650000Y-100047500D01*
G75*
G02*
X169560000Y-100137500I-90000J0D01*
G01*
X169140000Y-100137500D01*
G75*
G02*
X169050000Y-100047500I0J90000D01*
G01*
X169050000Y-99007500D01*
G75*
G02*
X169140000Y-98917500I90000J0D01*
G01*
G37*
G04 #@! TD.AperFunction*
D12*
X140300000Y-94700000D03*
G04 #@! TA.AperFunction,SMDPad,CuDef*
G36*
G01*
X144854200Y-93454400D02*
X144854200Y-93794400D01*
G75*
G02*
X144714200Y-93934400I-140000J0D01*
G01*
X144434200Y-93934400D01*
G75*
G02*
X144294200Y-93794400I0J140000D01*
G01*
X144294200Y-93454400D01*
G75*
G02*
X144434200Y-93314400I140000J0D01*
G01*
X144714200Y-93314400D01*
G75*
G02*
X144854200Y-93454400I0J-140000D01*
G01*
G37*
G04 #@! TD.AperFunction*
G04 #@! TA.AperFunction,SMDPad,CuDef*
G36*
G01*
X143894200Y-93454400D02*
X143894200Y-93794400D01*
G75*
G02*
X143754200Y-93934400I-140000J0D01*
G01*
X143474200Y-93934400D01*
G75*
G02*
X143334200Y-93794400I0J140000D01*
G01*
X143334200Y-93454400D01*
G75*
G02*
X143474200Y-93314400I140000J0D01*
G01*
X143754200Y-93314400D01*
G75*
G02*
X143894200Y-93454400I0J-140000D01*
G01*
G37*
G04 #@! TD.AperFunction*
G04 #@! TA.AperFunction,SMDPad,CuDef*
G36*
G01*
X170375000Y-92875000D02*
X170375000Y-91975000D01*
G75*
G02*
X170625000Y-91725000I250000J0D01*
G01*
X171150000Y-91725000D01*
G75*
G02*
X171400000Y-91975000I0J-250000D01*
G01*
X171400000Y-92875000D01*
G75*
G02*
X171150000Y-93125000I-250000J0D01*
G01*
X170625000Y-93125000D01*
G75*
G02*
X170375000Y-92875000I0J250000D01*
G01*
G37*
G04 #@! TD.AperFunction*
G04 #@! TA.AperFunction,SMDPad,CuDef*
G36*
G01*
X172200000Y-92875000D02*
X172200000Y-91975000D01*
G75*
G02*
X172450000Y-91725000I250000J0D01*
G01*
X172975000Y-91725000D01*
G75*
G02*
X173225000Y-91975000I0J-250000D01*
G01*
X173225000Y-92875000D01*
G75*
G02*
X172975000Y-93125000I-250000J0D01*
G01*
X172450000Y-93125000D01*
G75*
G02*
X172200000Y-92875000I0J250000D01*
G01*
G37*
G04 #@! TD.AperFunction*
G04 #@! TA.AperFunction,SMDPad,CuDef*
G36*
G01*
X165950000Y-91975000D02*
X166450000Y-91975000D01*
G75*
G02*
X166675000Y-92200000I0J-225000D01*
G01*
X166675000Y-92650000D01*
G75*
G02*
X166450000Y-92875000I-225000J0D01*
G01*
X165950000Y-92875000D01*
G75*
G02*
X165725000Y-92650000I0J225000D01*
G01*
X165725000Y-92200000D01*
G75*
G02*
X165950000Y-91975000I225000J0D01*
G01*
G37*
G04 #@! TD.AperFunction*
G04 #@! TA.AperFunction,SMDPad,CuDef*
G36*
G01*
X165950000Y-93525000D02*
X166450000Y-93525000D01*
G75*
G02*
X166675000Y-93750000I0J-225000D01*
G01*
X166675000Y-94200000D01*
G75*
G02*
X166450000Y-94425000I-225000J0D01*
G01*
X165950000Y-94425000D01*
G75*
G02*
X165725000Y-94200000I0J225000D01*
G01*
X165725000Y-93750000D01*
G75*
G02*
X165950000Y-93525000I225000J0D01*
G01*
G37*
G04 #@! TD.AperFunction*
G04 #@! TA.AperFunction,SMDPad,CuDef*
G36*
G01*
X154780000Y-93815000D02*
X154780000Y-94185000D01*
G75*
G02*
X154645000Y-94320000I-135000J0D01*
G01*
X154375000Y-94320000D01*
G75*
G02*
X154240000Y-94185000I0J135000D01*
G01*
X154240000Y-93815000D01*
G75*
G02*
X154375000Y-93680000I135000J0D01*
G01*
X154645000Y-93680000D01*
G75*
G02*
X154780000Y-93815000I0J-135000D01*
G01*
G37*
G04 #@! TD.AperFunction*
G04 #@! TA.AperFunction,SMDPad,CuDef*
G36*
G01*
X153760000Y-93815000D02*
X153760000Y-94185000D01*
G75*
G02*
X153625000Y-94320000I-135000J0D01*
G01*
X153355000Y-94320000D01*
G75*
G02*
X153220000Y-94185000I0J135000D01*
G01*
X153220000Y-93815000D01*
G75*
G02*
X153355000Y-93680000I135000J0D01*
G01*
X153625000Y-93680000D01*
G75*
G02*
X153760000Y-93815000I0J-135000D01*
G01*
G37*
G04 #@! TD.AperFunction*
G04 #@! TA.AperFunction,SMDPad,CuDef*
G36*
G01*
X159550000Y-91975000D02*
X160050000Y-91975000D01*
G75*
G02*
X160275000Y-92200000I0J-225000D01*
G01*
X160275000Y-92650000D01*
G75*
G02*
X160050000Y-92875000I-225000J0D01*
G01*
X159550000Y-92875000D01*
G75*
G02*
X159325000Y-92650000I0J225000D01*
G01*
X159325000Y-92200000D01*
G75*
G02*
X159550000Y-91975000I225000J0D01*
G01*
G37*
G04 #@! TD.AperFunction*
G04 #@! TA.AperFunction,SMDPad,CuDef*
G36*
G01*
X159550000Y-93525000D02*
X160050000Y-93525000D01*
G75*
G02*
X160275000Y-93750000I0J-225000D01*
G01*
X160275000Y-94200000D01*
G75*
G02*
X160050000Y-94425000I-225000J0D01*
G01*
X159550000Y-94425000D01*
G75*
G02*
X159325000Y-94200000I0J225000D01*
G01*
X159325000Y-93750000D01*
G75*
G02*
X159550000Y-93525000I225000J0D01*
G01*
G37*
G04 #@! TD.AperFunction*
X152600000Y-96750000D03*
G04 #@! TA.AperFunction,SMDPad,CuDef*
G36*
G01*
X171080000Y-100890000D02*
X171420000Y-100890000D01*
G75*
G02*
X171560000Y-101030000I0J-140000D01*
G01*
X171560000Y-101310000D01*
G75*
G02*
X171420000Y-101450000I-140000J0D01*
G01*
X171080000Y-101450000D01*
G75*
G02*
X170940000Y-101310000I0J140000D01*
G01*
X170940000Y-101030000D01*
G75*
G02*
X171080000Y-100890000I140000J0D01*
G01*
G37*
G04 #@! TD.AperFunction*
G04 #@! TA.AperFunction,SMDPad,CuDef*
G36*
G01*
X171080000Y-101850000D02*
X171420000Y-101850000D01*
G75*
G02*
X171560000Y-101990000I0J-140000D01*
G01*
X171560000Y-102270000D01*
G75*
G02*
X171420000Y-102410000I-140000J0D01*
G01*
X171080000Y-102410000D01*
G75*
G02*
X170940000Y-102270000I0J140000D01*
G01*
X170940000Y-101990000D01*
G75*
G02*
X171080000Y-101850000I140000J0D01*
G01*
G37*
G04 #@! TD.AperFunction*
D13*
X139950000Y-91800000D03*
X139950000Y-89000000D03*
D14*
X164387500Y-90700000D03*
X164387500Y-91200000D03*
X164387500Y-91700000D03*
X164387500Y-92200000D03*
X164387500Y-92700000D03*
X164387500Y-93200000D03*
X164387500Y-93700000D03*
X161587500Y-93700000D03*
X161587500Y-93200000D03*
X161587500Y-92700000D03*
X161587500Y-92200000D03*
X161587500Y-91700000D03*
X161587500Y-91200000D03*
X161587500Y-90700000D03*
G04 #@! TA.AperFunction,SMDPad,CuDef*
G36*
X163573964Y-94403536D02*
G01*
X163572500Y-94400000D01*
X163572500Y-93630000D01*
X163322500Y-93630000D01*
X163322500Y-94400000D01*
X163321036Y-94403536D01*
X163317500Y-94405000D01*
X163117500Y-94405000D01*
X163113964Y-94403536D01*
X163112500Y-94400000D01*
X163112500Y-93630000D01*
X162862500Y-93630000D01*
X162862500Y-94400000D01*
X162861036Y-94403536D01*
X162857500Y-94405000D01*
X162657500Y-94405000D01*
X162653964Y-94403536D01*
X162652500Y-94400000D01*
X162652500Y-93630000D01*
X162402500Y-93630000D01*
X162402500Y-94400000D01*
X162401036Y-94403536D01*
X162397500Y-94405000D01*
X162197500Y-94405000D01*
X162193964Y-94403536D01*
X162192500Y-94400000D01*
X162192500Y-90000000D01*
X162193964Y-89996464D01*
X162197500Y-89995000D01*
X162397500Y-89995000D01*
X162401036Y-89996464D01*
X162402500Y-90000000D01*
X162402500Y-90770000D01*
X162652500Y-90770000D01*
X162652500Y-90000000D01*
X162653964Y-89996464D01*
X162657500Y-89995000D01*
X162857500Y-89995000D01*
X162861036Y-89996464D01*
X162862500Y-90000000D01*
X162862500Y-90770000D01*
X163112500Y-90770000D01*
X163112500Y-90000000D01*
X163113964Y-89996464D01*
X163117500Y-89995000D01*
X163317500Y-89995000D01*
X163321036Y-89996464D01*
X163322500Y-90000000D01*
X163322500Y-90770000D01*
X163572500Y-90770000D01*
X163572500Y-90000000D01*
X163573964Y-89996464D01*
X163577500Y-89995000D01*
X163777500Y-89995000D01*
X163781036Y-89996464D01*
X163782500Y-90000000D01*
X163782500Y-94400000D01*
X163781036Y-94403536D01*
X163777500Y-94405000D01*
X163577500Y-94405000D01*
X163573964Y-94403536D01*
G37*
G04 #@! TD.AperFunction*
D12*
X154900000Y-89350000D03*
G04 #@! TA.AperFunction,SMDPad,CuDef*
G36*
G01*
X153325000Y-92950000D02*
X153325000Y-92050000D01*
G75*
G02*
X153575000Y-91800000I250000J0D01*
G01*
X154100000Y-91800000D01*
G75*
G02*
X154350000Y-92050000I0J-250000D01*
G01*
X154350000Y-92950000D01*
G75*
G02*
X154100000Y-93200000I-250000J0D01*
G01*
X153575000Y-93200000D01*
G75*
G02*
X153325000Y-92950000I0J250000D01*
G01*
G37*
G04 #@! TD.AperFunction*
G04 #@! TA.AperFunction,SMDPad,CuDef*
G36*
G01*
X155150000Y-92950000D02*
X155150000Y-92050000D01*
G75*
G02*
X155400000Y-91800000I250000J0D01*
G01*
X155925000Y-91800000D01*
G75*
G02*
X156175000Y-92050000I0J-250000D01*
G01*
X156175000Y-92950000D01*
G75*
G02*
X155925000Y-93200000I-250000J0D01*
G01*
X155400000Y-93200000D01*
G75*
G02*
X155150000Y-92950000I0J250000D01*
G01*
G37*
G04 #@! TD.AperFunction*
G04 #@! TA.AperFunction,SMDPad,CuDef*
G36*
G01*
X156780000Y-91990000D02*
X157120000Y-91990000D01*
G75*
G02*
X157260000Y-92130000I0J-140000D01*
G01*
X157260000Y-92410000D01*
G75*
G02*
X157120000Y-92550000I-140000J0D01*
G01*
X156780000Y-92550000D01*
G75*
G02*
X156640000Y-92410000I0J140000D01*
G01*
X156640000Y-92130000D01*
G75*
G02*
X156780000Y-91990000I140000J0D01*
G01*
G37*
G04 #@! TD.AperFunction*
G04 #@! TA.AperFunction,SMDPad,CuDef*
G36*
G01*
X156780000Y-92950000D02*
X157120000Y-92950000D01*
G75*
G02*
X157260000Y-93090000I0J-140000D01*
G01*
X157260000Y-93370000D01*
G75*
G02*
X157120000Y-93510000I-140000J0D01*
G01*
X156780000Y-93510000D01*
G75*
G02*
X156640000Y-93370000I0J140000D01*
G01*
X156640000Y-93090000D01*
G75*
G02*
X156780000Y-92950000I140000J0D01*
G01*
G37*
G04 #@! TD.AperFunction*
G04 #@! TA.AperFunction,SMDPad,CuDef*
G36*
G01*
X167785000Y-91470000D02*
X167415000Y-91470000D01*
G75*
G02*
X167280000Y-91335000I0J135000D01*
G01*
X167280000Y-91065000D01*
G75*
G02*
X167415000Y-90930000I135000J0D01*
G01*
X167785000Y-90930000D01*
G75*
G02*
X167920000Y-91065000I0J-135000D01*
G01*
X167920000Y-91335000D01*
G75*
G02*
X167785000Y-91470000I-135000J0D01*
G01*
G37*
G04 #@! TD.AperFunction*
G04 #@! TA.AperFunction,SMDPad,CuDef*
G36*
G01*
X167785000Y-90450000D02*
X167415000Y-90450000D01*
G75*
G02*
X167280000Y-90315000I0J135000D01*
G01*
X167280000Y-90045000D01*
G75*
G02*
X167415000Y-89910000I135000J0D01*
G01*
X167785000Y-89910000D01*
G75*
G02*
X167920000Y-90045000I0J-135000D01*
G01*
X167920000Y-90315000D01*
G75*
G02*
X167785000Y-90450000I-135000J0D01*
G01*
G37*
G04 #@! TD.AperFunction*
G04 #@! TA.AperFunction,SMDPad,CuDef*
G36*
G01*
X169880000Y-90965000D02*
X169880000Y-91335000D01*
G75*
G02*
X169745000Y-91470000I-135000J0D01*
G01*
X169475000Y-91470000D01*
G75*
G02*
X169340000Y-91335000I0J135000D01*
G01*
X169340000Y-90965000D01*
G75*
G02*
X169475000Y-90830000I135000J0D01*
G01*
X169745000Y-90830000D01*
G75*
G02*
X169880000Y-90965000I0J-135000D01*
G01*
G37*
G04 #@! TD.AperFunction*
G04 #@! TA.AperFunction,SMDPad,CuDef*
G36*
G01*
X168860000Y-90965000D02*
X168860000Y-91335000D01*
G75*
G02*
X168725000Y-91470000I-135000J0D01*
G01*
X168455000Y-91470000D01*
G75*
G02*
X168320000Y-91335000I0J135000D01*
G01*
X168320000Y-90965000D01*
G75*
G02*
X168455000Y-90830000I135000J0D01*
G01*
X168725000Y-90830000D01*
G75*
G02*
X168860000Y-90965000I0J-135000D01*
G01*
G37*
G04 #@! TD.AperFunction*
D15*
X145900000Y-97250000D03*
D16*
X145500000Y-97300000D03*
X145100000Y-97300000D03*
X144700000Y-97300000D03*
X144300000Y-97300000D03*
X143900000Y-97300000D03*
X143500000Y-97300000D03*
X143100000Y-97300000D03*
X142700000Y-97300000D03*
X142300000Y-97300000D03*
X142300000Y-95500000D03*
X142700000Y-95500000D03*
X143100000Y-95500000D03*
X143500000Y-95500000D03*
X143900000Y-95500000D03*
X144300000Y-95500000D03*
X144700000Y-95500000D03*
X145100000Y-95500000D03*
X145500000Y-95500000D03*
X145900000Y-95500000D03*
D17*
X164135000Y-97250000D03*
X161765000Y-97250000D03*
G04 #@! TA.AperFunction,SMDPad,CuDef*
G36*
G01*
X171420000Y-96060000D02*
X171080000Y-96060000D01*
G75*
G02*
X170940000Y-95920000I0J140000D01*
G01*
X170940000Y-95640000D01*
G75*
G02*
X171080000Y-95500000I140000J0D01*
G01*
X171420000Y-95500000D01*
G75*
G02*
X171560000Y-95640000I0J-140000D01*
G01*
X171560000Y-95920000D01*
G75*
G02*
X171420000Y-96060000I-140000J0D01*
G01*
G37*
G04 #@! TD.AperFunction*
G04 #@! TA.AperFunction,SMDPad,CuDef*
G36*
G01*
X171420000Y-95100000D02*
X171080000Y-95100000D01*
G75*
G02*
X170940000Y-94960000I0J140000D01*
G01*
X170940000Y-94680000D01*
G75*
G02*
X171080000Y-94540000I140000J0D01*
G01*
X171420000Y-94540000D01*
G75*
G02*
X171560000Y-94680000I0J-140000D01*
G01*
X171560000Y-94960000D01*
G75*
G02*
X171420000Y-95100000I-140000J0D01*
G01*
G37*
G04 #@! TD.AperFunction*
G04 #@! TA.AperFunction,SMDPad,CuDef*
G36*
G01*
X143930000Y-98290000D02*
X144270000Y-98290000D01*
G75*
G02*
X144410000Y-98430000I0J-140000D01*
G01*
X144410000Y-98710000D01*
G75*
G02*
X144270000Y-98850000I-140000J0D01*
G01*
X143930000Y-98850000D01*
G75*
G02*
X143790000Y-98710000I0J140000D01*
G01*
X143790000Y-98430000D01*
G75*
G02*
X143930000Y-98290000I140000J0D01*
G01*
G37*
G04 #@! TD.AperFunction*
G04 #@! TA.AperFunction,SMDPad,CuDef*
G36*
G01*
X143930000Y-99250000D02*
X144270000Y-99250000D01*
G75*
G02*
X144410000Y-99390000I0J-140000D01*
G01*
X144410000Y-99670000D01*
G75*
G02*
X144270000Y-99810000I-140000J0D01*
G01*
X143930000Y-99810000D01*
G75*
G02*
X143790000Y-99670000I0J140000D01*
G01*
X143790000Y-99390000D01*
G75*
G02*
X143930000Y-99250000I140000J0D01*
G01*
G37*
G04 #@! TD.AperFunction*
D12*
X157100000Y-89350000D03*
D13*
X137550000Y-91800000D03*
X137550000Y-89000000D03*
G04 #@! TA.AperFunction,SMDPad,CuDef*
G36*
G01*
X158000000Y-91975000D02*
X158500000Y-91975000D01*
G75*
G02*
X158725000Y-92200000I0J-225000D01*
G01*
X158725000Y-92650000D01*
G75*
G02*
X158500000Y-92875000I-225000J0D01*
G01*
X158000000Y-92875000D01*
G75*
G02*
X157775000Y-92650000I0J225000D01*
G01*
X157775000Y-92200000D01*
G75*
G02*
X158000000Y-91975000I225000J0D01*
G01*
G37*
G04 #@! TD.AperFunction*
G04 #@! TA.AperFunction,SMDPad,CuDef*
G36*
G01*
X158000000Y-93525000D02*
X158500000Y-93525000D01*
G75*
G02*
X158725000Y-93750000I0J-225000D01*
G01*
X158725000Y-94200000D01*
G75*
G02*
X158500000Y-94425000I-225000J0D01*
G01*
X158000000Y-94425000D01*
G75*
G02*
X157775000Y-94200000I0J225000D01*
G01*
X157775000Y-93750000D01*
G75*
G02*
X158000000Y-93525000I225000J0D01*
G01*
G37*
G04 #@! TD.AperFunction*
D10*
X137510000Y-85800000D03*
X140050000Y-82880000D03*
X142590000Y-85800000D03*
X145130000Y-82880000D03*
X147670000Y-85800000D03*
X150210000Y-82880000D03*
X152750000Y-85800000D03*
X155290000Y-82880000D03*
X157830000Y-85800000D03*
X160370000Y-82880000D03*
X162910000Y-85800000D03*
X165450000Y-82880000D03*
G04 #@! TA.AperFunction,SMDPad,CuDef*
G36*
G01*
X169050000Y-91975000D02*
X169550000Y-91975000D01*
G75*
G02*
X169775000Y-92200000I0J-225000D01*
G01*
X169775000Y-92650000D01*
G75*
G02*
X169550000Y-92875000I-225000J0D01*
G01*
X169050000Y-92875000D01*
G75*
G02*
X168825000Y-92650000I0J225000D01*
G01*
X168825000Y-92200000D01*
G75*
G02*
X169050000Y-91975000I225000J0D01*
G01*
G37*
G04 #@! TD.AperFunction*
G04 #@! TA.AperFunction,SMDPad,CuDef*
G36*
G01*
X169050000Y-93525000D02*
X169550000Y-93525000D01*
G75*
G02*
X169775000Y-93750000I0J-225000D01*
G01*
X169775000Y-94200000D01*
G75*
G02*
X169550000Y-94425000I-225000J0D01*
G01*
X169050000Y-94425000D01*
G75*
G02*
X168825000Y-94200000I0J225000D01*
G01*
X168825000Y-93750000D01*
G75*
G02*
X169050000Y-93525000I225000J0D01*
G01*
G37*
G04 #@! TD.AperFunction*
D12*
X152908000Y-101447600D03*
X150600000Y-89350000D03*
G04 #@! TA.AperFunction,SMDPad,CuDef*
G36*
G01*
X168120000Y-100160000D02*
X167780000Y-100160000D01*
G75*
G02*
X167640000Y-100020000I0J140000D01*
G01*
X167640000Y-99740000D01*
G75*
G02*
X167780000Y-99600000I140000J0D01*
G01*
X168120000Y-99600000D01*
G75*
G02*
X168260000Y-99740000I0J-140000D01*
G01*
X168260000Y-100020000D01*
G75*
G02*
X168120000Y-100160000I-140000J0D01*
G01*
G37*
G04 #@! TD.AperFunction*
G04 #@! TA.AperFunction,SMDPad,CuDef*
G36*
G01*
X168120000Y-99200000D02*
X167780000Y-99200000D01*
G75*
G02*
X167640000Y-99060000I0J140000D01*
G01*
X167640000Y-98780000D01*
G75*
G02*
X167780000Y-98640000I140000J0D01*
G01*
X168120000Y-98640000D01*
G75*
G02*
X168260000Y-98780000I0J-140000D01*
G01*
X168260000Y-99060000D01*
G75*
G02*
X168120000Y-99200000I-140000J0D01*
G01*
G37*
G04 #@! TD.AperFunction*
G04 #@! TA.AperFunction,SMDPad,CuDef*
G36*
G01*
X165240000Y-90070000D02*
X165240000Y-89730000D01*
G75*
G02*
X165380000Y-89590000I140000J0D01*
G01*
X165660000Y-89590000D01*
G75*
G02*
X165800000Y-89730000I0J-140000D01*
G01*
X165800000Y-90070000D01*
G75*
G02*
X165660000Y-90210000I-140000J0D01*
G01*
X165380000Y-90210000D01*
G75*
G02*
X165240000Y-90070000I0J140000D01*
G01*
G37*
G04 #@! TD.AperFunction*
G04 #@! TA.AperFunction,SMDPad,CuDef*
G36*
G01*
X166200000Y-90070000D02*
X166200000Y-89730000D01*
G75*
G02*
X166340000Y-89590000I140000J0D01*
G01*
X166620000Y-89590000D01*
G75*
G02*
X166760000Y-89730000I0J-140000D01*
G01*
X166760000Y-90070000D01*
G75*
G02*
X166620000Y-90210000I-140000J0D01*
G01*
X166340000Y-90210000D01*
G75*
G02*
X166200000Y-90070000I0J140000D01*
G01*
G37*
G04 #@! TD.AperFunction*
X159461200Y-88950800D03*
X150500000Y-94750000D03*
D18*
X137900000Y-101900000D03*
X163677600Y-89027000D03*
X127762000Y-101574600D03*
X164000000Y-100050000D03*
X159689800Y-95427800D03*
X158521400Y-95402400D03*
X162306000Y-88925400D03*
X150698200Y-92837000D03*
X135763000Y-100558600D03*
X168046400Y-95504000D03*
X126034800Y-102387400D03*
X143383000Y-100685600D03*
X156159200Y-95326200D03*
X151900000Y-99650000D03*
X157353000Y-95351600D03*
X132969000Y-100507800D03*
X149700000Y-106675500D03*
X168700000Y-102650000D03*
X151739600Y-92862400D03*
X138988800Y-93345000D03*
X151950000Y-89550000D03*
X143350000Y-103300000D03*
X149834600Y-85775800D03*
X125300000Y-88800000D03*
X151800000Y-103300000D03*
X154050000Y-85050000D03*
X145533839Y-92825100D03*
X148250000Y-82149500D03*
X146018176Y-94271068D03*
X174396400Y-92608400D03*
X172600000Y-106650000D03*
X161150000Y-107250000D03*
X161239200Y-87045800D03*
X156311600Y-85344000D03*
X155206526Y-85708154D03*
X148996400Y-88646000D03*
X141351000Y-98196400D03*
X145444502Y-99800500D03*
X143014700Y-99225100D03*
X146939000Y-97383600D03*
X146913600Y-99245100D03*
X148009951Y-100839378D03*
X148999953Y-99850187D03*
X147950000Y-103350000D03*
X142087600Y-102387400D03*
X141386053Y-100094493D03*
X132410200Y-101854000D03*
X125196600Y-105130600D03*
X135750300Y-99225100D03*
X154305000Y-99593400D03*
X161061400Y-88722200D03*
X159054800Y-91236800D03*
X155270200Y-106146600D03*
X173583600Y-93726000D03*
X128955800Y-107010200D03*
X131749800Y-102895400D03*
D19*
X164387500Y-91200000D02*
X164785686Y-91200000D01*
X143900000Y-95500000D02*
X143900000Y-93910200D01*
X143900000Y-93910200D02*
X143614200Y-93624400D01*
X166480000Y-90618800D02*
X166480000Y-89900000D01*
X152352400Y-92862400D02*
X151739600Y-92862400D01*
X143614200Y-93624400D02*
X143614200Y-93398400D01*
X142748000Y-92532200D02*
X140868400Y-92532200D01*
X165333086Y-90652600D02*
X166446200Y-90652600D01*
X162306000Y-88925400D02*
X162306000Y-89966800D01*
X140055600Y-93345000D02*
X138988800Y-93345000D01*
X140868400Y-92532200D02*
X140258800Y-93141800D01*
X164785686Y-91200000D02*
X165333086Y-90652600D01*
X153490000Y-94000000D02*
X152352400Y-92862400D01*
X166446200Y-90652600D02*
X166480000Y-90618800D01*
X143614200Y-93398400D02*
X142748000Y-92532200D01*
X140258800Y-93141800D02*
X140055600Y-93345000D01*
X163677600Y-89027000D02*
X163677600Y-89992200D01*
X147204050Y-98545600D02*
X145440886Y-98545600D01*
X148709951Y-100549428D02*
X148299901Y-100139378D01*
X148299901Y-100139378D02*
X148298428Y-100139378D01*
X148298428Y-100139378D02*
X147613600Y-99454550D01*
X145110000Y-98082060D02*
X145100000Y-98072060D01*
X150958800Y-101041200D02*
X149200250Y-101041200D01*
X147613600Y-98955150D02*
X147204050Y-98545600D01*
X149200250Y-101041200D02*
X148709951Y-100550901D01*
X151800000Y-101882400D02*
X151800000Y-103300000D01*
X145100000Y-98072060D02*
X145100000Y-97300000D01*
X150958800Y-101041200D02*
X151800000Y-101882400D01*
X145440886Y-98545600D02*
X145110000Y-98214714D01*
X148709951Y-100550901D02*
X148709951Y-100549428D01*
X147613600Y-99454550D02*
X147613600Y-98955150D01*
X145110000Y-98214714D02*
X145110000Y-98082060D01*
X141100000Y-95500000D02*
X140300000Y-94700000D01*
X142300000Y-95500000D02*
X141100000Y-95500000D01*
X145533839Y-92825100D02*
X145533839Y-93766161D01*
X152750000Y-85800000D02*
X153300000Y-85800000D01*
X153300000Y-85800000D02*
X154050000Y-85050000D01*
X144700000Y-94600000D02*
X144700000Y-95500000D01*
X145533839Y-93766161D02*
X144700000Y-94600000D01*
X145665686Y-94200000D02*
X145950000Y-94200000D01*
X145100000Y-94765686D02*
X145665686Y-94200000D01*
X145950000Y-94200000D02*
X145950000Y-94202892D01*
X150210000Y-82160000D02*
X150150000Y-82100000D01*
X150150000Y-82100000D02*
X148299500Y-82100000D01*
X145950000Y-94202892D02*
X146018176Y-94271068D01*
X145100000Y-95500000D02*
X145100000Y-94765686D01*
X148299500Y-82100000D02*
X148250000Y-82149500D01*
X150210000Y-82880000D02*
X150210000Y-82160000D01*
X160370000Y-103206000D02*
X159106000Y-103206000D01*
X152624000Y-96774000D02*
X152150000Y-96300000D01*
X145500000Y-96300000D02*
X145500000Y-95500000D01*
X156845000Y-100945000D02*
X156845000Y-100076000D01*
X152150000Y-96300000D02*
X145500000Y-96300000D01*
X156845000Y-100076000D02*
X153543000Y-96774000D01*
X159106000Y-103206000D02*
X156845000Y-100945000D01*
X153543000Y-96774000D02*
X152624000Y-96774000D01*
X158454800Y-101000000D02*
X151804800Y-94350000D01*
X150250000Y-94350000D02*
X149100000Y-95500000D01*
X162910000Y-102077000D02*
X161833000Y-101000000D01*
X161833000Y-101000000D02*
X158454800Y-101000000D01*
X149100000Y-95500000D02*
X145900000Y-95500000D01*
X151804800Y-94350000D02*
X150250000Y-94350000D01*
X162910000Y-106126000D02*
X162910000Y-102077000D01*
X148975600Y-92125600D02*
X149550000Y-92700000D01*
X149550000Y-93350000D02*
X149800000Y-93600000D01*
X144300000Y-95500000D02*
X144300000Y-93898600D01*
X145224400Y-92125600D02*
X148975600Y-92125600D01*
X169927500Y-100850000D02*
X171250000Y-99527500D01*
X149800000Y-93600000D02*
X152100000Y-93600000D01*
X162248686Y-100850000D02*
X169927500Y-100850000D01*
X144574200Y-93624400D02*
X144574200Y-92775800D01*
X161998685Y-100600000D02*
X162248686Y-100850000D01*
X159100000Y-100600000D02*
X161998685Y-100600000D01*
X144574200Y-92775800D02*
X145224400Y-92125600D01*
X171250000Y-99527500D02*
X171250000Y-101170000D01*
X152100000Y-93600000D02*
X159100000Y-100600000D01*
X149550000Y-92700000D02*
X149550000Y-93350000D01*
X144300000Y-93898600D02*
X144574200Y-93624400D01*
X154200000Y-108000000D02*
X153750000Y-108450000D01*
X153750000Y-108450000D02*
X131100000Y-108450000D01*
X156046000Y-105400000D02*
X154650000Y-105400000D01*
X156600000Y-103900000D02*
X156600000Y-104846000D01*
X158700000Y-103850000D02*
X156650000Y-103850000D01*
X156600000Y-104846000D02*
X156046000Y-105400000D01*
X161150000Y-107250000D02*
X159000000Y-105100000D01*
X129890000Y-107240000D02*
X129890000Y-103206000D01*
X174396400Y-104853600D02*
X174396400Y-92608400D01*
X172600000Y-106650000D02*
X174396400Y-104853600D01*
X131100000Y-108450000D02*
X129890000Y-107240000D01*
X159000000Y-104150000D02*
X158700000Y-103850000D01*
X154200000Y-105850000D02*
X154200000Y-108000000D01*
X159000000Y-105100000D02*
X159000000Y-104150000D01*
X156650000Y-103850000D02*
X156600000Y-103900000D01*
X154650000Y-105400000D02*
X154200000Y-105850000D01*
X137510000Y-88960000D02*
X137550000Y-89000000D01*
D20*
X137510000Y-85800000D02*
X137510000Y-88960000D01*
X142590000Y-87910000D02*
X142590000Y-85800000D01*
X141500000Y-89000000D02*
X142590000Y-87910000D01*
X139950000Y-89000000D02*
X141500000Y-89000000D01*
D19*
X145993700Y-90525600D02*
X145130000Y-89661900D01*
X159969200Y-90525600D02*
X145993700Y-90525600D01*
X145130000Y-89661900D02*
X145130000Y-82880000D01*
X161587500Y-91700000D02*
X161143600Y-91700000D01*
X161143600Y-91700000D02*
X159969200Y-90525600D01*
D21*
X161239200Y-87045800D02*
X161239200Y-87172800D01*
X161239200Y-87172800D02*
X159461200Y-88950800D01*
X156311600Y-85344000D02*
X156311600Y-88561600D01*
X156311600Y-88561600D02*
X157100000Y-89350000D01*
X155206526Y-85708154D02*
X154900000Y-86014680D01*
X154900000Y-86014680D02*
X154900000Y-89350000D01*
D19*
X147573100Y-88500001D02*
X148850401Y-88500001D01*
X148850401Y-88500001D02*
X148996400Y-88646000D01*
D21*
X148142401Y-89499999D02*
X148996400Y-88646000D01*
X147573100Y-89499999D02*
X148142401Y-89499999D01*
D19*
X142300000Y-97704600D02*
X141808200Y-98196400D01*
X142300000Y-97300000D02*
X142300000Y-97704600D01*
X141808200Y-98196400D02*
X141351000Y-98196400D01*
X143900000Y-97300000D02*
X143900000Y-98370000D01*
X144214002Y-98570000D02*
X144100000Y-98570000D01*
X144300000Y-97300000D02*
X144300000Y-98370000D01*
X145444502Y-99800500D02*
X144214002Y-98570000D01*
X143900000Y-98370000D02*
X144100000Y-98570000D01*
X144300000Y-98370000D02*
X144100000Y-98570000D01*
X143014700Y-99225100D02*
X143490000Y-98749800D01*
X143500000Y-98237746D02*
X143500000Y-97300000D01*
X143490000Y-98247746D02*
X143500000Y-98237746D01*
X143490000Y-98749800D02*
X143490000Y-98247746D01*
X146805400Y-97250000D02*
X146939000Y-97383600D01*
X146913600Y-99743027D02*
X146913600Y-99245100D01*
X145900000Y-97250000D02*
X146805400Y-97250000D01*
X148009951Y-100839378D02*
X146913600Y-99743027D01*
X145719800Y-98145600D02*
X145500000Y-97925800D01*
X147369736Y-98145600D02*
X145719800Y-98145600D01*
X148999953Y-99775817D02*
X147369736Y-98145600D01*
X148999953Y-99850187D02*
X148999953Y-99775817D01*
X145500000Y-97925800D02*
X145500000Y-97300000D01*
X145734452Y-99100500D02*
X145430100Y-99100500D01*
X144700000Y-98237746D02*
X144700000Y-97300000D01*
X146521400Y-99887448D02*
X145734452Y-99100500D01*
X144710000Y-98247746D02*
X144700000Y-98237746D01*
X145430100Y-99100500D02*
X144710000Y-98380400D01*
X144710000Y-98380400D02*
X144710000Y-98247746D01*
X147950000Y-102357000D02*
X146521400Y-100928400D01*
X146521400Y-100928400D02*
X146521400Y-99887448D01*
X147950000Y-103350000D02*
X147950000Y-102357000D01*
X142086053Y-99119233D02*
X143100000Y-98105286D01*
X142086053Y-100384443D02*
X142086053Y-99119233D01*
X142087600Y-100385990D02*
X142086053Y-100384443D01*
X143100000Y-98105286D02*
X143100000Y-97300000D01*
X142087600Y-102387400D02*
X142087600Y-100385990D01*
X141386053Y-99253547D02*
X142700000Y-97939600D01*
X142700000Y-97939600D02*
X142700000Y-97300000D01*
X141386053Y-100094493D02*
X141386053Y-99253547D01*
X125196600Y-101955600D02*
X125196600Y-105130600D01*
D21*
X132867400Y-101854000D02*
X135496300Y-99225100D01*
X135496300Y-99225100D02*
X135750300Y-99225100D01*
X132410200Y-101854000D02*
X132867400Y-101854000D01*
D19*
X135750300Y-99225100D02*
X127927100Y-99225100D01*
X127927100Y-99225100D02*
X125196600Y-101955600D01*
X154305000Y-99593400D02*
X154305000Y-100050600D01*
X154305000Y-100050600D02*
X152908000Y-101447600D01*
X160957800Y-92200000D02*
X159994600Y-91236800D01*
X156950000Y-92270000D02*
X155892500Y-92270000D01*
X159054800Y-91620200D02*
X158250000Y-92425000D01*
X155662500Y-93537500D02*
X155662500Y-92500000D01*
X161587500Y-92700000D02*
X161587500Y-92200000D01*
X161313530Y-91200000D02*
X161587500Y-91200000D01*
X154510000Y-94000000D02*
X155200000Y-94000000D01*
X155892500Y-92270000D02*
X155662500Y-92500000D01*
X157470000Y-92270000D02*
X156950000Y-92270000D01*
X158250000Y-92425000D02*
X157625000Y-92425000D01*
X157625000Y-92425000D02*
X157470000Y-92270000D01*
X161587500Y-92200000D02*
X160957800Y-92200000D01*
X159054800Y-91236800D02*
X159054800Y-91679800D01*
X160944400Y-92700000D02*
X161587500Y-92700000D01*
X160987500Y-90873970D02*
X161313530Y-91200000D01*
X160987500Y-88796100D02*
X160987500Y-90873970D01*
X159994600Y-91236800D02*
X159054800Y-91236800D01*
X159800000Y-92425000D02*
X160649400Y-92425000D01*
X159054800Y-91236800D02*
X159054800Y-91620200D01*
X159054800Y-91679800D02*
X159800000Y-92425000D01*
X160649400Y-92425000D02*
X160934400Y-92710000D01*
X160934400Y-92710000D02*
X160944400Y-92700000D01*
X155200000Y-94000000D02*
X155662500Y-93537500D01*
X161061400Y-88722200D02*
X160987500Y-88796100D01*
D20*
X159800000Y-92425000D02*
X158250000Y-92425000D01*
D19*
X164387500Y-90700000D02*
X164720000Y-90700000D01*
X164720000Y-90700000D02*
X165520000Y-89900000D01*
D20*
X167750000Y-92425000D02*
X166200000Y-92425000D01*
X169300000Y-92425000D02*
X167750000Y-92425000D01*
X169610000Y-92115000D02*
X169300000Y-92425000D01*
D19*
X164387500Y-92437500D02*
X166187500Y-92437500D01*
D20*
X170887500Y-92425000D02*
X169300000Y-92425000D01*
D19*
X166187500Y-92437500D02*
X166200000Y-92425000D01*
X164387500Y-92200000D02*
X164387500Y-92437500D01*
D20*
X169610000Y-91150000D02*
X169610000Y-92115000D01*
D19*
X164387500Y-92437500D02*
X164387500Y-92700000D01*
D20*
X156150000Y-108550000D02*
X155270200Y-107670200D01*
X172712500Y-95762500D02*
X172712500Y-103937500D01*
X172712500Y-94412500D02*
X172712500Y-95762500D01*
D19*
X171250000Y-95780000D02*
X171250000Y-97037500D01*
X169350000Y-96000000D02*
X169350000Y-97037500D01*
D20*
X172712500Y-94412500D02*
X172897100Y-94412500D01*
X168100000Y-108550000D02*
X156150000Y-108550000D01*
D19*
X169570000Y-95780000D02*
X169350000Y-96000000D01*
D20*
X172897100Y-94412500D02*
X173583600Y-93726000D01*
D19*
X171250000Y-95780000D02*
X169570000Y-95780000D01*
X171250000Y-95780000D02*
X172695000Y-95780000D01*
D20*
X155270200Y-107670200D02*
X155270200Y-106146600D01*
X172712500Y-92425000D02*
X172712500Y-94412500D01*
D19*
X172695000Y-95780000D02*
X172712500Y-95762500D01*
D20*
X172712500Y-103937500D02*
X168100000Y-108550000D01*
D19*
X130624400Y-100990400D02*
X129155600Y-100990400D01*
X128676400Y-101469600D02*
X128676400Y-106730800D01*
X131749800Y-102115800D02*
X130624400Y-100990400D01*
X128676400Y-106730800D02*
X128955800Y-107010200D01*
X129155600Y-100990400D02*
X128676400Y-101469600D01*
X131749800Y-102895400D02*
X131749800Y-102115800D01*
D22*
X152387200Y-91325600D02*
X140424400Y-91325600D01*
X153561600Y-92500000D02*
X152387200Y-91325600D01*
X137550000Y-91800000D02*
X139950000Y-91800000D01*
X140424400Y-91325600D02*
X139950000Y-91800000D01*
X153837500Y-92500000D02*
X153561600Y-92500000D01*
D19*
X168590000Y-91150000D02*
X167650000Y-91150000D01*
X167650000Y-91150000D02*
X167600000Y-91200000D01*
X165500000Y-91200000D02*
X167600000Y-91200000D01*
X165000000Y-91700000D02*
X165500000Y-91200000D01*
X164387500Y-91700000D02*
X165000000Y-91700000D01*
X161587500Y-93200000D02*
X161587500Y-93700000D01*
X161587500Y-97072500D02*
X161765000Y-97250000D01*
X161587500Y-93700000D02*
X161587500Y-97072500D01*
X164387500Y-93200000D02*
X164387500Y-93700000D01*
X164387500Y-93700000D02*
X164387500Y-96997500D01*
X164387500Y-96997500D02*
X164135000Y-97250000D01*
X168972500Y-99527500D02*
X168620000Y-99880000D01*
X169350000Y-99527500D02*
X168972500Y-99527500D01*
X168620000Y-99880000D02*
X167950000Y-99880000D01*
G04 #@! TA.AperFunction,Conductor*
G36*
X164250423Y-93236511D02*
G01*
X164347416Y-93328115D01*
X165554164Y-94467821D01*
X165568465Y-94483849D01*
X165610313Y-94539687D01*
X165617493Y-94545068D01*
X165701172Y-94607782D01*
X165712122Y-94617004D01*
X166660515Y-95512709D01*
X166696305Y-95574024D01*
X166700000Y-95604313D01*
X166700000Y-98824000D01*
X166679998Y-98892121D01*
X166626342Y-98938614D01*
X166574000Y-98950000D01*
X164174946Y-98950000D01*
X164106825Y-98929998D01*
X164060332Y-98876342D01*
X164048950Y-98825059D01*
X164021630Y-95574024D01*
X164012900Y-94535124D01*
X164017969Y-94499935D01*
X164018882Y-94497730D01*
X164038320Y-94400031D01*
X164037908Y-94397958D01*
X164037908Y-93328115D01*
X164057910Y-93259994D01*
X164111566Y-93213501D01*
X164181840Y-93203397D01*
X164250423Y-93236511D01*
G37*
G04 #@! TD.AperFunction*
G04 #@! TA.AperFunction,Conductor*
G36*
X161842121Y-93120002D02*
G01*
X161888614Y-93173658D01*
X161900000Y-93226000D01*
X161900000Y-98774000D01*
X161879998Y-98842121D01*
X161826342Y-98888614D01*
X161774000Y-98900000D01*
X159768232Y-98900000D01*
X159700111Y-98879998D01*
X159653618Y-98826342D01*
X159643514Y-98756068D01*
X159647319Y-98738560D01*
X161273457Y-93190560D01*
X161311812Y-93130815D01*
X161376378Y-93101291D01*
X161394370Y-93100000D01*
X161774000Y-93100000D01*
X161842121Y-93120002D01*
G37*
G04 #@! TD.AperFunction*
G04 #@! TA.AperFunction,Conductor*
G36*
X139132910Y-80528502D02*
G01*
X139179403Y-80582158D01*
X139189507Y-80652432D01*
X139160013Y-80717012D01*
X139140356Y-80735324D01*
X139051739Y-80801739D01*
X138964385Y-80918295D01*
X138913255Y-81054684D01*
X138906500Y-81116866D01*
X138906500Y-84643134D01*
X138913255Y-84705316D01*
X138964385Y-84841705D01*
X139051739Y-84958261D01*
X139168295Y-85045615D01*
X139304684Y-85096745D01*
X139366866Y-85103500D01*
X140733134Y-85103500D01*
X140795316Y-85096745D01*
X140931705Y-85045615D01*
X141048261Y-84958261D01*
X141135615Y-84841705D01*
X141186745Y-84705316D01*
X141193500Y-84643134D01*
X141193500Y-81116866D01*
X141186745Y-81054684D01*
X141135615Y-80918295D01*
X141048261Y-80801739D01*
X140959645Y-80735325D01*
X140917131Y-80678467D01*
X140912105Y-80607649D01*
X140946165Y-80545355D01*
X141008496Y-80511365D01*
X141035211Y-80508500D01*
X144144789Y-80508500D01*
X144212910Y-80528502D01*
X144259403Y-80582158D01*
X144269507Y-80652432D01*
X144240013Y-80717012D01*
X144220356Y-80735324D01*
X144131739Y-80801739D01*
X144044385Y-80918295D01*
X143993255Y-81054684D01*
X143986500Y-81116866D01*
X143986500Y-84643134D01*
X143993255Y-84705316D01*
X144044385Y-84841705D01*
X144131739Y-84958261D01*
X144248295Y-85045615D01*
X144384684Y-85096745D01*
X144392537Y-85097598D01*
X144392541Y-85097599D01*
X144409106Y-85099398D01*
X144474669Y-85126639D01*
X144515096Y-85185002D01*
X144521500Y-85224661D01*
X144521500Y-89613764D01*
X144520422Y-89630207D01*
X144516250Y-89661900D01*
X144517328Y-89670089D01*
X144518477Y-89678820D01*
X144521500Y-89701780D01*
X144521500Y-89701785D01*
X144531240Y-89775761D01*
X144532184Y-89782934D01*
X144532184Y-89782936D01*
X144535607Y-89808935D01*
X144537162Y-89820751D01*
X144598476Y-89968776D01*
X144603503Y-89975327D01*
X144603504Y-89975329D01*
X144671520Y-90063969D01*
X144671526Y-90063975D01*
X144696013Y-90095887D01*
X144702564Y-90100914D01*
X144703657Y-90102007D01*
X144737680Y-90164320D01*
X144732613Y-90235136D01*
X144690065Y-90291970D01*
X144623544Y-90316779D01*
X144614559Y-90317100D01*
X140486243Y-90317100D01*
X140472636Y-90316363D01*
X140441138Y-90312941D01*
X140441133Y-90312941D01*
X140435012Y-90312276D01*
X140408762Y-90314573D01*
X140385012Y-90316650D01*
X140380186Y-90316979D01*
X140377714Y-90317100D01*
X140374631Y-90317100D01*
X140362662Y-90318274D01*
X140331894Y-90321290D01*
X140330581Y-90321412D01*
X140286316Y-90325285D01*
X140237987Y-90329513D01*
X140232868Y-90331000D01*
X140227567Y-90331520D01*
X140138566Y-90358391D01*
X140137433Y-90358726D01*
X140053986Y-90382970D01*
X140053982Y-90382972D01*
X140048064Y-90384691D01*
X140043332Y-90387144D01*
X140038231Y-90388684D01*
X140032788Y-90391578D01*
X139956140Y-90432331D01*
X139954974Y-90432943D01*
X139885035Y-90469197D01*
X139872474Y-90475708D01*
X139868311Y-90479031D01*
X139863604Y-90481534D01*
X139791482Y-90540355D01*
X139790626Y-90541046D01*
X139751427Y-90572338D01*
X139748923Y-90574842D01*
X139748205Y-90575484D01*
X139743872Y-90579185D01*
X139710338Y-90606535D01*
X139706410Y-90611283D01*
X139706409Y-90611284D01*
X139681112Y-90641863D01*
X139673123Y-90650642D01*
X139619170Y-90704595D01*
X139556858Y-90738621D01*
X139530075Y-90741500D01*
X139351866Y-90741500D01*
X139348469Y-90741869D01*
X139297534Y-90747402D01*
X139297532Y-90747402D01*
X139289684Y-90748255D01*
X139282291Y-90751027D01*
X139282289Y-90751027D01*
X139195716Y-90783482D01*
X139151487Y-90791500D01*
X138348513Y-90791500D01*
X138304284Y-90783482D01*
X138217711Y-90751027D01*
X138217709Y-90751027D01*
X138210316Y-90748255D01*
X138202468Y-90747402D01*
X138202466Y-90747402D01*
X138151531Y-90741869D01*
X138148134Y-90741500D01*
X136951866Y-90741500D01*
X136889684Y-90748255D01*
X136753295Y-90799385D01*
X136636739Y-90886739D01*
X136549385Y-91003295D01*
X136498255Y-91139684D01*
X136491500Y-91201866D01*
X136491500Y-92398134D01*
X136498255Y-92460316D01*
X136549385Y-92596705D01*
X136636739Y-92713261D01*
X136753295Y-92800615D01*
X136889684Y-92851745D01*
X136951866Y-92858500D01*
X138148134Y-92858500D01*
X138151531Y-92858131D01*
X138202466Y-92852598D01*
X138202468Y-92852598D01*
X138210316Y-92851745D01*
X138217709Y-92848973D01*
X138217711Y-92848973D01*
X138304284Y-92816518D01*
X138348513Y-92808500D01*
X139151487Y-92808500D01*
X139195716Y-92816518D01*
X139282289Y-92848973D01*
X139282291Y-92848973D01*
X139289684Y-92851745D01*
X139297532Y-92852598D01*
X139297534Y-92852598D01*
X139348469Y-92858131D01*
X139351866Y-92858500D01*
X140548134Y-92858500D01*
X140610316Y-92851745D01*
X140746705Y-92800615D01*
X140863261Y-92713261D01*
X140950615Y-92596705D01*
X141001745Y-92460316D01*
X141003247Y-92446490D01*
X141030490Y-92380928D01*
X141088854Y-92340503D01*
X141128510Y-92334100D01*
X143909949Y-92334100D01*
X143978070Y-92354102D01*
X144024563Y-92407758D01*
X144034667Y-92478032D01*
X144026358Y-92508318D01*
X144012759Y-92541150D01*
X143983830Y-92610991D01*
X143981362Y-92616950D01*
X143969351Y-92708188D01*
X143969330Y-92708345D01*
X143940608Y-92773272D01*
X143881343Y-92812364D01*
X143877188Y-92812993D01*
X143872230Y-92816199D01*
X143868200Y-92825091D01*
X143868200Y-93103021D01*
X143850654Y-93167160D01*
X143840991Y-93183500D01*
X143834306Y-93194803D01*
X143832095Y-93202414D01*
X143832094Y-93202416D01*
X143821240Y-93239777D01*
X143788594Y-93352146D01*
X143788090Y-93358551D01*
X143788089Y-93358556D01*
X143786941Y-93373149D01*
X143785700Y-93388916D01*
X143785700Y-93530285D01*
X143769647Y-93590198D01*
X143768476Y-93591724D01*
X143707162Y-93739749D01*
X143706084Y-93747937D01*
X143705811Y-93750011D01*
X143705811Y-93750013D01*
X143703331Y-93768848D01*
X143674607Y-93833775D01*
X143615341Y-93872866D01*
X143578409Y-93878400D01*
X142845776Y-93878400D01*
X142830981Y-93882744D01*
X142829137Y-93893175D01*
X142830888Y-93902759D01*
X142872557Y-94046184D01*
X142878804Y-94060620D01*
X142954076Y-94187899D01*
X142963716Y-94200326D01*
X143039855Y-94276465D01*
X143073881Y-94338777D01*
X143068816Y-94409592D01*
X143026269Y-94466428D01*
X142957574Y-94491376D01*
X142955284Y-94491500D01*
X142951866Y-94491500D01*
X142948470Y-94491869D01*
X142948468Y-94491869D01*
X142927634Y-94494132D01*
X142913606Y-94495656D01*
X142886394Y-94495656D01*
X142877531Y-94494693D01*
X142851533Y-94491869D01*
X142851529Y-94491869D01*
X142848134Y-94491500D01*
X142551866Y-94491500D01*
X142548471Y-94491869D01*
X142548467Y-94491869D01*
X142522469Y-94494693D01*
X142513606Y-94495656D01*
X142486394Y-94495656D01*
X142477531Y-94494693D01*
X142451533Y-94491869D01*
X142451529Y-94491869D01*
X142448134Y-94491500D01*
X142151866Y-94491500D01*
X142089684Y-94498255D01*
X141953295Y-94549385D01*
X141836739Y-94636739D01*
X141749385Y-94753295D01*
X141746233Y-94761703D01*
X141728228Y-94809730D01*
X141685586Y-94866495D01*
X141619024Y-94891194D01*
X141610246Y-94891500D01*
X141435286Y-94891500D01*
X141367165Y-94871498D01*
X141320672Y-94817842D01*
X141310279Y-94749712D01*
X141312985Y-94728295D01*
X141313380Y-94700000D01*
X141294080Y-94503167D01*
X141291813Y-94495656D01*
X141245487Y-94342219D01*
X141236916Y-94313831D01*
X141144066Y-94139204D01*
X141052305Y-94026694D01*
X141022960Y-93990713D01*
X141022957Y-93990710D01*
X141019065Y-93985938D01*
X141007672Y-93976513D01*
X140871425Y-93863799D01*
X140871421Y-93863797D01*
X140866675Y-93859870D01*
X140692701Y-93765802D01*
X140503768Y-93707318D01*
X140497643Y-93706674D01*
X140497642Y-93706674D01*
X140313204Y-93687289D01*
X140313202Y-93687289D01*
X140307075Y-93686645D01*
X140224576Y-93694153D01*
X140116251Y-93704011D01*
X140116248Y-93704012D01*
X140110112Y-93704570D01*
X140104206Y-93706308D01*
X140104202Y-93706309D01*
X139999076Y-93737249D01*
X139920381Y-93760410D01*
X139914923Y-93763263D01*
X139914919Y-93763265D01*
X139865661Y-93789017D01*
X139745110Y-93852040D01*
X139590975Y-93975968D01*
X139463846Y-94127474D01*
X139460879Y-94132872D01*
X139460875Y-94132877D01*
X139388514Y-94264503D01*
X139368567Y-94300787D01*
X139366706Y-94306654D01*
X139366705Y-94306656D01*
X139317745Y-94460996D01*
X139308765Y-94489306D01*
X139286719Y-94685851D01*
X139287235Y-94691995D01*
X139302308Y-94871498D01*
X139303268Y-94882934D01*
X139323184Y-94952389D01*
X139355853Y-95066318D01*
X139357783Y-95073050D01*
X139448187Y-95248956D01*
X139571035Y-95403953D01*
X139575728Y-95407947D01*
X139575729Y-95407948D01*
X139697805Y-95511842D01*
X139721650Y-95532136D01*
X139894294Y-95628624D01*
X140082392Y-95689740D01*
X140278777Y-95713158D01*
X140284912Y-95712686D01*
X140284914Y-95712686D01*
X140371361Y-95706034D01*
X140382407Y-95705184D01*
X140451862Y-95719901D01*
X140481169Y-95741718D01*
X140635685Y-95896234D01*
X140646552Y-95908625D01*
X140666013Y-95933987D01*
X140672563Y-95939013D01*
X140697921Y-95958471D01*
X140697937Y-95958485D01*
X140741369Y-95991811D01*
X140793124Y-96031524D01*
X140941149Y-96092838D01*
X140949336Y-96093916D01*
X140949337Y-96093916D01*
X140960542Y-96095391D01*
X140991738Y-96099498D01*
X141060115Y-96108500D01*
X141060118Y-96108500D01*
X141060126Y-96108501D01*
X141091811Y-96112672D01*
X141100000Y-96113750D01*
X141131693Y-96109578D01*
X141148136Y-96108500D01*
X141610246Y-96108500D01*
X141678367Y-96128502D01*
X141724860Y-96182158D01*
X141728228Y-96190270D01*
X141749385Y-96246705D01*
X141754770Y-96253890D01*
X141754771Y-96253892D01*
X141807640Y-96324435D01*
X141832488Y-96390942D01*
X141817435Y-96460324D01*
X141807640Y-96475565D01*
X141802520Y-96482397D01*
X141749385Y-96553295D01*
X141698255Y-96689684D01*
X141691500Y-96751866D01*
X141691500Y-97184382D01*
X141671498Y-97252503D01*
X141617842Y-97298996D01*
X141547568Y-97309100D01*
X141539310Y-97307630D01*
X141510730Y-97301555D01*
X141452944Y-97289272D01*
X141452939Y-97289272D01*
X141446487Y-97287900D01*
X141255513Y-97287900D01*
X141249061Y-97289272D01*
X141249056Y-97289272D01*
X141162696Y-97307629D01*
X141068712Y-97327606D01*
X141062682Y-97330291D01*
X141062681Y-97330291D01*
X140900278Y-97402597D01*
X140900276Y-97402598D01*
X140894248Y-97405282D01*
X140739747Y-97517534D01*
X140735326Y-97522444D01*
X140735325Y-97522445D01*
X140660430Y-97605625D01*
X140611960Y-97659456D01*
X140560848Y-97747984D01*
X140552088Y-97763158D01*
X140516473Y-97824844D01*
X140457458Y-98006472D01*
X140456768Y-98013033D01*
X140456768Y-98013035D01*
X140443248Y-98141672D01*
X140437496Y-98196400D01*
X140438186Y-98202965D01*
X140456653Y-98378666D01*
X140457458Y-98386328D01*
X140516473Y-98567956D01*
X140611960Y-98733344D01*
X140616378Y-98738251D01*
X140616379Y-98738252D01*
X140725847Y-98859829D01*
X140739747Y-98875266D01*
X140764742Y-98893426D01*
X140770352Y-98897502D01*
X140813706Y-98953725D01*
X140819781Y-99024461D01*
X140812699Y-99047657D01*
X140796377Y-99087061D01*
X140796376Y-99087065D01*
X140793215Y-99094696D01*
X140790674Y-99114001D01*
X140777553Y-99213662D01*
X140777553Y-99213667D01*
X140772303Y-99253547D01*
X140773381Y-99261735D01*
X140776475Y-99285237D01*
X140777553Y-99301683D01*
X140777553Y-99364203D01*
X140757551Y-99432324D01*
X140745189Y-99448513D01*
X140707178Y-99490729D01*
X140647013Y-99557549D01*
X140551526Y-99722937D01*
X140492511Y-99904565D01*
X140491821Y-99911126D01*
X140491821Y-99911128D01*
X140475696Y-100064554D01*
X140472549Y-100094493D01*
X140473239Y-100101058D01*
X140490718Y-100267357D01*
X140492511Y-100284421D01*
X140551526Y-100466049D01*
X140554829Y-100471771D01*
X140554830Y-100471772D01*
X140576714Y-100509676D01*
X140647013Y-100631437D01*
X140651431Y-100636344D01*
X140651432Y-100636345D01*
X140773747Y-100772190D01*
X140804465Y-100836197D01*
X140795700Y-100906651D01*
X140750237Y-100961182D01*
X140680111Y-100982500D01*
X139366866Y-100982500D01*
X139304684Y-100989255D01*
X139168295Y-101040385D01*
X139051739Y-101127739D01*
X138964385Y-101244295D01*
X138913255Y-101380684D01*
X138906500Y-101442866D01*
X138906500Y-104969134D01*
X138913255Y-105031316D01*
X138964385Y-105167705D01*
X139051739Y-105284261D01*
X139168295Y-105371615D01*
X139304684Y-105422745D01*
X139366866Y-105429500D01*
X140733134Y-105429500D01*
X140795316Y-105422745D01*
X140931705Y-105371615D01*
X141048261Y-105284261D01*
X141135615Y-105167705D01*
X141186745Y-105031316D01*
X141193500Y-104969134D01*
X141193500Y-103080373D01*
X141213502Y-103012252D01*
X141267158Y-102965759D01*
X141337432Y-102955655D01*
X141402012Y-102985149D01*
X141413136Y-102996063D01*
X141476347Y-103066266D01*
X141528000Y-103103794D01*
X141614493Y-103166635D01*
X141630848Y-103178518D01*
X141636876Y-103181202D01*
X141636878Y-103181203D01*
X141782411Y-103245998D01*
X141805312Y-103256194D01*
X141898712Y-103276047D01*
X141985656Y-103294528D01*
X141985661Y-103294528D01*
X141992113Y-103295900D01*
X142183087Y-103295900D01*
X142189539Y-103294528D01*
X142189544Y-103294528D01*
X142276488Y-103276047D01*
X142369888Y-103256194D01*
X142392789Y-103245998D01*
X142538322Y-103181203D01*
X142538324Y-103181202D01*
X142544352Y-103178518D01*
X142560708Y-103166635D01*
X142647200Y-103103794D01*
X142698853Y-103066266D01*
X142734744Y-103026405D01*
X142822221Y-102929252D01*
X142822222Y-102929251D01*
X142826640Y-102924344D01*
X142922127Y-102758956D01*
X142981142Y-102577328D01*
X142987255Y-102519172D01*
X143000414Y-102393965D01*
X143001104Y-102387400D01*
X142997909Y-102357000D01*
X142981832Y-102204035D01*
X142981832Y-102204033D01*
X142981142Y-102197472D01*
X142922127Y-102015844D01*
X142915137Y-102003736D01*
X142862234Y-101912106D01*
X142826640Y-101850456D01*
X142795595Y-101815977D01*
X142728464Y-101741420D01*
X142697746Y-101677413D01*
X142696100Y-101657110D01*
X142696100Y-100434126D01*
X142697178Y-100417680D01*
X142699411Y-100400722D01*
X142701350Y-100385990D01*
X142696100Y-100346110D01*
X142696100Y-100346105D01*
X142695631Y-100342540D01*
X142694553Y-100326096D01*
X142694553Y-100241444D01*
X142714555Y-100173323D01*
X142768211Y-100126830D01*
X142838485Y-100116726D01*
X142846751Y-100118198D01*
X142912749Y-100132227D01*
X142912758Y-100132228D01*
X142919213Y-100133600D01*
X143110187Y-100133600D01*
X143116639Y-100132228D01*
X143116644Y-100132228D01*
X143263284Y-100101058D01*
X143296988Y-100093894D01*
X143303021Y-100091208D01*
X143303024Y-100091207D01*
X143310388Y-100087928D01*
X143315089Y-100085835D01*
X143385455Y-100076398D01*
X143449753Y-100106503D01*
X143455435Y-100111845D01*
X143524074Y-100180484D01*
X143536501Y-100190124D01*
X143663780Y-100265396D01*
X143678216Y-100271643D01*
X143821641Y-100313312D01*
X143829609Y-100314768D01*
X143843031Y-100311948D01*
X143846000Y-100300487D01*
X143846000Y-99626544D01*
X143852167Y-99587608D01*
X143883645Y-99490729D01*
X143898320Y-99445564D01*
X143938393Y-99386958D01*
X144003790Y-99359321D01*
X144018153Y-99358500D01*
X144089763Y-99358500D01*
X144157884Y-99378502D01*
X144178858Y-99395405D01*
X144317095Y-99533642D01*
X144351121Y-99595954D01*
X144354000Y-99622737D01*
X144354000Y-100298424D01*
X144358344Y-100313219D01*
X144368775Y-100315063D01*
X144378359Y-100313312D01*
X144521784Y-100271643D01*
X144535324Y-100265784D01*
X144605786Y-100257089D01*
X144669763Y-100287870D01*
X144694479Y-100318420D01*
X144705462Y-100337444D01*
X144709880Y-100342351D01*
X144709881Y-100342352D01*
X144805333Y-100448362D01*
X144833249Y-100479366D01*
X144882178Y-100514915D01*
X144974211Y-100581781D01*
X144987750Y-100591618D01*
X144993778Y-100594302D01*
X144993780Y-100594303D01*
X145151599Y-100664568D01*
X145162214Y-100669294D01*
X145255614Y-100689147D01*
X145342558Y-100707628D01*
X145342563Y-100707628D01*
X145349015Y-100709000D01*
X145539989Y-100709000D01*
X145546441Y-100707628D01*
X145546446Y-100707628D01*
X145633390Y-100689147D01*
X145726790Y-100669294D01*
X145735653Y-100665348D01*
X145737438Y-100665109D01*
X145739102Y-100664568D01*
X145739201Y-100664872D01*
X145806020Y-100655915D01*
X145870317Y-100686023D01*
X145908129Y-100746112D01*
X145912900Y-100780456D01*
X145912900Y-100856500D01*
X145892898Y-100924621D01*
X145839242Y-100971114D01*
X145786900Y-100982500D01*
X144446866Y-100982500D01*
X144384684Y-100989255D01*
X144248295Y-101040385D01*
X144131739Y-101127739D01*
X144044385Y-101244295D01*
X143993255Y-101380684D01*
X143986500Y-101442866D01*
X143986500Y-104969134D01*
X143993255Y-105031316D01*
X144044385Y-105167705D01*
X144131739Y-105284261D01*
X144248295Y-105371615D01*
X144384684Y-105422745D01*
X144446866Y-105429500D01*
X145813134Y-105429500D01*
X145875316Y-105422745D01*
X146011705Y-105371615D01*
X146128261Y-105284261D01*
X146215615Y-105167705D01*
X146266745Y-105031316D01*
X146273500Y-104969134D01*
X146273500Y-101845239D01*
X146293502Y-101777118D01*
X146347158Y-101730625D01*
X146417432Y-101720521D01*
X146482012Y-101750015D01*
X146488595Y-101756144D01*
X147284919Y-102552468D01*
X147318945Y-102614780D01*
X147313880Y-102685595D01*
X147289462Y-102725870D01*
X147210960Y-102813056D01*
X147115473Y-102978444D01*
X147056458Y-103160072D01*
X147055768Y-103166633D01*
X147055768Y-103166635D01*
X147046211Y-103257566D01*
X147036496Y-103350000D01*
X147037186Y-103356565D01*
X147048360Y-103462876D01*
X147056458Y-103539928D01*
X147115473Y-103721556D01*
X147117955Y-103725854D01*
X147127308Y-103795620D01*
X147097201Y-103859916D01*
X147037111Y-103897729D01*
X147002767Y-103902500D01*
X146986866Y-103902500D01*
X146924684Y-103909255D01*
X146788295Y-103960385D01*
X146671739Y-104047739D01*
X146584385Y-104164295D01*
X146533255Y-104300684D01*
X146526500Y-104362866D01*
X146526500Y-107715500D01*
X146506498Y-107783621D01*
X146452842Y-107830114D01*
X146400500Y-107841500D01*
X143859500Y-107841500D01*
X143791379Y-107821498D01*
X143744886Y-107767842D01*
X143733500Y-107715500D01*
X143733500Y-104362866D01*
X143726745Y-104300684D01*
X143675615Y-104164295D01*
X143588261Y-104047739D01*
X143471705Y-103960385D01*
X143335316Y-103909255D01*
X143273134Y-103902500D01*
X141906866Y-103902500D01*
X141844684Y-103909255D01*
X141708295Y-103960385D01*
X141591739Y-104047739D01*
X141504385Y-104164295D01*
X141453255Y-104300684D01*
X141446500Y-104362866D01*
X141446500Y-107715500D01*
X141426498Y-107783621D01*
X141372842Y-107830114D01*
X141320500Y-107841500D01*
X138779500Y-107841500D01*
X138711379Y-107821498D01*
X138664886Y-107767842D01*
X138653500Y-107715500D01*
X138653500Y-104362866D01*
X138646745Y-104300684D01*
X138595615Y-104164295D01*
X138508261Y-104047739D01*
X138391705Y-103960385D01*
X138255316Y-103909255D01*
X138193134Y-103902500D01*
X136826866Y-103902500D01*
X136764684Y-103909255D01*
X136628295Y-103960385D01*
X136511739Y-104047739D01*
X136424385Y-104164295D01*
X136373255Y-104300684D01*
X136366500Y-104362866D01*
X136366500Y-107715500D01*
X136346498Y-107783621D01*
X136292842Y-107830114D01*
X136240500Y-107841500D01*
X133699500Y-107841500D01*
X133631379Y-107821498D01*
X133584886Y-107767842D01*
X133573500Y-107715500D01*
X133573500Y-104965669D01*
X133827001Y-104965669D01*
X133827371Y-104972490D01*
X133832895Y-105023352D01*
X133836521Y-105038604D01*
X133881676Y-105159054D01*
X133890214Y-105174649D01*
X133966715Y-105276724D01*
X133979276Y-105289285D01*
X134081351Y-105365786D01*
X134096946Y-105374324D01*
X134217394Y-105419478D01*
X134232649Y-105423105D01*
X134283514Y-105428631D01*
X134290328Y-105429000D01*
X134697885Y-105429000D01*
X134713124Y-105424525D01*
X134714329Y-105423135D01*
X134716000Y-105415452D01*
X134716000Y-105410884D01*
X135224000Y-105410884D01*
X135228475Y-105426123D01*
X135229865Y-105427328D01*
X135237548Y-105428999D01*
X135649669Y-105428999D01*
X135656490Y-105428629D01*
X135707352Y-105423105D01*
X135722604Y-105419479D01*
X135843054Y-105374324D01*
X135858649Y-105365786D01*
X135960724Y-105289285D01*
X135973285Y-105276724D01*
X136049786Y-105174649D01*
X136058324Y-105159054D01*
X136103478Y-105038606D01*
X136107105Y-105023351D01*
X136112631Y-104972486D01*
X136113000Y-104965672D01*
X136113000Y-103478115D01*
X136108525Y-103462876D01*
X136107135Y-103461671D01*
X136099452Y-103460000D01*
X135242115Y-103460000D01*
X135226876Y-103464475D01*
X135225671Y-103465865D01*
X135224000Y-103473548D01*
X135224000Y-105410884D01*
X134716000Y-105410884D01*
X134716000Y-103478115D01*
X134711525Y-103462876D01*
X134710135Y-103461671D01*
X134702452Y-103460000D01*
X133845116Y-103460000D01*
X133829877Y-103464475D01*
X133828672Y-103465865D01*
X133827001Y-103473548D01*
X133827001Y-104965669D01*
X133573500Y-104965669D01*
X133573500Y-104362866D01*
X133566745Y-104300684D01*
X133515615Y-104164295D01*
X133428261Y-104047739D01*
X133311705Y-103960385D01*
X133175316Y-103909255D01*
X133113134Y-103902500D01*
X132297066Y-103902500D01*
X132228945Y-103882498D01*
X132182452Y-103828842D01*
X132172348Y-103758568D01*
X132201842Y-103693988D01*
X132223005Y-103674564D01*
X132355709Y-103578149D01*
X132355711Y-103578147D01*
X132361053Y-103574266D01*
X132395334Y-103536193D01*
X132484421Y-103437252D01*
X132484422Y-103437251D01*
X132488840Y-103432344D01*
X132584327Y-103266956D01*
X132643342Y-103085328D01*
X132644938Y-103070149D01*
X132662614Y-102901965D01*
X132663304Y-102895400D01*
X132656847Y-102833965D01*
X132669619Y-102764127D01*
X132718121Y-102712280D01*
X132730909Y-102705688D01*
X132860919Y-102647805D01*
X132860926Y-102647801D01*
X132866952Y-102645118D01*
X132873979Y-102640013D01*
X132942797Y-102590013D01*
X133021453Y-102532866D01*
X133078096Y-102469958D01*
X133118929Y-102440618D01*
X133120993Y-102440018D01*
X133138428Y-102429707D01*
X133156176Y-102421012D01*
X133175017Y-102413552D01*
X133187397Y-102404558D01*
X133210787Y-102387564D01*
X133220707Y-102381048D01*
X133251935Y-102362580D01*
X133251938Y-102362578D01*
X133258762Y-102358542D01*
X133273083Y-102344221D01*
X133288117Y-102331380D01*
X133298094Y-102324131D01*
X133304507Y-102319472D01*
X133332698Y-102285395D01*
X133340688Y-102276616D01*
X133611905Y-102005399D01*
X133674217Y-101971373D01*
X133745032Y-101976438D01*
X133801868Y-102018985D01*
X133826679Y-102085505D01*
X133827000Y-102094494D01*
X133827000Y-102933885D01*
X133831475Y-102949124D01*
X133832865Y-102950329D01*
X133840548Y-102952000D01*
X134697885Y-102952000D01*
X134713124Y-102947525D01*
X134714329Y-102946135D01*
X134716000Y-102938452D01*
X134716000Y-102933885D01*
X135224000Y-102933885D01*
X135228475Y-102949124D01*
X135229865Y-102950329D01*
X135237548Y-102952000D01*
X136094884Y-102952000D01*
X136110123Y-102947525D01*
X136111328Y-102946135D01*
X136112999Y-102938452D01*
X136112999Y-101446331D01*
X136112629Y-101439510D01*
X136107105Y-101388648D01*
X136103479Y-101373396D01*
X136058324Y-101252946D01*
X136049786Y-101237351D01*
X135973285Y-101135276D01*
X135960724Y-101122715D01*
X135858649Y-101046214D01*
X135843054Y-101037676D01*
X135722606Y-100992522D01*
X135707351Y-100988895D01*
X135656486Y-100983369D01*
X135649672Y-100983000D01*
X135242115Y-100983000D01*
X135226876Y-100987475D01*
X135225671Y-100988865D01*
X135224000Y-100996548D01*
X135224000Y-102933885D01*
X134716000Y-102933885D01*
X134716000Y-101001118D01*
X134714406Y-100995689D01*
X134714407Y-100924692D01*
X134746208Y-100871097D01*
X135465324Y-100151981D01*
X135527636Y-100117955D01*
X135580616Y-100117829D01*
X135648356Y-100132228D01*
X135648361Y-100132228D01*
X135654813Y-100133600D01*
X135845787Y-100133600D01*
X135852239Y-100132228D01*
X135852244Y-100132228D01*
X135939188Y-100113747D01*
X136032588Y-100093894D01*
X136050689Y-100085835D01*
X136201022Y-100018903D01*
X136201024Y-100018902D01*
X136207052Y-100016218D01*
X136219517Y-100007162D01*
X136291868Y-99954595D01*
X136361553Y-99903966D01*
X136365975Y-99899055D01*
X136484921Y-99766952D01*
X136484922Y-99766951D01*
X136489340Y-99762044D01*
X136584827Y-99596656D01*
X136643842Y-99415028D01*
X136644822Y-99405710D01*
X136663114Y-99231665D01*
X136663804Y-99225100D01*
X136657744Y-99167438D01*
X136644532Y-99041735D01*
X136644532Y-99041733D01*
X136643842Y-99035172D01*
X136584827Y-98853544D01*
X136579106Y-98843634D01*
X136512128Y-98727626D01*
X136489340Y-98688156D01*
X136471328Y-98668151D01*
X136365975Y-98551145D01*
X136365974Y-98551144D01*
X136361553Y-98546234D01*
X136256358Y-98469805D01*
X136212394Y-98437863D01*
X136212393Y-98437862D01*
X136207052Y-98433982D01*
X136201024Y-98431298D01*
X136201022Y-98431297D01*
X136038619Y-98358991D01*
X136038618Y-98358991D01*
X136032588Y-98356306D01*
X135939187Y-98336453D01*
X135852244Y-98317972D01*
X135852239Y-98317972D01*
X135845787Y-98316600D01*
X135654813Y-98316600D01*
X135648361Y-98317972D01*
X135648356Y-98317972D01*
X135561413Y-98336453D01*
X135468012Y-98356306D01*
X135461982Y-98358991D01*
X135461981Y-98358991D01*
X135299578Y-98431297D01*
X135299576Y-98431298D01*
X135293548Y-98433982D01*
X135288207Y-98437862D01*
X135288206Y-98437863D01*
X135228074Y-98481552D01*
X135139047Y-98546234D01*
X135134634Y-98551136D01*
X135134632Y-98551137D01*
X135113226Y-98574911D01*
X135052780Y-98612150D01*
X135019590Y-98616600D01*
X127975236Y-98616600D01*
X127958793Y-98615522D01*
X127927100Y-98611350D01*
X127918911Y-98612428D01*
X127887226Y-98616599D01*
X127887217Y-98616600D01*
X127887215Y-98616600D01*
X127789176Y-98629507D01*
X127768249Y-98632262D01*
X127620224Y-98693576D01*
X127613673Y-98698603D01*
X127613671Y-98698604D01*
X127531917Y-98761337D01*
X127525028Y-98766623D01*
X127525025Y-98766626D01*
X127493113Y-98791113D01*
X127488083Y-98797668D01*
X127473648Y-98816479D01*
X127462781Y-98828870D01*
X124800366Y-101491285D01*
X124787975Y-101502152D01*
X124762613Y-101521613D01*
X124738126Y-101553525D01*
X124738123Y-101553528D01*
X124738117Y-101553536D01*
X124673810Y-101637342D01*
X124665076Y-101648724D01*
X124609146Y-101783751D01*
X124603762Y-101796750D01*
X124602685Y-101804934D01*
X124602684Y-101804936D01*
X124593063Y-101878015D01*
X124588100Y-101915715D01*
X124588100Y-101915720D01*
X124582850Y-101955600D01*
X124584927Y-101971373D01*
X124587022Y-101987290D01*
X124588100Y-102003736D01*
X124588100Y-104400310D01*
X124568098Y-104468431D01*
X124555736Y-104484620D01*
X124497443Y-104549361D01*
X124457560Y-104593656D01*
X124362073Y-104759044D01*
X124303058Y-104940672D01*
X124302368Y-104947233D01*
X124302368Y-104947235D01*
X124294368Y-105023351D01*
X124283096Y-105130600D01*
X124283786Y-105137165D01*
X124298492Y-105277081D01*
X124303058Y-105320528D01*
X124362073Y-105502156D01*
X124457560Y-105667544D01*
X124461978Y-105672451D01*
X124461979Y-105672452D01*
X124576930Y-105800118D01*
X124585347Y-105809466D01*
X124739848Y-105921718D01*
X124745876Y-105924402D01*
X124745878Y-105924403D01*
X124899587Y-105992838D01*
X124914312Y-105999394D01*
X125007713Y-106019247D01*
X125094656Y-106037728D01*
X125094661Y-106037728D01*
X125101113Y-106039100D01*
X125292087Y-106039100D01*
X125298539Y-106037728D01*
X125298544Y-106037728D01*
X125385487Y-106019247D01*
X125478888Y-105999394D01*
X125493613Y-105992838D01*
X125647322Y-105924403D01*
X125647324Y-105924402D01*
X125653352Y-105921718D01*
X125807853Y-105809466D01*
X125816270Y-105800118D01*
X125931221Y-105672452D01*
X125931222Y-105672451D01*
X125935640Y-105667544D01*
X125971381Y-105605639D01*
X126022764Y-105556646D01*
X126092477Y-105543210D01*
X126158388Y-105569596D01*
X126199570Y-105627429D01*
X126206500Y-105668639D01*
X126206500Y-107889134D01*
X126213255Y-107951316D01*
X126264385Y-108087705D01*
X126351739Y-108204261D01*
X126358919Y-108209642D01*
X126432348Y-108264674D01*
X126474863Y-108321533D01*
X126479889Y-108392352D01*
X126445829Y-108454645D01*
X126383498Y-108488635D01*
X126356783Y-108491500D01*
X123634500Y-108491500D01*
X123566379Y-108471498D01*
X123519886Y-108417842D01*
X123508500Y-108365500D01*
X123508500Y-93354009D01*
X142829432Y-93354009D01*
X142832252Y-93367431D01*
X142843713Y-93370400D01*
X143342085Y-93370400D01*
X143357324Y-93365925D01*
X143358529Y-93364535D01*
X143360200Y-93356852D01*
X143360200Y-92830842D01*
X143356227Y-92817311D01*
X143348329Y-92816176D01*
X143222416Y-92852757D01*
X143207980Y-92859004D01*
X143080701Y-92934276D01*
X143068274Y-92943916D01*
X142963716Y-93048474D01*
X142954076Y-93060901D01*
X142878804Y-93188180D01*
X142872557Y-93202616D01*
X142830888Y-93346041D01*
X142829432Y-93354009D01*
X123508500Y-93354009D01*
X123508500Y-87563134D01*
X136366500Y-87563134D01*
X136373255Y-87625316D01*
X136424385Y-87761705D01*
X136511739Y-87878261D01*
X136518919Y-87883642D01*
X136518920Y-87883643D01*
X136591004Y-87937667D01*
X136633519Y-87994526D01*
X136638545Y-88065345D01*
X136616266Y-88114056D01*
X136549385Y-88203295D01*
X136498255Y-88339684D01*
X136491500Y-88401866D01*
X136491500Y-89598134D01*
X136498255Y-89660316D01*
X136549385Y-89796705D01*
X136636739Y-89913261D01*
X136753295Y-90000615D01*
X136889684Y-90051745D01*
X136951866Y-90058500D01*
X138148134Y-90058500D01*
X138210316Y-90051745D01*
X138346705Y-90000615D01*
X138463261Y-89913261D01*
X138550615Y-89796705D01*
X138601745Y-89660316D01*
X138608500Y-89598134D01*
X138891500Y-89598134D01*
X138898255Y-89660316D01*
X138949385Y-89796705D01*
X139036739Y-89913261D01*
X139153295Y-90000615D01*
X139289684Y-90051745D01*
X139351866Y-90058500D01*
X140548134Y-90058500D01*
X140610316Y-90051745D01*
X140746705Y-90000615D01*
X140863261Y-89913261D01*
X140941449Y-89808935D01*
X140998308Y-89766420D01*
X141042275Y-89758500D01*
X141432930Y-89758500D01*
X141451880Y-89759933D01*
X141466115Y-89762099D01*
X141466119Y-89762099D01*
X141473349Y-89763199D01*
X141480641Y-89762606D01*
X141480644Y-89762606D01*
X141526018Y-89758915D01*
X141536233Y-89758500D01*
X141544293Y-89758500D01*
X141557583Y-89756951D01*
X141572507Y-89755211D01*
X141576882Y-89754778D01*
X141642339Y-89749454D01*
X141642342Y-89749453D01*
X141649637Y-89748860D01*
X141656601Y-89746604D01*
X141662560Y-89745413D01*
X141668415Y-89744029D01*
X141675681Y-89743182D01*
X141744327Y-89718265D01*
X141748455Y-89716848D01*
X141810936Y-89696607D01*
X141810938Y-89696606D01*
X141817899Y-89694351D01*
X141824154Y-89690555D01*
X141829628Y-89688049D01*
X141835058Y-89685330D01*
X141841937Y-89682833D01*
X141864996Y-89667715D01*
X141902976Y-89642814D01*
X141906680Y-89640477D01*
X141969107Y-89602595D01*
X141977484Y-89595197D01*
X141977508Y-89595224D01*
X141980500Y-89592571D01*
X141983733Y-89589868D01*
X141989852Y-89585856D01*
X142043128Y-89529617D01*
X142045506Y-89527175D01*
X143078911Y-88493770D01*
X143093323Y-88481384D01*
X143104918Y-88472851D01*
X143104923Y-88472846D01*
X143110818Y-88468508D01*
X143115557Y-88462930D01*
X143115560Y-88462927D01*
X143145035Y-88428232D01*
X143151965Y-88420716D01*
X143157661Y-88415020D01*
X143159924Y-88412159D01*
X143159929Y-88412154D01*
X143175293Y-88392734D01*
X143178082Y-88389333D01*
X143203314Y-88359633D01*
X143225333Y-88333715D01*
X143228659Y-88327202D01*
X143232020Y-88322163D01*
X143235196Y-88317021D01*
X143239734Y-88311284D01*
X143270655Y-88245125D01*
X143272561Y-88241225D01*
X143287636Y-88211703D01*
X143305769Y-88176192D01*
X143307508Y-88169083D01*
X143309604Y-88163449D01*
X143311523Y-88157679D01*
X143314622Y-88151050D01*
X143316503Y-88142011D01*
X143327999Y-88086739D01*
X143329035Y-88081757D01*
X143362490Y-88019138D01*
X143408166Y-87989435D01*
X143463295Y-87968768D01*
X143463296Y-87968767D01*
X143471705Y-87965615D01*
X143588261Y-87878261D01*
X143675615Y-87761705D01*
X143726745Y-87625316D01*
X143733500Y-87563134D01*
X143733500Y-84036866D01*
X143726745Y-83974684D01*
X143675615Y-83838295D01*
X143588261Y-83721739D01*
X143471705Y-83634385D01*
X143335316Y-83583255D01*
X143273134Y-83576500D01*
X141906866Y-83576500D01*
X141844684Y-83583255D01*
X141708295Y-83634385D01*
X141591739Y-83721739D01*
X141504385Y-83838295D01*
X141453255Y-83974684D01*
X141446500Y-84036866D01*
X141446500Y-87563134D01*
X141453255Y-87625316D01*
X141504385Y-87761705D01*
X141509766Y-87768885D01*
X141514079Y-87776763D01*
X141512183Y-87777801D01*
X141532788Y-87832964D01*
X141517732Y-87902345D01*
X141496209Y-87931110D01*
X141222724Y-88204595D01*
X141160412Y-88238621D01*
X141133629Y-88241500D01*
X141042275Y-88241500D01*
X140974154Y-88221498D01*
X140941449Y-88191065D01*
X140939303Y-88188201D01*
X140863261Y-88086739D01*
X140746705Y-87999385D01*
X140610316Y-87948255D01*
X140548134Y-87941500D01*
X139351866Y-87941500D01*
X139289684Y-87948255D01*
X139153295Y-87999385D01*
X139036739Y-88086739D01*
X138949385Y-88203295D01*
X138898255Y-88339684D01*
X138891500Y-88401866D01*
X138891500Y-89598134D01*
X138608500Y-89598134D01*
X138608500Y-88401866D01*
X138601745Y-88339684D01*
X138550615Y-88203295D01*
X138463261Y-88086739D01*
X138463017Y-88086556D01*
X138431081Y-88028072D01*
X138436146Y-87957257D01*
X138478637Y-87900463D01*
X138501081Y-87883642D01*
X138508261Y-87878261D01*
X138595615Y-87761705D01*
X138646745Y-87625316D01*
X138653500Y-87563134D01*
X138653500Y-84036866D01*
X138646745Y-83974684D01*
X138595615Y-83838295D01*
X138508261Y-83721739D01*
X138391705Y-83634385D01*
X138255316Y-83583255D01*
X138193134Y-83576500D01*
X136826866Y-83576500D01*
X136764684Y-83583255D01*
X136628295Y-83634385D01*
X136511739Y-83721739D01*
X136424385Y-83838295D01*
X136373255Y-83974684D01*
X136366500Y-84036866D01*
X136366500Y-87563134D01*
X123508500Y-87563134D01*
X123508500Y-80634500D01*
X123528502Y-80566379D01*
X123582158Y-80519886D01*
X123634500Y-80508500D01*
X139064789Y-80508500D01*
X139132910Y-80528502D01*
G37*
G04 #@! TD.AperFunction*
G04 #@! TA.AperFunction,Conductor*
G36*
X148996094Y-103536193D02*
G01*
X149048400Y-103584199D01*
X149066500Y-103649265D01*
X149066500Y-104969134D01*
X149073255Y-105031316D01*
X149124385Y-105167705D01*
X149211739Y-105284261D01*
X149328295Y-105371615D01*
X149464684Y-105422745D01*
X149526866Y-105429500D01*
X150893134Y-105429500D01*
X150955316Y-105422745D01*
X151091705Y-105371615D01*
X151208261Y-105284261D01*
X151295615Y-105167705D01*
X151346745Y-105031316D01*
X151353500Y-104969134D01*
X151353500Y-104288137D01*
X151373502Y-104220016D01*
X151427158Y-104173523D01*
X151497432Y-104163419D01*
X151514611Y-104167413D01*
X151517712Y-104168794D01*
X151524173Y-104170167D01*
X151526515Y-104170928D01*
X151585125Y-104210995D01*
X151612768Y-104276389D01*
X151612854Y-104304372D01*
X151606869Y-104359467D01*
X151606500Y-104362866D01*
X151606500Y-107715500D01*
X151586498Y-107783621D01*
X151532842Y-107830114D01*
X151480500Y-107841500D01*
X148939500Y-107841500D01*
X148871379Y-107821498D01*
X148824886Y-107767842D01*
X148813500Y-107715500D01*
X148813500Y-104362866D01*
X148806745Y-104300684D01*
X148755615Y-104164295D01*
X148750230Y-104157110D01*
X148750229Y-104157108D01*
X148674058Y-104055473D01*
X148649210Y-103988966D01*
X148664263Y-103919584D01*
X148681244Y-103895603D01*
X148689040Y-103886944D01*
X148763158Y-103758568D01*
X148781223Y-103727279D01*
X148781224Y-103727278D01*
X148784527Y-103721556D01*
X148820667Y-103610329D01*
X148860741Y-103551723D01*
X148926137Y-103524086D01*
X148996094Y-103536193D01*
G37*
G04 #@! TD.AperFunction*
G04 #@! TA.AperFunction,Conductor*
G36*
X170380139Y-101362523D02*
G01*
X170430934Y-101412125D01*
X170442068Y-101438668D01*
X170477893Y-101561982D01*
X170477895Y-101561987D01*
X170480106Y-101569597D01*
X170484143Y-101576423D01*
X170490015Y-101586353D01*
X170507474Y-101655170D01*
X170490016Y-101714628D01*
X170484605Y-101723778D01*
X170478357Y-101738216D01*
X170443381Y-101858605D01*
X170443421Y-101872705D01*
X170450691Y-101876000D01*
X170728621Y-101876000D01*
X170792760Y-101893546D01*
X170820403Y-101909894D01*
X170828014Y-101912105D01*
X170828016Y-101912106D01*
X170865559Y-101923013D01*
X170977746Y-101955606D01*
X170984151Y-101956110D01*
X170984156Y-101956111D01*
X171012060Y-101958307D01*
X171012068Y-101958307D01*
X171014516Y-101958500D01*
X171378000Y-101958500D01*
X171446121Y-101978502D01*
X171492614Y-102032158D01*
X171504000Y-102084500D01*
X171504000Y-102898424D01*
X171508344Y-102913219D01*
X171518775Y-102915063D01*
X171528359Y-102913312D01*
X171671784Y-102871643D01*
X171686224Y-102865394D01*
X171763862Y-102819480D01*
X171832678Y-102802021D01*
X171900009Y-102824538D01*
X171944478Y-102879883D01*
X171954000Y-102927934D01*
X171954000Y-103571129D01*
X171933998Y-103639250D01*
X171917095Y-103660224D01*
X167822724Y-107754595D01*
X167760412Y-107788621D01*
X167733629Y-107791500D01*
X164179500Y-107791500D01*
X164111379Y-107771498D01*
X164064886Y-107717842D01*
X164053500Y-107665500D01*
X164053500Y-104362866D01*
X164046745Y-104300684D01*
X163995615Y-104164295D01*
X163908261Y-104047739D01*
X163791705Y-103960385D01*
X163655316Y-103909255D01*
X163647463Y-103908402D01*
X163647459Y-103908401D01*
X163630894Y-103906602D01*
X163565331Y-103879361D01*
X163524904Y-103820998D01*
X163518500Y-103781339D01*
X163518500Y-102125136D01*
X163519578Y-102108690D01*
X163522672Y-102085188D01*
X163523750Y-102077000D01*
X163521217Y-102057755D01*
X163518500Y-102037120D01*
X163518500Y-102037115D01*
X163504891Y-101933741D01*
X163504890Y-101933739D01*
X163502838Y-101918150D01*
X163502838Y-101918149D01*
X163441524Y-101770124D01*
X163419499Y-101741420D01*
X163368483Y-101674936D01*
X163368477Y-101674928D01*
X163368474Y-101674925D01*
X163357943Y-101661201D01*
X163332344Y-101594983D01*
X163346609Y-101525434D01*
X163396211Y-101474638D01*
X163457907Y-101458500D01*
X164180500Y-101458500D01*
X164248621Y-101478502D01*
X164295114Y-101532158D01*
X164306500Y-101584500D01*
X164306500Y-104969134D01*
X164313255Y-105031316D01*
X164364385Y-105167705D01*
X164451739Y-105284261D01*
X164568295Y-105371615D01*
X164704684Y-105422745D01*
X164766866Y-105429500D01*
X166133134Y-105429500D01*
X166195316Y-105422745D01*
X166331705Y-105371615D01*
X166448261Y-105284261D01*
X166535615Y-105167705D01*
X166586745Y-105031316D01*
X166593500Y-104969134D01*
X166593500Y-102395871D01*
X170441776Y-102395871D01*
X170478357Y-102521784D01*
X170484604Y-102536220D01*
X170559876Y-102663499D01*
X170569516Y-102675926D01*
X170674074Y-102780484D01*
X170686501Y-102790124D01*
X170813780Y-102865396D01*
X170828216Y-102871643D01*
X170971641Y-102913312D01*
X170979609Y-102914768D01*
X170993031Y-102911948D01*
X170996000Y-102900487D01*
X170996000Y-102402115D01*
X170991525Y-102386876D01*
X170990135Y-102385671D01*
X170982452Y-102384000D01*
X170456442Y-102384000D01*
X170442911Y-102387973D01*
X170441776Y-102395871D01*
X166593500Y-102395871D01*
X166593500Y-101584500D01*
X166613502Y-101516379D01*
X166667158Y-101469886D01*
X166719500Y-101458500D01*
X169879364Y-101458500D01*
X169895807Y-101459578D01*
X169927500Y-101463750D01*
X169935689Y-101462672D01*
X169967374Y-101458501D01*
X169967384Y-101458500D01*
X169967385Y-101458500D01*
X170066957Y-101445391D01*
X170078164Y-101443916D01*
X170078166Y-101443915D01*
X170086351Y-101442838D01*
X170234376Y-101381524D01*
X170244369Y-101373856D01*
X170247794Y-101372532D01*
X170248078Y-101372368D01*
X170248104Y-101372412D01*
X170310590Y-101348257D01*
X170380139Y-101362523D01*
G37*
G04 #@! TD.AperFunction*
G04 #@! TA.AperFunction,Conductor*
G36*
X133755827Y-99853602D02*
G01*
X133802320Y-99907258D01*
X133812424Y-99977532D01*
X133782930Y-100042112D01*
X133776801Y-100048695D01*
X132855991Y-100969505D01*
X132793679Y-101003531D01*
X132722864Y-100998466D01*
X132715647Y-100995517D01*
X132698519Y-100987891D01*
X132698518Y-100987891D01*
X132692488Y-100985206D01*
X132579465Y-100961182D01*
X132512144Y-100946872D01*
X132512139Y-100946872D01*
X132505687Y-100945500D01*
X132314713Y-100945500D01*
X132308261Y-100946872D01*
X132308256Y-100946872D01*
X132240935Y-100961182D01*
X132127912Y-100985206D01*
X132121882Y-100987891D01*
X132121881Y-100987891D01*
X131959478Y-101060197D01*
X131959476Y-101060198D01*
X131953448Y-101062882D01*
X131948107Y-101066762D01*
X131948106Y-101066763D01*
X131811139Y-101166276D01*
X131744271Y-101190134D01*
X131675120Y-101174054D01*
X131647983Y-101153435D01*
X131088721Y-100594173D01*
X131077852Y-100581781D01*
X131063413Y-100562963D01*
X131063412Y-100562962D01*
X131058387Y-100556413D01*
X131026475Y-100531926D01*
X131026472Y-100531923D01*
X130999029Y-100510865D01*
X130937829Y-100463904D01*
X130937827Y-100463903D01*
X130931276Y-100458876D01*
X130783251Y-100397562D01*
X130775064Y-100396484D01*
X130775063Y-100396484D01*
X130751165Y-100393338D01*
X130664293Y-100381901D01*
X130664291Y-100381901D01*
X130664285Y-100381900D01*
X130664283Y-100381900D01*
X130664274Y-100381899D01*
X130632589Y-100377728D01*
X130624400Y-100376650D01*
X130592707Y-100380822D01*
X130576264Y-100381900D01*
X129203736Y-100381900D01*
X129187293Y-100380822D01*
X129155600Y-100376650D01*
X129147411Y-100377728D01*
X129115726Y-100381899D01*
X129115717Y-100381900D01*
X129115715Y-100381900D01*
X129115709Y-100381901D01*
X129115707Y-100381901D01*
X129028835Y-100393338D01*
X129004937Y-100396484D01*
X129004936Y-100396484D01*
X128996749Y-100397562D01*
X128848724Y-100458876D01*
X128842173Y-100463903D01*
X128842171Y-100463904D01*
X128780971Y-100510865D01*
X128753528Y-100531923D01*
X128753525Y-100531926D01*
X128721613Y-100556413D01*
X128716583Y-100562968D01*
X128702148Y-100581779D01*
X128691281Y-100594170D01*
X128280166Y-101005285D01*
X128267775Y-101016152D01*
X128242413Y-101035613D01*
X128217926Y-101067525D01*
X128217923Y-101067528D01*
X128217917Y-101067536D01*
X128152004Y-101153435D01*
X128144876Y-101162724D01*
X128084503Y-101308478D01*
X128083562Y-101310750D01*
X128067900Y-101429715D01*
X128067900Y-101429720D01*
X128062650Y-101469600D01*
X128066610Y-101499677D01*
X128066822Y-101501290D01*
X128067900Y-101517736D01*
X128067900Y-103776500D01*
X128047898Y-103844621D01*
X127994242Y-103891114D01*
X127941900Y-103902500D01*
X126666866Y-103902500D01*
X126604684Y-103909255D01*
X126468295Y-103960385D01*
X126351739Y-104047739D01*
X126264385Y-104164295D01*
X126213255Y-104300684D01*
X126206500Y-104362866D01*
X126206500Y-104592561D01*
X126186498Y-104660682D01*
X126132842Y-104707175D01*
X126062568Y-104717279D01*
X125997988Y-104687785D01*
X125971381Y-104655561D01*
X125938941Y-104599374D01*
X125935640Y-104593656D01*
X125895757Y-104549361D01*
X125837464Y-104484620D01*
X125806746Y-104420613D01*
X125805100Y-104400310D01*
X125805100Y-102259839D01*
X125825102Y-102191718D01*
X125842005Y-102170744D01*
X128142244Y-99870505D01*
X128204556Y-99836479D01*
X128231339Y-99833600D01*
X133687706Y-99833600D01*
X133755827Y-99853602D01*
G37*
G04 #@! TD.AperFunction*
G04 #@! TA.AperFunction,Conductor*
G36*
X151569435Y-96928502D02*
G01*
X151615928Y-96982158D01*
X151622433Y-96999769D01*
X151657783Y-97123050D01*
X151748187Y-97298956D01*
X151871035Y-97453953D01*
X151875728Y-97457947D01*
X151875729Y-97457948D01*
X152011536Y-97573528D01*
X152021650Y-97582136D01*
X152194294Y-97678624D01*
X152382392Y-97739740D01*
X152578777Y-97763158D01*
X152584912Y-97762686D01*
X152584914Y-97762686D01*
X152769830Y-97748457D01*
X152769834Y-97748456D01*
X152775972Y-97747984D01*
X152966463Y-97694798D01*
X152971967Y-97692018D01*
X152971969Y-97692017D01*
X153137495Y-97608404D01*
X153137497Y-97608403D01*
X153142996Y-97605625D01*
X153263475Y-97511497D01*
X153329468Y-97485319D01*
X153399138Y-97498976D01*
X153430142Y-97521691D01*
X154378256Y-98469805D01*
X154412282Y-98532117D01*
X154407217Y-98602932D01*
X154364670Y-98659768D01*
X154298150Y-98684579D01*
X154289161Y-98684900D01*
X154209513Y-98684900D01*
X154203061Y-98686272D01*
X154203056Y-98686272D01*
X154116112Y-98704753D01*
X154022712Y-98724606D01*
X154016682Y-98727291D01*
X154016681Y-98727291D01*
X153854278Y-98799597D01*
X153854276Y-98799598D01*
X153848248Y-98802282D01*
X153842907Y-98806162D01*
X153842906Y-98806163D01*
X153792843Y-98842536D01*
X153693747Y-98914534D01*
X153689326Y-98919444D01*
X153689325Y-98919445D01*
X153573883Y-99047657D01*
X153565960Y-99056456D01*
X153543882Y-99094696D01*
X153499643Y-99171321D01*
X153470473Y-99221844D01*
X153411458Y-99403472D01*
X153410768Y-99410033D01*
X153410768Y-99410035D01*
X153403372Y-99480403D01*
X153391496Y-99593400D01*
X153392186Y-99599965D01*
X153400022Y-99674516D01*
X153411458Y-99783328D01*
X153461235Y-99936525D01*
X153463263Y-100007490D01*
X153430497Y-100064554D01*
X153089443Y-100405608D01*
X153027131Y-100439634D01*
X152987178Y-100441823D01*
X152921204Y-100434889D01*
X152921202Y-100434889D01*
X152915075Y-100434245D01*
X152855860Y-100439634D01*
X152724251Y-100451611D01*
X152724248Y-100451612D01*
X152718112Y-100452170D01*
X152712206Y-100453908D01*
X152712202Y-100453909D01*
X152630212Y-100478040D01*
X152528381Y-100508010D01*
X152522923Y-100510863D01*
X152522919Y-100510865D01*
X152445413Y-100551385D01*
X152353110Y-100599640D01*
X152198975Y-100723568D01*
X152071846Y-100875074D01*
X152068876Y-100880477D01*
X152068875Y-100880478D01*
X152004191Y-100998138D01*
X151953845Y-101048197D01*
X151884428Y-101063090D01*
X151817979Y-101038089D01*
X151804681Y-101026532D01*
X151423115Y-100644966D01*
X151412248Y-100632575D01*
X151397813Y-100613763D01*
X151392787Y-100607213D01*
X151360875Y-100582726D01*
X151360872Y-100582723D01*
X151335127Y-100562968D01*
X151272229Y-100514704D01*
X151272227Y-100514703D01*
X151265676Y-100509676D01*
X151128097Y-100452689D01*
X151125280Y-100451522D01*
X151117651Y-100448362D01*
X151109464Y-100447284D01*
X151109463Y-100447284D01*
X151089424Y-100444646D01*
X150998693Y-100432701D01*
X150998691Y-100432701D01*
X150998685Y-100432700D01*
X150998683Y-100432700D01*
X150998674Y-100432699D01*
X150966989Y-100428528D01*
X150958800Y-100427450D01*
X150927107Y-100431622D01*
X150910664Y-100432700D01*
X149930922Y-100432700D01*
X149862801Y-100412698D01*
X149816308Y-100359042D01*
X149806204Y-100288768D01*
X149821803Y-100243700D01*
X149831176Y-100227466D01*
X149831177Y-100227465D01*
X149834480Y-100221743D01*
X149893495Y-100040115D01*
X149895725Y-100018903D01*
X149912767Y-99856752D01*
X149913457Y-99850187D01*
X149907090Y-99789606D01*
X149894185Y-99666822D01*
X149894185Y-99666820D01*
X149893495Y-99660259D01*
X149834480Y-99478631D01*
X149819179Y-99452128D01*
X149776670Y-99378502D01*
X149738993Y-99313243D01*
X149728585Y-99301683D01*
X149615628Y-99176232D01*
X149615627Y-99176231D01*
X149611206Y-99171321D01*
X149505741Y-99094696D01*
X149462047Y-99062950D01*
X149462046Y-99062949D01*
X149456705Y-99059069D01*
X149450677Y-99056385D01*
X149450675Y-99056384D01*
X149288272Y-98984078D01*
X149288271Y-98984078D01*
X149282241Y-98981393D01*
X149188840Y-98961540D01*
X149101897Y-98943059D01*
X149101892Y-98943059D01*
X149095440Y-98941687D01*
X149078562Y-98941687D01*
X149010441Y-98921685D01*
X148989467Y-98904782D01*
X147844388Y-97759703D01*
X147810362Y-97697391D01*
X147813650Y-97631672D01*
X147830502Y-97579806D01*
X147832542Y-97573528D01*
X147852504Y-97383600D01*
X147832542Y-97193672D01*
X147793475Y-97073436D01*
X147791448Y-97002468D01*
X147828110Y-96941671D01*
X147891822Y-96910345D01*
X147913308Y-96908500D01*
X151501314Y-96908500D01*
X151569435Y-96928502D01*
G37*
G04 #@! TD.AperFunction*
G04 #@! TA.AperFunction,Conductor*
G36*
X157146121Y-93078502D02*
G01*
X157192614Y-93132158D01*
X157204000Y-93184500D01*
X157204000Y-93998424D01*
X157208475Y-94013664D01*
X157223512Y-94026694D01*
X157261896Y-94086420D01*
X157267000Y-94121918D01*
X157267000Y-94245438D01*
X157267337Y-94251953D01*
X157276894Y-94344057D01*
X157279788Y-94357456D01*
X157329381Y-94506107D01*
X157335555Y-94519286D01*
X157417788Y-94652173D01*
X157426824Y-94663574D01*
X157537429Y-94773986D01*
X157548840Y-94782998D01*
X157681880Y-94865004D01*
X157695061Y-94871151D01*
X157843814Y-94920491D01*
X157857190Y-94923358D01*
X157948097Y-94932672D01*
X157954513Y-94933000D01*
X157977885Y-94933000D01*
X157993124Y-94928525D01*
X157994329Y-94927135D01*
X157996000Y-94919452D01*
X157996000Y-94914885D01*
X158504000Y-94914885D01*
X158508475Y-94930124D01*
X158509865Y-94931329D01*
X158517548Y-94933000D01*
X158545438Y-94933000D01*
X158551953Y-94932663D01*
X158644057Y-94923106D01*
X158657456Y-94920212D01*
X158806107Y-94870619D01*
X158819286Y-94864445D01*
X158958401Y-94778358D01*
X158960086Y-94781082D01*
X159012727Y-94759854D01*
X159082474Y-94773115D01*
X159092402Y-94779492D01*
X159092609Y-94779157D01*
X159231880Y-94865004D01*
X159245061Y-94871151D01*
X159393814Y-94920491D01*
X159407190Y-94923358D01*
X159498097Y-94932672D01*
X159504513Y-94933000D01*
X159527885Y-94933000D01*
X159543124Y-94928525D01*
X159544329Y-94927135D01*
X159546000Y-94919452D01*
X159546000Y-94247115D01*
X159541525Y-94231876D01*
X159540135Y-94230671D01*
X159532452Y-94229000D01*
X158522115Y-94229000D01*
X158506876Y-94233475D01*
X158505671Y-94234865D01*
X158504000Y-94242548D01*
X158504000Y-94914885D01*
X157996000Y-94914885D01*
X157996000Y-93847000D01*
X158016002Y-93778879D01*
X158069658Y-93732386D01*
X158122000Y-93721000D01*
X159928000Y-93721000D01*
X159996121Y-93741002D01*
X160042614Y-93794658D01*
X160054000Y-93847000D01*
X160054000Y-94914885D01*
X160058475Y-94930124D01*
X160059865Y-94931329D01*
X160080783Y-94935879D01*
X160080088Y-94939072D01*
X160127529Y-94953002D01*
X160174022Y-95006658D01*
X160184126Y-95076932D01*
X160180322Y-95094435D01*
X159417387Y-97697391D01*
X159182060Y-98500272D01*
X159154550Y-98594128D01*
X159154274Y-98595210D01*
X159154272Y-98595218D01*
X159148822Y-98616601D01*
X159145532Y-98629507D01*
X159145301Y-98630572D01*
X159145297Y-98630587D01*
X159144933Y-98632262D01*
X159141727Y-98647015D01*
X159135241Y-98682990D01*
X159135241Y-98829148D01*
X159145345Y-98899422D01*
X159146611Y-98903734D01*
X159146612Y-98903738D01*
X159166773Y-98972399D01*
X159186522Y-99039657D01*
X159191392Y-99047236D01*
X159191394Y-99047239D01*
X159219660Y-99091221D01*
X159265540Y-99162612D01*
X159268482Y-99166007D01*
X159268484Y-99166010D01*
X159287796Y-99188297D01*
X159312033Y-99216268D01*
X159315426Y-99219208D01*
X159415682Y-99306081D01*
X159415685Y-99306083D01*
X159422493Y-99311982D01*
X159555442Y-99372698D01*
X159575209Y-99378502D01*
X159619240Y-99391431D01*
X159619244Y-99391432D01*
X159623563Y-99392700D01*
X159628012Y-99393340D01*
X159628018Y-99393341D01*
X159763785Y-99412861D01*
X159763790Y-99412861D01*
X159768232Y-99413500D01*
X161039824Y-99413500D01*
X161084054Y-99421518D01*
X161164684Y-99451745D01*
X161226866Y-99458500D01*
X162303134Y-99458500D01*
X162365316Y-99451745D01*
X162501705Y-99400615D01*
X162618261Y-99313261D01*
X162705615Y-99196705D01*
X162756745Y-99060316D01*
X162763500Y-98998134D01*
X162763500Y-95501866D01*
X162756745Y-95439684D01*
X162705615Y-95303295D01*
X162618261Y-95186739D01*
X162556193Y-95140222D01*
X162513679Y-95083365D01*
X162508653Y-95012546D01*
X162542713Y-94950253D01*
X162605043Y-94916262D01*
X162636254Y-94913477D01*
X162637110Y-94913508D01*
X162638918Y-94913572D01*
X162658495Y-94916031D01*
X162658495Y-94918729D01*
X162856505Y-94918729D01*
X162856505Y-94917108D01*
X162874509Y-94914848D01*
X162912353Y-94916204D01*
X162921085Y-94913976D01*
X162921088Y-94913976D01*
X162949341Y-94906768D01*
X163010825Y-94907869D01*
X163010887Y-94907487D01*
X163013547Y-94907918D01*
X163015990Y-94907962D01*
X163026224Y-94910967D01*
X163065486Y-94912374D01*
X163098933Y-94913573D01*
X163118495Y-94916031D01*
X163118495Y-94918729D01*
X163261126Y-94918729D01*
X163329247Y-94938731D01*
X163375740Y-94992387D01*
X163385844Y-95062661D01*
X163356350Y-95127241D01*
X163336693Y-95145553D01*
X163281739Y-95186739D01*
X163194385Y-95303295D01*
X163143255Y-95439684D01*
X163136500Y-95501866D01*
X163136500Y-98998134D01*
X163143255Y-99060316D01*
X163194385Y-99196705D01*
X163281739Y-99313261D01*
X163398295Y-99400615D01*
X163534684Y-99451745D01*
X163596866Y-99458500D01*
X164131155Y-99458500D01*
X164149087Y-99459783D01*
X164170487Y-99462860D01*
X164170502Y-99462861D01*
X164174946Y-99463500D01*
X166574000Y-99463500D01*
X166577346Y-99463140D01*
X166577351Y-99463140D01*
X166679785Y-99452128D01*
X166679792Y-99452127D01*
X166683149Y-99451766D01*
X166695998Y-99448971D01*
X166732210Y-99441094D01*
X166732215Y-99441093D01*
X166735491Y-99440380D01*
X166839657Y-99405710D01*
X166962612Y-99326692D01*
X166971903Y-99318642D01*
X166995466Y-99298224D01*
X167060047Y-99268731D01*
X167130321Y-99278836D01*
X167186438Y-99329321D01*
X167190021Y-99335381D01*
X167207474Y-99404199D01*
X167190015Y-99463647D01*
X167180106Y-99480403D01*
X167134394Y-99637746D01*
X167133890Y-99644151D01*
X167133889Y-99644156D01*
X167131693Y-99672060D01*
X167131500Y-99674516D01*
X167131500Y-100085484D01*
X167131951Y-100091209D01*
X167133084Y-100105616D01*
X167118487Y-100175096D01*
X167068644Y-100225654D01*
X167007472Y-100241500D01*
X162552924Y-100241500D01*
X162484803Y-100221498D01*
X162463829Y-100204595D01*
X162463003Y-100203769D01*
X162452135Y-100191377D01*
X162437702Y-100172567D01*
X162437698Y-100172563D01*
X162432672Y-100166013D01*
X162400772Y-100141535D01*
X162400756Y-100141522D01*
X162381609Y-100126830D01*
X162305560Y-100068476D01*
X162157535Y-100007162D01*
X162149347Y-100006084D01*
X162038581Y-99991501D01*
X162038572Y-99991500D01*
X162038569Y-99991500D01*
X162038557Y-99991499D01*
X162006873Y-99987328D01*
X161998684Y-99986250D01*
X161966991Y-99990422D01*
X161950548Y-99991500D01*
X159404238Y-99991500D01*
X159336117Y-99971498D01*
X159315143Y-99954595D01*
X156763145Y-97402597D01*
X154404142Y-95043593D01*
X154370117Y-94981283D01*
X154375182Y-94910468D01*
X154417729Y-94853632D01*
X154484249Y-94828821D01*
X154493237Y-94828500D01*
X154704661Y-94828499D01*
X154709988Y-94828499D01*
X154746466Y-94825629D01*
X154893203Y-94782998D01*
X154894983Y-94782481D01*
X154894985Y-94782480D01*
X154902596Y-94780269D01*
X154933990Y-94761703D01*
X155035720Y-94701540D01*
X155042541Y-94697506D01*
X155090934Y-94649113D01*
X155153246Y-94615087D01*
X155183555Y-94613823D01*
X155183555Y-94612672D01*
X155191811Y-94612672D01*
X155200000Y-94613750D01*
X155208189Y-94612672D01*
X155239874Y-94608501D01*
X155239884Y-94608500D01*
X155239885Y-94608500D01*
X155339457Y-94595391D01*
X155350664Y-94593916D01*
X155350666Y-94593915D01*
X155358851Y-94592838D01*
X155506876Y-94531524D01*
X155535838Y-94509301D01*
X155602072Y-94458477D01*
X155602075Y-94458474D01*
X155627434Y-94439015D01*
X155633987Y-94433987D01*
X155639017Y-94427432D01*
X155653452Y-94408621D01*
X155664319Y-94396230D01*
X156058734Y-94001815D01*
X156071125Y-93990948D01*
X156089937Y-93976513D01*
X156096487Y-93971487D01*
X156120974Y-93939575D01*
X156120978Y-93939571D01*
X156169059Y-93876911D01*
X156226393Y-93835047D01*
X156297264Y-93830825D01*
X156358113Y-93864523D01*
X156374074Y-93880484D01*
X156386501Y-93890124D01*
X156513780Y-93965396D01*
X156528216Y-93971643D01*
X156671641Y-94013312D01*
X156679609Y-94014768D01*
X156693031Y-94011948D01*
X156696000Y-94000487D01*
X156696000Y-93184500D01*
X156716002Y-93116379D01*
X156769658Y-93069886D01*
X156822000Y-93058500D01*
X157078000Y-93058500D01*
X157146121Y-93078502D01*
G37*
G04 #@! TD.AperFunction*
G04 #@! TA.AperFunction,Conductor*
G36*
X171843886Y-93357815D02*
G01*
X171888975Y-93386736D01*
X171917018Y-93414730D01*
X171951097Y-93477012D01*
X171954000Y-93503903D01*
X171954000Y-94022066D01*
X171933998Y-94090187D01*
X171880342Y-94136680D01*
X171810068Y-94146784D01*
X171763862Y-94130520D01*
X171686224Y-94084606D01*
X171671784Y-94078357D01*
X171528359Y-94036688D01*
X171520391Y-94035232D01*
X171506969Y-94038052D01*
X171504000Y-94049513D01*
X171504000Y-94865500D01*
X171483998Y-94933621D01*
X171430342Y-94980114D01*
X171378000Y-94991500D01*
X171014516Y-94991500D01*
X171012068Y-94991693D01*
X171012060Y-94991693D01*
X170984156Y-94993889D01*
X170984151Y-94993890D01*
X170977746Y-94994394D01*
X170915266Y-95012546D01*
X170828016Y-95037894D01*
X170828014Y-95037895D01*
X170820403Y-95040106D01*
X170813581Y-95044141D01*
X170813580Y-95044141D01*
X170792760Y-95056454D01*
X170728621Y-95074000D01*
X170456442Y-95074000D01*
X170441203Y-95078475D01*
X170434710Y-95085968D01*
X170415509Y-95128013D01*
X170355783Y-95166396D01*
X170320285Y-95171500D01*
X169724205Y-95171500D01*
X169656084Y-95151498D01*
X169613510Y-95102365D01*
X169578716Y-95148832D01*
X169519667Y-95172875D01*
X169430543Y-95184609D01*
X169419336Y-95186084D01*
X169419334Y-95186085D01*
X169411149Y-95187162D01*
X169263124Y-95248476D01*
X169256573Y-95253503D01*
X169256571Y-95253504D01*
X169256123Y-95253848D01*
X169167928Y-95321523D01*
X169167925Y-95321526D01*
X169136013Y-95346013D01*
X169130983Y-95352568D01*
X169116548Y-95371379D01*
X169105681Y-95383770D01*
X168953766Y-95535685D01*
X168941375Y-95546552D01*
X168916013Y-95566013D01*
X168891526Y-95597925D01*
X168891523Y-95597928D01*
X168882619Y-95609532D01*
X168823751Y-95686250D01*
X168818476Y-95693124D01*
X168769895Y-95810410D01*
X168757162Y-95841150D01*
X168741500Y-95960115D01*
X168741500Y-95960120D01*
X168736250Y-96000000D01*
X168737328Y-96008189D01*
X168737328Y-96016357D01*
X168717326Y-96084478D01*
X168711291Y-96093061D01*
X168617212Y-96215668D01*
X168614053Y-96223294D01*
X168614052Y-96223296D01*
X168604356Y-96246705D01*
X168556905Y-96361260D01*
X168541500Y-96478275D01*
X168541501Y-97596724D01*
X168542039Y-97600808D01*
X168542039Y-97600814D01*
X168548416Y-97649251D01*
X168556905Y-97713740D01*
X168560062Y-97721362D01*
X168560063Y-97721365D01*
X168614052Y-97851704D01*
X168617212Y-97859332D01*
X168713145Y-97984355D01*
X168838168Y-98080288D01*
X168845794Y-98083447D01*
X168845796Y-98083448D01*
X168904244Y-98107658D01*
X168983760Y-98140595D01*
X168991944Y-98141672D01*
X168991946Y-98141673D01*
X169096688Y-98155462D01*
X169100775Y-98156000D01*
X169349969Y-98156000D01*
X169599224Y-98155999D01*
X169603308Y-98155461D01*
X169603314Y-98155461D01*
X169651751Y-98149084D01*
X169716240Y-98140595D01*
X169723863Y-98137437D01*
X169723868Y-98137436D01*
X169777436Y-98115247D01*
X169848025Y-98107658D01*
X169873873Y-98115247D01*
X169926265Y-98136949D01*
X169942079Y-98141186D01*
X170028039Y-98152502D01*
X170042221Y-98150291D01*
X170046000Y-98137133D01*
X170046000Y-97950046D01*
X170066002Y-97881925D01*
X170072037Y-97873343D01*
X170077762Y-97865882D01*
X170082788Y-97859332D01*
X170143095Y-97713740D01*
X170145248Y-97697391D01*
X170157962Y-97600812D01*
X170157962Y-97600811D01*
X170158500Y-97596725D01*
X170158499Y-96909499D01*
X170178501Y-96841379D01*
X170232157Y-96794886D01*
X170284499Y-96783500D01*
X170315500Y-96783500D01*
X170383621Y-96803502D01*
X170430114Y-96857158D01*
X170441500Y-96909500D01*
X170441501Y-97252503D01*
X170441501Y-97596724D01*
X170442039Y-97600808D01*
X170442039Y-97600814D01*
X170448416Y-97649251D01*
X170456905Y-97713740D01*
X170460062Y-97721362D01*
X170460063Y-97721365D01*
X170471285Y-97748457D01*
X170517212Y-97859332D01*
X170522238Y-97865882D01*
X170527963Y-97873343D01*
X170553563Y-97939564D01*
X170554000Y-97950046D01*
X170554000Y-98136752D01*
X170558044Y-98150523D01*
X170571583Y-98152552D01*
X170657921Y-98141186D01*
X170673735Y-98136949D01*
X170726127Y-98115247D01*
X170796717Y-98107658D01*
X170822564Y-98115247D01*
X170874328Y-98136688D01*
X170883760Y-98140595D01*
X170891944Y-98141672D01*
X170891946Y-98141673D01*
X170996688Y-98155462D01*
X171000775Y-98156000D01*
X171249969Y-98156000D01*
X171499224Y-98155999D01*
X171503308Y-98155461D01*
X171503314Y-98155461D01*
X171551751Y-98149084D01*
X171616240Y-98140595D01*
X171623862Y-98137438D01*
X171623865Y-98137437D01*
X171754203Y-98083448D01*
X171761832Y-98080288D01*
X171766224Y-98076918D01*
X171833995Y-98060477D01*
X171901087Y-98083697D01*
X171944974Y-98139504D01*
X171954000Y-98186334D01*
X171954000Y-98378666D01*
X171933998Y-98446787D01*
X171880342Y-98493280D01*
X171810068Y-98503384D01*
X171766525Y-98488313D01*
X171761832Y-98484712D01*
X171616240Y-98424405D01*
X171608056Y-98423328D01*
X171608054Y-98423327D01*
X171503312Y-98409538D01*
X171503311Y-98409538D01*
X171499225Y-98409000D01*
X171250031Y-98409000D01*
X171000776Y-98409001D01*
X170996692Y-98409539D01*
X170996686Y-98409539D01*
X170948249Y-98415916D01*
X170883760Y-98424405D01*
X170876138Y-98427562D01*
X170876135Y-98427563D01*
X170745796Y-98481552D01*
X170745794Y-98481553D01*
X170738168Y-98484712D01*
X170731617Y-98489739D01*
X170637873Y-98561671D01*
X170613145Y-98580645D01*
X170517212Y-98705668D01*
X170514053Y-98713294D01*
X170514052Y-98713296D01*
X170505748Y-98733344D01*
X170456905Y-98851260D01*
X170455828Y-98859444D01*
X170455827Y-98859446D01*
X170443131Y-98955887D01*
X170441500Y-98968275D01*
X170441500Y-99423261D01*
X170421498Y-99491382D01*
X170404595Y-99512356D01*
X170373595Y-99543356D01*
X170311283Y-99577382D01*
X170240468Y-99572317D01*
X170183632Y-99529770D01*
X170158821Y-99463250D01*
X170158500Y-99454261D01*
X170158499Y-98972399D01*
X170158499Y-98968276D01*
X170155180Y-98943059D01*
X170146255Y-98875266D01*
X170143095Y-98851260D01*
X170139937Y-98843634D01*
X170085948Y-98713296D01*
X170085947Y-98713294D01*
X170082788Y-98705668D01*
X169986855Y-98580645D01*
X169962128Y-98561671D01*
X169868383Y-98489739D01*
X169861832Y-98484712D01*
X169854206Y-98481553D01*
X169854204Y-98481552D01*
X169748730Y-98437863D01*
X169716240Y-98424405D01*
X169708056Y-98423328D01*
X169708054Y-98423327D01*
X169603312Y-98409538D01*
X169603311Y-98409538D01*
X169599225Y-98409000D01*
X169350031Y-98409000D01*
X169100776Y-98409001D01*
X169096692Y-98409539D01*
X169096686Y-98409539D01*
X169048249Y-98415916D01*
X168983760Y-98424405D01*
X168976138Y-98427562D01*
X168976135Y-98427563D01*
X168929726Y-98446787D01*
X168838168Y-98484712D01*
X168838108Y-98484567D01*
X168773363Y-98500272D01*
X168706272Y-98477049D01*
X168670909Y-98438554D01*
X168640128Y-98386506D01*
X168630484Y-98374074D01*
X168525926Y-98269516D01*
X168513499Y-98259876D01*
X168386220Y-98184604D01*
X168371784Y-98178357D01*
X168228359Y-98136688D01*
X168220391Y-98135232D01*
X168206969Y-98138052D01*
X168204000Y-98149513D01*
X168204000Y-98965500D01*
X168183998Y-99033621D01*
X168130342Y-99080114D01*
X168078000Y-99091500D01*
X167822000Y-99091500D01*
X167753879Y-99071498D01*
X167707386Y-99017842D01*
X167696000Y-98965500D01*
X167696000Y-98151576D01*
X167691656Y-98136781D01*
X167681225Y-98134937D01*
X167671641Y-98136688D01*
X167528216Y-98178357D01*
X167513780Y-98184604D01*
X167403639Y-98249741D01*
X167334823Y-98267200D01*
X167267491Y-98244683D01*
X167223022Y-98189339D01*
X167213500Y-98141287D01*
X167213500Y-95604313D01*
X167210867Y-95560987D01*
X167209836Y-95544021D01*
X167209836Y-95544016D01*
X167209721Y-95542131D01*
X167206026Y-95511842D01*
X167194749Y-95450591D01*
X167173860Y-95399123D01*
X167141477Y-95319336D01*
X167141475Y-95319332D01*
X167139783Y-95315163D01*
X167103993Y-95253848D01*
X167039690Y-95172876D01*
X167015895Y-95142912D01*
X167015892Y-95142908D01*
X167013096Y-95139388D01*
X166859842Y-94994648D01*
X166824052Y-94933333D01*
X166827092Y-94862401D01*
X166867998Y-94804373D01*
X166880053Y-94795900D01*
X166908400Y-94778358D01*
X166910086Y-94781082D01*
X166962727Y-94759854D01*
X167032474Y-94773115D01*
X167042402Y-94779492D01*
X167042609Y-94779157D01*
X167181880Y-94865004D01*
X167195061Y-94871151D01*
X167343814Y-94920491D01*
X167357190Y-94923358D01*
X167448097Y-94932672D01*
X167454513Y-94933000D01*
X167477885Y-94933000D01*
X167493124Y-94928525D01*
X167494329Y-94927135D01*
X167496000Y-94919452D01*
X167496000Y-94914885D01*
X168004000Y-94914885D01*
X168008475Y-94930124D01*
X168009865Y-94931329D01*
X168017548Y-94933000D01*
X168045438Y-94933000D01*
X168051953Y-94932663D01*
X168144057Y-94923106D01*
X168157456Y-94920212D01*
X168306107Y-94870619D01*
X168319286Y-94864445D01*
X168458401Y-94778358D01*
X168460086Y-94781082D01*
X168512727Y-94759854D01*
X168582474Y-94773115D01*
X168592402Y-94779492D01*
X168592609Y-94779157D01*
X168731880Y-94865004D01*
X168745061Y-94871151D01*
X168893814Y-94920491D01*
X168907190Y-94923358D01*
X168998097Y-94932672D01*
X169004513Y-94933000D01*
X169027885Y-94933000D01*
X169043124Y-94928525D01*
X169044329Y-94927135D01*
X169046000Y-94919452D01*
X169046000Y-94914885D01*
X169554000Y-94914885D01*
X169558475Y-94930124D01*
X169584170Y-94952389D01*
X169582979Y-94953764D01*
X169592327Y-94958870D01*
X169613308Y-94997305D01*
X169628981Y-94962988D01*
X169688707Y-94924604D01*
X169697608Y-94922339D01*
X169707454Y-94920213D01*
X169856107Y-94870619D01*
X169869286Y-94864445D01*
X170002173Y-94782212D01*
X170013574Y-94773176D01*
X170123986Y-94662571D01*
X170132998Y-94651160D01*
X170210245Y-94525842D01*
X170263017Y-94478349D01*
X170333089Y-94466925D01*
X170398213Y-94495199D01*
X170437712Y-94554193D01*
X170438009Y-94556109D01*
X170441799Y-94561970D01*
X170450691Y-94566000D01*
X170977885Y-94566000D01*
X170993124Y-94561525D01*
X170994329Y-94560135D01*
X170996000Y-94552452D01*
X170996000Y-94051576D01*
X170991656Y-94036781D01*
X170981225Y-94034937D01*
X170971641Y-94036688D01*
X170828216Y-94078357D01*
X170813780Y-94084604D01*
X170686501Y-94159876D01*
X170674074Y-94169516D01*
X170569516Y-94274074D01*
X170559876Y-94286500D01*
X170512627Y-94366396D01*
X170460734Y-94414848D01*
X170390884Y-94427554D01*
X170325253Y-94400479D01*
X170284678Y-94342219D01*
X170278829Y-94289415D01*
X170282672Y-94251903D01*
X170282929Y-94246874D01*
X170278525Y-94231876D01*
X170277135Y-94230671D01*
X170269452Y-94229000D01*
X169572115Y-94229000D01*
X169556876Y-94233475D01*
X169555671Y-94234865D01*
X169554000Y-94242548D01*
X169554000Y-94914885D01*
X169046000Y-94914885D01*
X169046000Y-94247115D01*
X169041525Y-94231876D01*
X169040135Y-94230671D01*
X169032452Y-94229000D01*
X168022115Y-94229000D01*
X168006876Y-94233475D01*
X168005671Y-94234865D01*
X168004000Y-94242548D01*
X168004000Y-94914885D01*
X167496000Y-94914885D01*
X167496000Y-94247115D01*
X167491525Y-94231876D01*
X167490135Y-94230671D01*
X167482452Y-94229000D01*
X166093522Y-94229000D01*
X166025401Y-94208998D01*
X166015128Y-94201643D01*
X166009805Y-94197412D01*
X166009794Y-94197403D01*
X166009129Y-94196875D01*
X166008450Y-94196366D01*
X166008411Y-94196336D01*
X165996432Y-94187358D01*
X165953918Y-94130497D01*
X165946000Y-94086534D01*
X165946000Y-93847000D01*
X165966002Y-93778879D01*
X166019658Y-93732386D01*
X166072000Y-93721000D01*
X170264885Y-93721000D01*
X170280124Y-93716525D01*
X170281329Y-93715135D01*
X170282984Y-93707526D01*
X170317009Y-93645213D01*
X170379321Y-93611188D01*
X170445771Y-93614715D01*
X170463608Y-93620631D01*
X170463610Y-93620631D01*
X170470139Y-93622797D01*
X170476975Y-93623497D01*
X170476978Y-93623498D01*
X170520031Y-93627909D01*
X170574600Y-93633500D01*
X171200400Y-93633500D01*
X171203646Y-93633163D01*
X171203650Y-93633163D01*
X171299308Y-93623238D01*
X171299312Y-93623237D01*
X171306166Y-93622526D01*
X171312702Y-93620345D01*
X171312704Y-93620345D01*
X171466998Y-93568868D01*
X171473946Y-93566550D01*
X171624348Y-93473478D01*
X171710784Y-93386891D01*
X171773066Y-93352812D01*
X171843886Y-93357815D01*
G37*
G04 #@! TD.AperFunction*
G04 #@! TA.AperFunction,Conductor*
G36*
X151985395Y-92354102D02*
G01*
X152006369Y-92371004D01*
X152389468Y-92754102D01*
X152465914Y-92830548D01*
X152499939Y-92892861D01*
X152494875Y-92963676D01*
X152452328Y-93020512D01*
X152385808Y-93045323D01*
X152328601Y-93036053D01*
X152277841Y-93015028D01*
X152258851Y-93007162D01*
X152250664Y-93006084D01*
X152250663Y-93006084D01*
X152239458Y-93004609D01*
X152208262Y-93000502D01*
X152139885Y-92991500D01*
X152139882Y-92991500D01*
X152139874Y-92991499D01*
X152108189Y-92987328D01*
X152100000Y-92986250D01*
X152068307Y-92990422D01*
X152051864Y-92991500D01*
X150284500Y-92991500D01*
X150216379Y-92971498D01*
X150169886Y-92917842D01*
X150158500Y-92865500D01*
X150158500Y-92748136D01*
X150159578Y-92731690D01*
X150162672Y-92708188D01*
X150163750Y-92700000D01*
X150158500Y-92660122D01*
X150158500Y-92660115D01*
X150142838Y-92541150D01*
X150139678Y-92533522D01*
X150139677Y-92533517D01*
X150129239Y-92508317D01*
X150121650Y-92437727D01*
X150153430Y-92374240D01*
X150214489Y-92338014D01*
X150245648Y-92334100D01*
X151917274Y-92334100D01*
X151985395Y-92354102D01*
G37*
G04 #@! TD.AperFunction*
G04 #@! TA.AperFunction,Conductor*
G36*
X159201400Y-80696181D02*
G01*
X159269123Y-80717489D01*
X159314576Y-80772029D01*
X159323327Y-80842484D01*
X159299803Y-80897723D01*
X159284385Y-80918295D01*
X159233255Y-81054684D01*
X159226500Y-81116866D01*
X159226500Y-84643134D01*
X159233255Y-84705316D01*
X159284385Y-84841705D01*
X159371739Y-84958261D01*
X159488295Y-85045615D01*
X159624684Y-85096745D01*
X159686866Y-85103500D01*
X161053134Y-85103500D01*
X161115316Y-85096745D01*
X161251705Y-85045615D01*
X161368261Y-84958261D01*
X161455615Y-84841705D01*
X161506745Y-84705316D01*
X161513500Y-84643134D01*
X161513500Y-81116866D01*
X161506745Y-81054684D01*
X161455615Y-80918295D01*
X161457303Y-80917662D01*
X161444456Y-80858900D01*
X161469197Y-80792354D01*
X161525988Y-80749747D01*
X161572566Y-80741780D01*
X162075706Y-80751456D01*
X164232018Y-80792924D01*
X164299741Y-80814232D01*
X164345194Y-80868772D01*
X164353945Y-80939227D01*
X164347578Y-80963128D01*
X164313255Y-81054684D01*
X164306500Y-81116866D01*
X164306500Y-84643134D01*
X164313255Y-84705316D01*
X164364385Y-84841705D01*
X164451739Y-84958261D01*
X164568295Y-85045615D01*
X164704684Y-85096745D01*
X164766866Y-85103500D01*
X166133134Y-85103500D01*
X166195316Y-85096745D01*
X166331705Y-85045615D01*
X166448261Y-84958261D01*
X166535615Y-84841705D01*
X166586745Y-84705316D01*
X166593500Y-84643134D01*
X166593500Y-81116866D01*
X166586745Y-81054684D01*
X166570147Y-81010409D01*
X166564964Y-80939603D01*
X166598884Y-80877234D01*
X166661139Y-80843105D01*
X166690552Y-80840203D01*
X174367923Y-80987845D01*
X174435646Y-81009153D01*
X174481099Y-81063693D01*
X174491500Y-81113822D01*
X174491500Y-91573900D01*
X174471498Y-91642021D01*
X174417842Y-91688514D01*
X174365500Y-91699900D01*
X174300913Y-91699900D01*
X174294461Y-91701272D01*
X174294456Y-91701272D01*
X174207512Y-91719753D01*
X174114112Y-91739606D01*
X174108082Y-91742291D01*
X174108081Y-91742291D01*
X173945678Y-91814597D01*
X173945676Y-91814598D01*
X173939648Y-91817282D01*
X173934307Y-91821162D01*
X173934306Y-91821163D01*
X173903621Y-91843457D01*
X173836753Y-91867316D01*
X173767601Y-91851235D01*
X173718121Y-91800321D01*
X173710036Y-91781397D01*
X173668868Y-91658002D01*
X173666550Y-91651054D01*
X173573478Y-91500652D01*
X173448303Y-91375695D01*
X173329517Y-91302474D01*
X173303968Y-91286725D01*
X173303966Y-91286724D01*
X173297738Y-91282885D01*
X173211484Y-91254276D01*
X173136389Y-91229368D01*
X173136387Y-91229368D01*
X173129861Y-91227203D01*
X173123025Y-91226503D01*
X173123022Y-91226502D01*
X173073097Y-91221387D01*
X173025400Y-91216500D01*
X172399600Y-91216500D01*
X172396354Y-91216837D01*
X172396350Y-91216837D01*
X172300692Y-91226762D01*
X172300688Y-91226763D01*
X172293834Y-91227474D01*
X172287298Y-91229655D01*
X172287296Y-91229655D01*
X172242753Y-91244516D01*
X172126054Y-91283450D01*
X171975652Y-91376522D01*
X171905442Y-91446855D01*
X171889216Y-91463109D01*
X171826934Y-91497188D01*
X171756114Y-91492185D01*
X171711025Y-91463264D01*
X171628483Y-91380866D01*
X171623303Y-91375695D01*
X171504517Y-91302474D01*
X171478968Y-91286725D01*
X171478966Y-91286724D01*
X171472738Y-91282885D01*
X171386484Y-91254276D01*
X171311389Y-91229368D01*
X171311387Y-91229368D01*
X171304861Y-91227203D01*
X171298025Y-91226503D01*
X171298022Y-91226502D01*
X171248097Y-91221387D01*
X171200400Y-91216500D01*
X170574600Y-91216500D01*
X170527503Y-91221387D01*
X170457683Y-91208523D01*
X170405901Y-91159952D01*
X170388500Y-91096061D01*
X170388499Y-90902485D01*
X170388499Y-90900012D01*
X170385629Y-90863534D01*
X170350175Y-90741500D01*
X170342481Y-90715017D01*
X170342480Y-90715015D01*
X170340269Y-90707404D01*
X170280616Y-90606535D01*
X170261540Y-90574280D01*
X170257506Y-90567459D01*
X170142541Y-90452494D01*
X170135720Y-90448460D01*
X170009419Y-90373766D01*
X170009418Y-90373766D01*
X170002596Y-90369731D01*
X169994985Y-90367520D01*
X169994983Y-90367519D01*
X169877203Y-90333301D01*
X169846466Y-90324371D01*
X169840059Y-90323867D01*
X169840055Y-90323866D01*
X169812444Y-90321693D01*
X169812438Y-90321693D01*
X169809989Y-90321500D01*
X169610122Y-90321500D01*
X169410012Y-90321501D01*
X169373534Y-90324371D01*
X169276730Y-90352495D01*
X169225017Y-90367519D01*
X169225015Y-90367520D01*
X169217404Y-90369731D01*
X169210579Y-90373767D01*
X169210575Y-90373769D01*
X169164139Y-90401231D01*
X169095323Y-90418691D01*
X169035861Y-90401231D01*
X168989425Y-90373769D01*
X168989421Y-90373767D01*
X168982596Y-90369731D01*
X168974985Y-90367520D01*
X168974983Y-90367519D01*
X168857203Y-90333301D01*
X168826466Y-90324371D01*
X168820059Y-90323867D01*
X168820055Y-90323866D01*
X168792444Y-90321693D01*
X168792438Y-90321693D01*
X168789989Y-90321500D01*
X168590122Y-90321500D01*
X168390012Y-90321501D01*
X168353534Y-90324371D01*
X168256730Y-90352495D01*
X168205017Y-90367519D01*
X168205015Y-90367520D01*
X168197404Y-90369731D01*
X168190579Y-90373767D01*
X168190575Y-90373769D01*
X168118400Y-90416453D01*
X168054261Y-90434000D01*
X167937542Y-90434000D01*
X167902390Y-90428997D01*
X167892647Y-90426166D01*
X167892640Y-90426165D01*
X167886466Y-90424371D01*
X167880059Y-90423867D01*
X167880055Y-90423866D01*
X167852444Y-90421693D01*
X167852438Y-90421693D01*
X167849989Y-90421500D01*
X167600152Y-90421500D01*
X167350012Y-90421501D01*
X167313534Y-90424371D01*
X167307352Y-90426167D01*
X167307347Y-90426168D01*
X167297610Y-90428997D01*
X167262458Y-90434000D01*
X166858000Y-90434000D01*
X166789879Y-90413998D01*
X166743386Y-90360342D01*
X166732000Y-90308000D01*
X166732000Y-90172115D01*
X166727526Y-90156876D01*
X166716387Y-90147225D01*
X166712002Y-90140401D01*
X166685034Y-90152717D01*
X166667101Y-90154000D01*
X166434500Y-90154000D01*
X166366379Y-90133998D01*
X166319886Y-90080342D01*
X166308500Y-90028000D01*
X166308500Y-89907885D01*
X166734000Y-89907885D01*
X166738474Y-89923124D01*
X166749613Y-89932775D01*
X166753998Y-89939599D01*
X166780966Y-89927283D01*
X166798899Y-89926000D01*
X167327885Y-89926000D01*
X167343124Y-89921525D01*
X167344329Y-89920135D01*
X167346000Y-89912452D01*
X167346000Y-89907885D01*
X167854000Y-89907885D01*
X167858475Y-89923124D01*
X167859865Y-89924329D01*
X167867548Y-89926000D01*
X168401900Y-89926000D01*
X168415431Y-89922027D01*
X168416566Y-89914129D01*
X168382019Y-89795217D01*
X168375770Y-89780778D01*
X168301146Y-89654595D01*
X168291499Y-89642159D01*
X168187841Y-89538501D01*
X168175405Y-89528854D01*
X168049222Y-89454230D01*
X168034783Y-89447981D01*
X167892564Y-89406662D01*
X167879977Y-89404363D01*
X167872057Y-89403740D01*
X167856970Y-89406910D01*
X167854000Y-89418374D01*
X167854000Y-89907885D01*
X167346000Y-89907885D01*
X167346000Y-89420434D01*
X167341656Y-89405639D01*
X167329997Y-89403579D01*
X167320023Y-89404363D01*
X167307436Y-89406663D01*
X167293921Y-89410589D01*
X167222924Y-89410386D01*
X167163308Y-89371832D01*
X167150315Y-89353732D01*
X167140126Y-89336503D01*
X167130484Y-89324074D01*
X167025926Y-89219516D01*
X167013499Y-89209876D01*
X166886220Y-89134604D01*
X166871784Y-89128357D01*
X166751395Y-89093381D01*
X166737295Y-89093421D01*
X166734000Y-89100691D01*
X166734000Y-89907885D01*
X166308500Y-89907885D01*
X166308500Y-89664516D01*
X166308294Y-89661900D01*
X166306111Y-89634156D01*
X166306110Y-89634151D01*
X166305606Y-89627746D01*
X166274643Y-89521171D01*
X166262106Y-89478016D01*
X166262105Y-89478014D01*
X166259894Y-89470403D01*
X166243546Y-89442760D01*
X166226000Y-89378621D01*
X166226000Y-89106442D01*
X166222027Y-89092911D01*
X166214129Y-89091776D01*
X166088216Y-89128357D01*
X166073778Y-89134605D01*
X166064628Y-89140016D01*
X165995812Y-89157474D01*
X165936353Y-89140015D01*
X165926423Y-89134143D01*
X165926424Y-89134143D01*
X165919597Y-89130106D01*
X165911986Y-89127895D01*
X165911984Y-89127894D01*
X165838144Y-89106442D01*
X165762254Y-89084394D01*
X165755849Y-89083890D01*
X165755844Y-89083889D01*
X165727940Y-89081693D01*
X165727932Y-89081693D01*
X165725484Y-89081500D01*
X165314516Y-89081500D01*
X165312068Y-89081693D01*
X165312060Y-89081693D01*
X165284156Y-89083889D01*
X165284151Y-89083890D01*
X165277746Y-89084394D01*
X165201856Y-89106442D01*
X165128016Y-89127894D01*
X165128014Y-89127895D01*
X165120403Y-89130106D01*
X165113581Y-89134141D01*
X165113580Y-89134141D01*
X165059009Y-89166414D01*
X164979371Y-89213512D01*
X164863512Y-89329371D01*
X164859478Y-89336192D01*
X164809658Y-89420434D01*
X164780106Y-89470403D01*
X164777895Y-89478014D01*
X164777894Y-89478016D01*
X164765357Y-89521171D01*
X164734394Y-89627746D01*
X164733890Y-89634151D01*
X164733889Y-89634156D01*
X164731706Y-89661900D01*
X164731500Y-89664516D01*
X164731500Y-89775761D01*
X164711498Y-89843882D01*
X164694595Y-89864856D01*
X164524856Y-90034595D01*
X164462544Y-90068621D01*
X164435761Y-90071500D01*
X164419176Y-90071500D01*
X164351055Y-90051498D01*
X164304562Y-89997842D01*
X164293896Y-89958952D01*
X164293381Y-89954157D01*
X164293704Y-89945147D01*
X164257560Y-89803462D01*
X164257148Y-89802467D01*
X164257127Y-89802417D01*
X164255954Y-89799585D01*
X164215736Y-89725933D01*
X164207081Y-89710083D01*
X164207080Y-89710081D01*
X164203302Y-89703163D01*
X164195838Y-89695146D01*
X164109799Y-89602742D01*
X164109798Y-89602741D01*
X164103659Y-89596148D01*
X163977902Y-89521541D01*
X163974075Y-89519956D01*
X163970847Y-89519008D01*
X163876333Y-89491252D01*
X163876331Y-89491252D01*
X163868776Y-89489033D01*
X163820718Y-89487311D01*
X163796067Y-89486427D01*
X163776505Y-89483969D01*
X163776505Y-89481271D01*
X163578495Y-89481271D01*
X163578495Y-89482894D01*
X163560488Y-89485155D01*
X163554869Y-89484954D01*
X163531618Y-89484122D01*
X163531616Y-89484122D01*
X163522607Y-89483800D01*
X163485659Y-89493229D01*
X163424176Y-89492128D01*
X163424113Y-89492515D01*
X163421421Y-89492078D01*
X163418998Y-89492035D01*
X163408776Y-89489033D01*
X163348902Y-89486887D01*
X163336067Y-89486427D01*
X163316505Y-89483969D01*
X163316505Y-89481271D01*
X163118495Y-89481271D01*
X163118495Y-89482894D01*
X163100488Y-89485155D01*
X163094869Y-89484954D01*
X163071618Y-89484122D01*
X163071616Y-89484122D01*
X163062607Y-89483800D01*
X163025659Y-89493229D01*
X162964176Y-89492128D01*
X162964113Y-89492515D01*
X162961421Y-89492078D01*
X162958998Y-89492035D01*
X162948776Y-89489033D01*
X162888902Y-89486887D01*
X162876067Y-89486427D01*
X162856505Y-89483969D01*
X162856505Y-89481271D01*
X162658495Y-89481271D01*
X162658495Y-89482894D01*
X162640488Y-89485155D01*
X162634869Y-89484954D01*
X162611618Y-89484122D01*
X162611616Y-89484122D01*
X162602607Y-89483800D01*
X162565659Y-89493229D01*
X162504176Y-89492128D01*
X162504113Y-89492515D01*
X162501421Y-89492078D01*
X162498998Y-89492035D01*
X162488776Y-89489033D01*
X162428902Y-89486887D01*
X162416067Y-89486427D01*
X162396505Y-89483969D01*
X162396505Y-89481271D01*
X162198495Y-89481271D01*
X162198495Y-89482894D01*
X162180488Y-89485155D01*
X162174869Y-89484954D01*
X162151618Y-89484122D01*
X162151616Y-89484122D01*
X162142607Y-89483800D01*
X162133873Y-89486029D01*
X162133871Y-89486029D01*
X162061166Y-89504583D01*
X162000925Y-89519956D01*
X161997098Y-89521541D01*
X161966037Y-89538501D01*
X161911497Y-89568281D01*
X161900675Y-89574190D01*
X161849788Y-89621569D01*
X161807860Y-89660606D01*
X161744373Y-89692386D01*
X161673783Y-89684797D01*
X161618502Y-89640250D01*
X161596000Y-89568388D01*
X161596000Y-89520958D01*
X161616002Y-89452837D01*
X161647936Y-89419024D01*
X161672653Y-89401066D01*
X161694316Y-89377007D01*
X161796021Y-89264052D01*
X161796022Y-89264051D01*
X161800440Y-89259144D01*
X161861626Y-89153167D01*
X161892623Y-89099479D01*
X161892624Y-89099478D01*
X161895927Y-89093756D01*
X161954942Y-88912128D01*
X161961721Y-88847635D01*
X161974214Y-88728765D01*
X161974904Y-88722200D01*
X161966895Y-88646000D01*
X161955632Y-88538835D01*
X161955632Y-88538833D01*
X161954942Y-88532272D01*
X161895927Y-88350644D01*
X161888217Y-88337289D01*
X161833874Y-88243166D01*
X161800440Y-88185256D01*
X161736333Y-88114058D01*
X161677070Y-88048239D01*
X161677067Y-88048237D01*
X161672653Y-88043334D01*
X161669304Y-88040901D01*
X161632544Y-87981232D01*
X161633897Y-87910248D01*
X161673413Y-87851264D01*
X161690478Y-87839355D01*
X161695952Y-87836918D01*
X161715169Y-87822956D01*
X161782037Y-87799098D01*
X161851188Y-87815180D01*
X161890055Y-87849328D01*
X161911739Y-87878261D01*
X162028295Y-87965615D01*
X162164684Y-88016745D01*
X162226866Y-88023500D01*
X163593134Y-88023500D01*
X163655316Y-88016745D01*
X163791705Y-87965615D01*
X163908261Y-87878261D01*
X163995615Y-87761705D01*
X164046745Y-87625316D01*
X164053500Y-87563134D01*
X164053500Y-84036866D01*
X164046745Y-83974684D01*
X163995615Y-83838295D01*
X163908261Y-83721739D01*
X163791705Y-83634385D01*
X163655316Y-83583255D01*
X163593134Y-83576500D01*
X162226866Y-83576500D01*
X162164684Y-83583255D01*
X162028295Y-83634385D01*
X161911739Y-83721739D01*
X161824385Y-83838295D01*
X161773255Y-83974684D01*
X161766500Y-84036866D01*
X161766500Y-86092069D01*
X161746498Y-86160190D01*
X161692842Y-86206683D01*
X161622568Y-86216787D01*
X161589251Y-86207176D01*
X161527519Y-86179691D01*
X161527518Y-86179691D01*
X161521488Y-86177006D01*
X161428087Y-86157153D01*
X161341144Y-86138672D01*
X161341139Y-86138672D01*
X161334687Y-86137300D01*
X161143713Y-86137300D01*
X161137261Y-86138672D01*
X161137256Y-86138672D01*
X161050313Y-86157153D01*
X160956912Y-86177006D01*
X160950882Y-86179691D01*
X160950881Y-86179691D01*
X160788478Y-86251997D01*
X160788476Y-86251998D01*
X160782448Y-86254682D01*
X160627947Y-86366934D01*
X160500160Y-86508856D01*
X160404673Y-86674244D01*
X160345658Y-86855872D01*
X160325696Y-87045800D01*
X160326386Y-87052365D01*
X160326386Y-87052367D01*
X160333166Y-87116880D01*
X160320393Y-87186718D01*
X160296951Y-87219144D01*
X159610650Y-87905445D01*
X159548338Y-87939471D01*
X159508387Y-87941660D01*
X159474407Y-87938089D01*
X159474402Y-87938089D01*
X159468275Y-87937445D01*
X159385776Y-87944953D01*
X159277451Y-87954811D01*
X159277448Y-87954812D01*
X159271312Y-87955370D01*
X159265406Y-87957108D01*
X159265402Y-87957109D01*
X159162573Y-87987373D01*
X159081581Y-88011210D01*
X159076123Y-88014063D01*
X159076119Y-88014065D01*
X158993716Y-88057145D01*
X158924080Y-88070979D01*
X158858019Y-88044969D01*
X158816507Y-87987373D01*
X158812724Y-87916478D01*
X158834514Y-87869918D01*
X158910229Y-87768892D01*
X158910230Y-87768890D01*
X158915615Y-87761705D01*
X158966745Y-87625316D01*
X158973500Y-87563134D01*
X158973500Y-84036866D01*
X158966745Y-83974684D01*
X158915615Y-83838295D01*
X158828261Y-83721739D01*
X158711705Y-83634385D01*
X158575316Y-83583255D01*
X158513134Y-83576500D01*
X157146866Y-83576500D01*
X157084684Y-83583255D01*
X156948295Y-83634385D01*
X156831739Y-83721739D01*
X156744385Y-83838295D01*
X156693255Y-83974684D01*
X156686500Y-84036866D01*
X156686500Y-84339294D01*
X156666498Y-84407415D01*
X156612842Y-84453908D01*
X156542568Y-84464012D01*
X156534251Y-84462529D01*
X156533251Y-84462316D01*
X156470792Y-84428562D01*
X156436497Y-84366398D01*
X156433500Y-84339081D01*
X156433500Y-81116866D01*
X156426745Y-81054684D01*
X156375615Y-80918295D01*
X156370230Y-80911110D01*
X156370229Y-80911108D01*
X156320159Y-80844300D01*
X156295311Y-80777793D01*
X156310364Y-80708411D01*
X156360538Y-80658181D01*
X156423408Y-80642758D01*
X159201400Y-80696181D01*
G37*
G04 #@! TD.AperFunction*
G04 #@! TA.AperFunction,Conductor*
G36*
X149292910Y-80528502D02*
G01*
X149339403Y-80582158D01*
X149349507Y-80652432D01*
X149320013Y-80717012D01*
X149300356Y-80735324D01*
X149211739Y-80801739D01*
X149124385Y-80918295D01*
X149073255Y-81054684D01*
X149066500Y-81116866D01*
X149066500Y-81365500D01*
X149046498Y-81433621D01*
X148992842Y-81480114D01*
X148940500Y-81491500D01*
X148930912Y-81491500D01*
X148862791Y-81471498D01*
X148856851Y-81467436D01*
X148855909Y-81466751D01*
X148706752Y-81358382D01*
X148700724Y-81355698D01*
X148700722Y-81355697D01*
X148538319Y-81283391D01*
X148538318Y-81283391D01*
X148532288Y-81280706D01*
X148438887Y-81260853D01*
X148351944Y-81242372D01*
X148351939Y-81242372D01*
X148345487Y-81241000D01*
X148154513Y-81241000D01*
X148148061Y-81242372D01*
X148148056Y-81242372D01*
X148061113Y-81260853D01*
X147967712Y-81280706D01*
X147961682Y-81283391D01*
X147961681Y-81283391D01*
X147799278Y-81355697D01*
X147799276Y-81355698D01*
X147793248Y-81358382D01*
X147638747Y-81470634D01*
X147510960Y-81612556D01*
X147415473Y-81777944D01*
X147356458Y-81959572D01*
X147336496Y-82149500D01*
X147356458Y-82339428D01*
X147415473Y-82521056D01*
X147510960Y-82686444D01*
X147515378Y-82691351D01*
X147515379Y-82691352D01*
X147634325Y-82823455D01*
X147638747Y-82828366D01*
X147793248Y-82940618D01*
X147799276Y-82943302D01*
X147799278Y-82943303D01*
X147961681Y-83015609D01*
X147967712Y-83018294D01*
X148061113Y-83038147D01*
X148148056Y-83056628D01*
X148148061Y-83056628D01*
X148154513Y-83058000D01*
X148345487Y-83058000D01*
X148351939Y-83056628D01*
X148351944Y-83056628D01*
X148438888Y-83038147D01*
X148532288Y-83018294D01*
X148538319Y-83015609D01*
X148700722Y-82943303D01*
X148700724Y-82943302D01*
X148706752Y-82940618D01*
X148856393Y-82831897D01*
X148856395Y-82831896D01*
X148861253Y-82828366D01*
X148861899Y-82829255D01*
X148920204Y-82801278D01*
X148990657Y-82810046D01*
X149045185Y-82855512D01*
X149066500Y-82925633D01*
X149066500Y-84643134D01*
X149073255Y-84705316D01*
X149124385Y-84841705D01*
X149211739Y-84958261D01*
X149328295Y-85045615D01*
X149464684Y-85096745D01*
X149526866Y-85103500D01*
X150893134Y-85103500D01*
X150955316Y-85096745D01*
X151091705Y-85045615D01*
X151208261Y-84958261D01*
X151295615Y-84841705D01*
X151346745Y-84705316D01*
X151353500Y-84643134D01*
X151353500Y-81116866D01*
X151346745Y-81054684D01*
X151295615Y-80918295D01*
X151208261Y-80801739D01*
X151165848Y-80769952D01*
X151123335Y-80713095D01*
X151118309Y-80642277D01*
X151152369Y-80579983D01*
X151214700Y-80545993D01*
X151243838Y-80543151D01*
X154193655Y-80599878D01*
X154261378Y-80621186D01*
X154306831Y-80675726D01*
X154315582Y-80746181D01*
X154288387Y-80799227D01*
X154291739Y-80801739D01*
X154204385Y-80918295D01*
X154153255Y-81054684D01*
X154146500Y-81116866D01*
X154146500Y-84015500D01*
X154126498Y-84083621D01*
X154072842Y-84130114D01*
X154020500Y-84141500D01*
X154017920Y-84141500D01*
X153949799Y-84121498D01*
X153903306Y-84067842D01*
X153892657Y-84029107D01*
X153887599Y-83982540D01*
X153887598Y-83982536D01*
X153886745Y-83974684D01*
X153835615Y-83838295D01*
X153748261Y-83721739D01*
X153631705Y-83634385D01*
X153495316Y-83583255D01*
X153433134Y-83576500D01*
X152066866Y-83576500D01*
X152004684Y-83583255D01*
X151868295Y-83634385D01*
X151751739Y-83721739D01*
X151664385Y-83838295D01*
X151613255Y-83974684D01*
X151606500Y-84036866D01*
X151606500Y-87563134D01*
X151613255Y-87625316D01*
X151664385Y-87761705D01*
X151751739Y-87878261D01*
X151868295Y-87965615D01*
X152004684Y-88016745D01*
X152066866Y-88023500D01*
X153433134Y-88023500D01*
X153495316Y-88016745D01*
X153631705Y-87965615D01*
X153748261Y-87878261D01*
X153835615Y-87761705D01*
X153886745Y-87625316D01*
X153893500Y-87563134D01*
X153893500Y-86119239D01*
X153913502Y-86051118D01*
X153930405Y-86030144D01*
X153965144Y-85995405D01*
X154027456Y-85961379D01*
X154054239Y-85958500D01*
X154140500Y-85958500D01*
X154208621Y-85978502D01*
X154255114Y-86032158D01*
X154266500Y-86084500D01*
X154266500Y-88504876D01*
X154246498Y-88572997D01*
X154219456Y-88603069D01*
X154190975Y-88625968D01*
X154063846Y-88777474D01*
X154060879Y-88782872D01*
X154060875Y-88782877D01*
X153993428Y-88905565D01*
X153968567Y-88950787D01*
X153966706Y-88956654D01*
X153966705Y-88956656D01*
X153943224Y-89030677D01*
X153908765Y-89139306D01*
X153886719Y-89335851D01*
X153889740Y-89371832D01*
X153902099Y-89519008D01*
X153903268Y-89532934D01*
X153914015Y-89570414D01*
X153956005Y-89716848D01*
X153957783Y-89723050D01*
X153960601Y-89728532D01*
X153960602Y-89728536D01*
X153963157Y-89733507D01*
X153976504Y-89803238D01*
X153950033Y-89869115D01*
X153892148Y-89910223D01*
X153851090Y-89917100D01*
X151648408Y-89917100D01*
X151580287Y-89897098D01*
X151533794Y-89843442D01*
X151523690Y-89773168D01*
X151528850Y-89751328D01*
X151585759Y-89580253D01*
X151588479Y-89568281D01*
X151612039Y-89381784D01*
X151612531Y-89374757D01*
X151612828Y-89353523D01*
X151612533Y-89346494D01*
X151594188Y-89159397D01*
X151591805Y-89147362D01*
X151538233Y-88969924D01*
X151533559Y-88958584D01*
X151478562Y-88855148D01*
X151468702Y-88845067D01*
X151461575Y-88847635D01*
X150689095Y-89620115D01*
X150626783Y-89654141D01*
X150555968Y-89649076D01*
X150510905Y-89620115D01*
X150329885Y-89439095D01*
X150295859Y-89376783D01*
X150300924Y-89305968D01*
X150329885Y-89260905D01*
X151097834Y-88492956D01*
X151104594Y-88480576D01*
X151099935Y-88474353D01*
X150997924Y-88419196D01*
X150986619Y-88414444D01*
X150809554Y-88359633D01*
X150797541Y-88357167D01*
X150613199Y-88337792D01*
X150600931Y-88337707D01*
X150416345Y-88354505D01*
X150404296Y-88356803D01*
X150226479Y-88409138D01*
X150215111Y-88413731D01*
X150057530Y-88496112D01*
X149987894Y-88509946D01*
X149921834Y-88483936D01*
X149879322Y-88423387D01*
X149855686Y-88350644D01*
X149830927Y-88274444D01*
X149735440Y-88109056D01*
X149712790Y-88083900D01*
X149612075Y-87972045D01*
X149612074Y-87972044D01*
X149607653Y-87967134D01*
X149453152Y-87854882D01*
X149447124Y-87852198D01*
X149447122Y-87852197D01*
X149284719Y-87779891D01*
X149284718Y-87779891D01*
X149278688Y-87777206D01*
X149166206Y-87753297D01*
X149098344Y-87738872D01*
X149098339Y-87738872D01*
X149091887Y-87737500D01*
X148934987Y-87737500D01*
X148866866Y-87717498D01*
X148820373Y-87663842D01*
X148809724Y-87597892D01*
X148813131Y-87566531D01*
X148813500Y-87563134D01*
X148813500Y-84036866D01*
X148806745Y-83974684D01*
X148755615Y-83838295D01*
X148668261Y-83721739D01*
X148551705Y-83634385D01*
X148415316Y-83583255D01*
X148353134Y-83576500D01*
X146986866Y-83576500D01*
X146924684Y-83583255D01*
X146788295Y-83634385D01*
X146671739Y-83721739D01*
X146584385Y-83838295D01*
X146533255Y-83974684D01*
X146526500Y-84036866D01*
X146526500Y-87563134D01*
X146533255Y-87625316D01*
X146584385Y-87761705D01*
X146671739Y-87878261D01*
X146711373Y-87907965D01*
X146753888Y-87964824D01*
X146758914Y-88035643D01*
X146746527Y-88068769D01*
X146741485Y-88075496D01*
X146738336Y-88083897D01*
X146738334Y-88083900D01*
X146693129Y-88204484D01*
X146693128Y-88204488D01*
X146690355Y-88211885D01*
X146689689Y-88218016D01*
X146654853Y-88278993D01*
X146591898Y-88311813D01*
X146567488Y-88314200D01*
X146422815Y-88314200D01*
X146407576Y-88318675D01*
X146406371Y-88320065D01*
X146404700Y-88327748D01*
X146404700Y-89051800D01*
X146384698Y-89119921D01*
X146331042Y-89166414D01*
X146278700Y-89177800D01*
X146175100Y-89177800D01*
X146106979Y-89157798D01*
X146060486Y-89104142D01*
X146049100Y-89051800D01*
X146049100Y-88332316D01*
X146044625Y-88317077D01*
X146043235Y-88315872D01*
X146035552Y-88314201D01*
X145864500Y-88314201D01*
X145796379Y-88294199D01*
X145749886Y-88240543D01*
X145738500Y-88188201D01*
X145738500Y-85224661D01*
X145758502Y-85156540D01*
X145812158Y-85110047D01*
X145850894Y-85099398D01*
X145867459Y-85097599D01*
X145867463Y-85097598D01*
X145875316Y-85096745D01*
X146011705Y-85045615D01*
X146128261Y-84958261D01*
X146215615Y-84841705D01*
X146266745Y-84705316D01*
X146273500Y-84643134D01*
X146273500Y-81116866D01*
X146266745Y-81054684D01*
X146215615Y-80918295D01*
X146128261Y-80801739D01*
X146039645Y-80735325D01*
X145997131Y-80678467D01*
X145992105Y-80607649D01*
X146026165Y-80545355D01*
X146088496Y-80511365D01*
X146115211Y-80508500D01*
X149224789Y-80508500D01*
X149292910Y-80528502D01*
G37*
G04 #@! TD.AperFunction*
M02*
