G04 #@! TF.GenerationSoftware,KiCad,Pcbnew,6.0.10+dfsg-1~bpo11+1*
G04 #@! TF.CreationDate,2023-02-14T07:13:26+00:00*
G04 #@! TF.ProjectId,cellular-featherwing-pcb,63656c6c-756c-4617-922d-666561746865,rev?*
G04 #@! TF.SameCoordinates,Original*
G04 #@! TF.FileFunction,Soldermask,Bot*
G04 #@! TF.FilePolarity,Negative*
%FSLAX46Y46*%
G04 Gerber Fmt 4.6, Leading zero omitted, Abs format (unit mm)*
G04 Created by KiCad (PCBNEW 6.0.10+dfsg-1~bpo11+1) date 2023-02-14 07:13:26*
%MOMM*%
%LPD*%
G01*
G04 APERTURE LIST*
%ADD10C,0.010000*%
%ADD11R,1.270000X3.430000*%
%ADD12R,0.762000X0.355600*%
%ADD13C,1.000000*%
%ADD14R,1.100000X1.100000*%
%ADD15R,0.980000X3.400000*%
%ADD16R,3.050000X2.050000*%
G04 APERTURE END LIST*
G36*
X161797500Y-91512000D02*
G01*
X161807500Y-91514000D01*
X161816500Y-91516000D01*
X161826500Y-91519000D01*
X161835500Y-91523000D01*
X161844500Y-91526000D01*
X161853500Y-91531000D01*
X161862500Y-91535000D01*
X161870500Y-91541000D01*
X161879500Y-91546000D01*
X161887500Y-91552000D01*
X161915500Y-91580000D01*
X161921500Y-91588000D01*
X161926500Y-91597000D01*
X161932500Y-91605000D01*
X161936500Y-91614000D01*
X161941500Y-91623000D01*
X161944500Y-91632000D01*
X161948500Y-91641000D01*
X161951500Y-91651000D01*
X161953500Y-91660000D01*
X161955500Y-91670000D01*
X161957500Y-91690000D01*
X161957500Y-91710000D01*
X161955500Y-91730000D01*
X161953500Y-91740000D01*
X161951500Y-91749000D01*
X161948500Y-91759000D01*
X161944500Y-91768000D01*
X161941500Y-91777000D01*
X161936500Y-91786000D01*
X161932500Y-91795000D01*
X161926500Y-91803000D01*
X161921500Y-91812000D01*
X161915500Y-91820000D01*
X161887500Y-91848000D01*
X161879500Y-91854000D01*
X161870500Y-91859000D01*
X161862500Y-91865000D01*
X161853500Y-91869000D01*
X161844500Y-91874000D01*
X161835500Y-91877000D01*
X161826500Y-91881000D01*
X161816500Y-91884000D01*
X161807500Y-91886000D01*
X161797500Y-91888000D01*
X161777500Y-91890000D01*
X161397500Y-91890000D01*
X161377500Y-91888000D01*
X161367500Y-91886000D01*
X161358500Y-91884000D01*
X161348500Y-91881000D01*
X161339500Y-91877000D01*
X161330500Y-91874000D01*
X161321500Y-91869000D01*
X161312500Y-91865000D01*
X161304500Y-91859000D01*
X161295500Y-91854000D01*
X161287500Y-91848000D01*
X161259500Y-91820000D01*
X161253500Y-91812000D01*
X161248500Y-91803000D01*
X161242500Y-91795000D01*
X161238500Y-91786000D01*
X161233500Y-91777000D01*
X161230500Y-91768000D01*
X161226500Y-91759000D01*
X161223500Y-91749000D01*
X161221500Y-91740000D01*
X161219500Y-91730000D01*
X161217500Y-91710000D01*
X161217500Y-91690000D01*
X161219500Y-91670000D01*
X161221500Y-91660000D01*
X161223500Y-91651000D01*
X161226500Y-91641000D01*
X161230500Y-91632000D01*
X161233500Y-91623000D01*
X161238500Y-91614000D01*
X161242500Y-91605000D01*
X161248500Y-91597000D01*
X161253500Y-91588000D01*
X161259500Y-91580000D01*
X161287500Y-91552000D01*
X161295500Y-91546000D01*
X161304500Y-91541000D01*
X161312500Y-91535000D01*
X161321500Y-91531000D01*
X161330500Y-91526000D01*
X161339500Y-91523000D01*
X161348500Y-91519000D01*
X161358500Y-91516000D01*
X161367500Y-91514000D01*
X161377500Y-91512000D01*
X161397500Y-91510000D01*
X161777500Y-91510000D01*
X161797500Y-91512000D01*
G37*
D10*
X161797500Y-91512000D02*
X161807500Y-91514000D01*
X161816500Y-91516000D01*
X161826500Y-91519000D01*
X161835500Y-91523000D01*
X161844500Y-91526000D01*
X161853500Y-91531000D01*
X161862500Y-91535000D01*
X161870500Y-91541000D01*
X161879500Y-91546000D01*
X161887500Y-91552000D01*
X161915500Y-91580000D01*
X161921500Y-91588000D01*
X161926500Y-91597000D01*
X161932500Y-91605000D01*
X161936500Y-91614000D01*
X161941500Y-91623000D01*
X161944500Y-91632000D01*
X161948500Y-91641000D01*
X161951500Y-91651000D01*
X161953500Y-91660000D01*
X161955500Y-91670000D01*
X161957500Y-91690000D01*
X161957500Y-91710000D01*
X161955500Y-91730000D01*
X161953500Y-91740000D01*
X161951500Y-91749000D01*
X161948500Y-91759000D01*
X161944500Y-91768000D01*
X161941500Y-91777000D01*
X161936500Y-91786000D01*
X161932500Y-91795000D01*
X161926500Y-91803000D01*
X161921500Y-91812000D01*
X161915500Y-91820000D01*
X161887500Y-91848000D01*
X161879500Y-91854000D01*
X161870500Y-91859000D01*
X161862500Y-91865000D01*
X161853500Y-91869000D01*
X161844500Y-91874000D01*
X161835500Y-91877000D01*
X161826500Y-91881000D01*
X161816500Y-91884000D01*
X161807500Y-91886000D01*
X161797500Y-91888000D01*
X161777500Y-91890000D01*
X161397500Y-91890000D01*
X161377500Y-91888000D01*
X161367500Y-91886000D01*
X161358500Y-91884000D01*
X161348500Y-91881000D01*
X161339500Y-91877000D01*
X161330500Y-91874000D01*
X161321500Y-91869000D01*
X161312500Y-91865000D01*
X161304500Y-91859000D01*
X161295500Y-91854000D01*
X161287500Y-91848000D01*
X161259500Y-91820000D01*
X161253500Y-91812000D01*
X161248500Y-91803000D01*
X161242500Y-91795000D01*
X161238500Y-91786000D01*
X161233500Y-91777000D01*
X161230500Y-91768000D01*
X161226500Y-91759000D01*
X161223500Y-91749000D01*
X161221500Y-91740000D01*
X161219500Y-91730000D01*
X161217500Y-91710000D01*
X161217500Y-91690000D01*
X161219500Y-91670000D01*
X161221500Y-91660000D01*
X161223500Y-91651000D01*
X161226500Y-91641000D01*
X161230500Y-91632000D01*
X161233500Y-91623000D01*
X161238500Y-91614000D01*
X161242500Y-91605000D01*
X161248500Y-91597000D01*
X161253500Y-91588000D01*
X161259500Y-91580000D01*
X161287500Y-91552000D01*
X161295500Y-91546000D01*
X161304500Y-91541000D01*
X161312500Y-91535000D01*
X161321500Y-91531000D01*
X161330500Y-91526000D01*
X161339500Y-91523000D01*
X161348500Y-91519000D01*
X161358500Y-91516000D01*
X161367500Y-91514000D01*
X161377500Y-91512000D01*
X161397500Y-91510000D01*
X161777500Y-91510000D01*
X161797500Y-91512000D01*
G36*
X161797500Y-90512000D02*
G01*
X161807500Y-90514000D01*
X161816500Y-90516000D01*
X161826500Y-90519000D01*
X161835500Y-90523000D01*
X161844500Y-90526000D01*
X161853500Y-90531000D01*
X161862500Y-90535000D01*
X161870500Y-90541000D01*
X161879500Y-90546000D01*
X161887500Y-90552000D01*
X161915500Y-90580000D01*
X161921500Y-90588000D01*
X161926500Y-90597000D01*
X161932500Y-90605000D01*
X161936500Y-90614000D01*
X161941500Y-90623000D01*
X161944500Y-90632000D01*
X161948500Y-90641000D01*
X161951500Y-90651000D01*
X161953500Y-90660000D01*
X161955500Y-90670000D01*
X161957500Y-90690000D01*
X161957500Y-90710000D01*
X161955500Y-90730000D01*
X161953500Y-90740000D01*
X161951500Y-90749000D01*
X161948500Y-90759000D01*
X161944500Y-90768000D01*
X161941500Y-90777000D01*
X161936500Y-90786000D01*
X161932500Y-90795000D01*
X161926500Y-90803000D01*
X161921500Y-90812000D01*
X161915500Y-90820000D01*
X161887500Y-90848000D01*
X161879500Y-90854000D01*
X161870500Y-90859000D01*
X161862500Y-90865000D01*
X161853500Y-90869000D01*
X161844500Y-90874000D01*
X161835500Y-90877000D01*
X161826500Y-90881000D01*
X161816500Y-90884000D01*
X161807500Y-90886000D01*
X161797500Y-90888000D01*
X161777500Y-90890000D01*
X161397500Y-90890000D01*
X161377500Y-90888000D01*
X161367500Y-90886000D01*
X161358500Y-90884000D01*
X161348500Y-90881000D01*
X161339500Y-90877000D01*
X161330500Y-90874000D01*
X161321500Y-90869000D01*
X161312500Y-90865000D01*
X161304500Y-90859000D01*
X161295500Y-90854000D01*
X161287500Y-90848000D01*
X161259500Y-90820000D01*
X161253500Y-90812000D01*
X161248500Y-90803000D01*
X161242500Y-90795000D01*
X161238500Y-90786000D01*
X161233500Y-90777000D01*
X161230500Y-90768000D01*
X161226500Y-90759000D01*
X161223500Y-90749000D01*
X161221500Y-90740000D01*
X161219500Y-90730000D01*
X161217500Y-90710000D01*
X161217500Y-90690000D01*
X161219500Y-90670000D01*
X161221500Y-90660000D01*
X161223500Y-90651000D01*
X161226500Y-90641000D01*
X161230500Y-90632000D01*
X161233500Y-90623000D01*
X161238500Y-90614000D01*
X161242500Y-90605000D01*
X161248500Y-90597000D01*
X161253500Y-90588000D01*
X161259500Y-90580000D01*
X161287500Y-90552000D01*
X161295500Y-90546000D01*
X161304500Y-90541000D01*
X161312500Y-90535000D01*
X161321500Y-90531000D01*
X161330500Y-90526000D01*
X161339500Y-90523000D01*
X161348500Y-90519000D01*
X161358500Y-90516000D01*
X161367500Y-90514000D01*
X161377500Y-90512000D01*
X161397500Y-90510000D01*
X161777500Y-90510000D01*
X161797500Y-90512000D01*
G37*
X161797500Y-90512000D02*
X161807500Y-90514000D01*
X161816500Y-90516000D01*
X161826500Y-90519000D01*
X161835500Y-90523000D01*
X161844500Y-90526000D01*
X161853500Y-90531000D01*
X161862500Y-90535000D01*
X161870500Y-90541000D01*
X161879500Y-90546000D01*
X161887500Y-90552000D01*
X161915500Y-90580000D01*
X161921500Y-90588000D01*
X161926500Y-90597000D01*
X161932500Y-90605000D01*
X161936500Y-90614000D01*
X161941500Y-90623000D01*
X161944500Y-90632000D01*
X161948500Y-90641000D01*
X161951500Y-90651000D01*
X161953500Y-90660000D01*
X161955500Y-90670000D01*
X161957500Y-90690000D01*
X161957500Y-90710000D01*
X161955500Y-90730000D01*
X161953500Y-90740000D01*
X161951500Y-90749000D01*
X161948500Y-90759000D01*
X161944500Y-90768000D01*
X161941500Y-90777000D01*
X161936500Y-90786000D01*
X161932500Y-90795000D01*
X161926500Y-90803000D01*
X161921500Y-90812000D01*
X161915500Y-90820000D01*
X161887500Y-90848000D01*
X161879500Y-90854000D01*
X161870500Y-90859000D01*
X161862500Y-90865000D01*
X161853500Y-90869000D01*
X161844500Y-90874000D01*
X161835500Y-90877000D01*
X161826500Y-90881000D01*
X161816500Y-90884000D01*
X161807500Y-90886000D01*
X161797500Y-90888000D01*
X161777500Y-90890000D01*
X161397500Y-90890000D01*
X161377500Y-90888000D01*
X161367500Y-90886000D01*
X161358500Y-90884000D01*
X161348500Y-90881000D01*
X161339500Y-90877000D01*
X161330500Y-90874000D01*
X161321500Y-90869000D01*
X161312500Y-90865000D01*
X161304500Y-90859000D01*
X161295500Y-90854000D01*
X161287500Y-90848000D01*
X161259500Y-90820000D01*
X161253500Y-90812000D01*
X161248500Y-90803000D01*
X161242500Y-90795000D01*
X161238500Y-90786000D01*
X161233500Y-90777000D01*
X161230500Y-90768000D01*
X161226500Y-90759000D01*
X161223500Y-90749000D01*
X161221500Y-90740000D01*
X161219500Y-90730000D01*
X161217500Y-90710000D01*
X161217500Y-90690000D01*
X161219500Y-90670000D01*
X161221500Y-90660000D01*
X161223500Y-90651000D01*
X161226500Y-90641000D01*
X161230500Y-90632000D01*
X161233500Y-90623000D01*
X161238500Y-90614000D01*
X161242500Y-90605000D01*
X161248500Y-90597000D01*
X161253500Y-90588000D01*
X161259500Y-90580000D01*
X161287500Y-90552000D01*
X161295500Y-90546000D01*
X161304500Y-90541000D01*
X161312500Y-90535000D01*
X161321500Y-90531000D01*
X161330500Y-90526000D01*
X161339500Y-90523000D01*
X161348500Y-90519000D01*
X161358500Y-90516000D01*
X161367500Y-90514000D01*
X161377500Y-90512000D01*
X161397500Y-90510000D01*
X161777500Y-90510000D01*
X161797500Y-90512000D01*
G36*
X164597500Y-93012000D02*
G01*
X164607500Y-93014000D01*
X164616500Y-93016000D01*
X164626500Y-93019000D01*
X164635500Y-93023000D01*
X164644500Y-93026000D01*
X164653500Y-93031000D01*
X164662500Y-93035000D01*
X164670500Y-93041000D01*
X164679500Y-93046000D01*
X164687500Y-93052000D01*
X164715500Y-93080000D01*
X164721500Y-93088000D01*
X164726500Y-93097000D01*
X164732500Y-93105000D01*
X164736500Y-93114000D01*
X164741500Y-93123000D01*
X164744500Y-93132000D01*
X164748500Y-93141000D01*
X164751500Y-93151000D01*
X164753500Y-93160000D01*
X164755500Y-93170000D01*
X164757500Y-93190000D01*
X164757500Y-93210000D01*
X164755500Y-93230000D01*
X164753500Y-93240000D01*
X164751500Y-93249000D01*
X164748500Y-93259000D01*
X164744500Y-93268000D01*
X164741500Y-93277000D01*
X164736500Y-93286000D01*
X164732500Y-93295000D01*
X164726500Y-93303000D01*
X164721500Y-93312000D01*
X164715500Y-93320000D01*
X164687500Y-93348000D01*
X164679500Y-93354000D01*
X164670500Y-93359000D01*
X164662500Y-93365000D01*
X164653500Y-93369000D01*
X164644500Y-93374000D01*
X164635500Y-93377000D01*
X164626500Y-93381000D01*
X164616500Y-93384000D01*
X164607500Y-93386000D01*
X164597500Y-93388000D01*
X164577500Y-93390000D01*
X164197500Y-93390000D01*
X164177500Y-93388000D01*
X164167500Y-93386000D01*
X164158500Y-93384000D01*
X164148500Y-93381000D01*
X164139500Y-93377000D01*
X164130500Y-93374000D01*
X164121500Y-93369000D01*
X164112500Y-93365000D01*
X164104500Y-93359000D01*
X164095500Y-93354000D01*
X164087500Y-93348000D01*
X164059500Y-93320000D01*
X164053500Y-93312000D01*
X164048500Y-93303000D01*
X164042500Y-93295000D01*
X164038500Y-93286000D01*
X164033500Y-93277000D01*
X164030500Y-93268000D01*
X164026500Y-93259000D01*
X164023500Y-93249000D01*
X164021500Y-93240000D01*
X164019500Y-93230000D01*
X164017500Y-93210000D01*
X164017500Y-93190000D01*
X164019500Y-93170000D01*
X164021500Y-93160000D01*
X164023500Y-93151000D01*
X164026500Y-93141000D01*
X164030500Y-93132000D01*
X164033500Y-93123000D01*
X164038500Y-93114000D01*
X164042500Y-93105000D01*
X164048500Y-93097000D01*
X164053500Y-93088000D01*
X164059500Y-93080000D01*
X164087500Y-93052000D01*
X164095500Y-93046000D01*
X164104500Y-93041000D01*
X164112500Y-93035000D01*
X164121500Y-93031000D01*
X164130500Y-93026000D01*
X164139500Y-93023000D01*
X164148500Y-93019000D01*
X164158500Y-93016000D01*
X164167500Y-93014000D01*
X164177500Y-93012000D01*
X164197500Y-93010000D01*
X164577500Y-93010000D01*
X164597500Y-93012000D01*
G37*
X164597500Y-93012000D02*
X164607500Y-93014000D01*
X164616500Y-93016000D01*
X164626500Y-93019000D01*
X164635500Y-93023000D01*
X164644500Y-93026000D01*
X164653500Y-93031000D01*
X164662500Y-93035000D01*
X164670500Y-93041000D01*
X164679500Y-93046000D01*
X164687500Y-93052000D01*
X164715500Y-93080000D01*
X164721500Y-93088000D01*
X164726500Y-93097000D01*
X164732500Y-93105000D01*
X164736500Y-93114000D01*
X164741500Y-93123000D01*
X164744500Y-93132000D01*
X164748500Y-93141000D01*
X164751500Y-93151000D01*
X164753500Y-93160000D01*
X164755500Y-93170000D01*
X164757500Y-93190000D01*
X164757500Y-93210000D01*
X164755500Y-93230000D01*
X164753500Y-93240000D01*
X164751500Y-93249000D01*
X164748500Y-93259000D01*
X164744500Y-93268000D01*
X164741500Y-93277000D01*
X164736500Y-93286000D01*
X164732500Y-93295000D01*
X164726500Y-93303000D01*
X164721500Y-93312000D01*
X164715500Y-93320000D01*
X164687500Y-93348000D01*
X164679500Y-93354000D01*
X164670500Y-93359000D01*
X164662500Y-93365000D01*
X164653500Y-93369000D01*
X164644500Y-93374000D01*
X164635500Y-93377000D01*
X164626500Y-93381000D01*
X164616500Y-93384000D01*
X164607500Y-93386000D01*
X164597500Y-93388000D01*
X164577500Y-93390000D01*
X164197500Y-93390000D01*
X164177500Y-93388000D01*
X164167500Y-93386000D01*
X164158500Y-93384000D01*
X164148500Y-93381000D01*
X164139500Y-93377000D01*
X164130500Y-93374000D01*
X164121500Y-93369000D01*
X164112500Y-93365000D01*
X164104500Y-93359000D01*
X164095500Y-93354000D01*
X164087500Y-93348000D01*
X164059500Y-93320000D01*
X164053500Y-93312000D01*
X164048500Y-93303000D01*
X164042500Y-93295000D01*
X164038500Y-93286000D01*
X164033500Y-93277000D01*
X164030500Y-93268000D01*
X164026500Y-93259000D01*
X164023500Y-93249000D01*
X164021500Y-93240000D01*
X164019500Y-93230000D01*
X164017500Y-93210000D01*
X164017500Y-93190000D01*
X164019500Y-93170000D01*
X164021500Y-93160000D01*
X164023500Y-93151000D01*
X164026500Y-93141000D01*
X164030500Y-93132000D01*
X164033500Y-93123000D01*
X164038500Y-93114000D01*
X164042500Y-93105000D01*
X164048500Y-93097000D01*
X164053500Y-93088000D01*
X164059500Y-93080000D01*
X164087500Y-93052000D01*
X164095500Y-93046000D01*
X164104500Y-93041000D01*
X164112500Y-93035000D01*
X164121500Y-93031000D01*
X164130500Y-93026000D01*
X164139500Y-93023000D01*
X164148500Y-93019000D01*
X164158500Y-93016000D01*
X164167500Y-93014000D01*
X164177500Y-93012000D01*
X164197500Y-93010000D01*
X164577500Y-93010000D01*
X164597500Y-93012000D01*
G36*
X161797500Y-92512000D02*
G01*
X161807500Y-92514000D01*
X161816500Y-92516000D01*
X161826500Y-92519000D01*
X161835500Y-92523000D01*
X161844500Y-92526000D01*
X161853500Y-92531000D01*
X161862500Y-92535000D01*
X161870500Y-92541000D01*
X161879500Y-92546000D01*
X161887500Y-92552000D01*
X161915500Y-92580000D01*
X161921500Y-92588000D01*
X161926500Y-92597000D01*
X161932500Y-92605000D01*
X161936500Y-92614000D01*
X161941500Y-92623000D01*
X161944500Y-92632000D01*
X161948500Y-92641000D01*
X161951500Y-92651000D01*
X161953500Y-92660000D01*
X161955500Y-92670000D01*
X161957500Y-92690000D01*
X161957500Y-92710000D01*
X161955500Y-92730000D01*
X161953500Y-92740000D01*
X161951500Y-92749000D01*
X161948500Y-92759000D01*
X161944500Y-92768000D01*
X161941500Y-92777000D01*
X161936500Y-92786000D01*
X161932500Y-92795000D01*
X161926500Y-92803000D01*
X161921500Y-92812000D01*
X161915500Y-92820000D01*
X161887500Y-92848000D01*
X161879500Y-92854000D01*
X161870500Y-92859000D01*
X161862500Y-92865000D01*
X161853500Y-92869000D01*
X161844500Y-92874000D01*
X161835500Y-92877000D01*
X161826500Y-92881000D01*
X161816500Y-92884000D01*
X161807500Y-92886000D01*
X161797500Y-92888000D01*
X161777500Y-92890000D01*
X161397500Y-92890000D01*
X161377500Y-92888000D01*
X161367500Y-92886000D01*
X161358500Y-92884000D01*
X161348500Y-92881000D01*
X161339500Y-92877000D01*
X161330500Y-92874000D01*
X161321500Y-92869000D01*
X161312500Y-92865000D01*
X161304500Y-92859000D01*
X161295500Y-92854000D01*
X161287500Y-92848000D01*
X161259500Y-92820000D01*
X161253500Y-92812000D01*
X161248500Y-92803000D01*
X161242500Y-92795000D01*
X161238500Y-92786000D01*
X161233500Y-92777000D01*
X161230500Y-92768000D01*
X161226500Y-92759000D01*
X161223500Y-92749000D01*
X161221500Y-92740000D01*
X161219500Y-92730000D01*
X161217500Y-92710000D01*
X161217500Y-92690000D01*
X161219500Y-92670000D01*
X161221500Y-92660000D01*
X161223500Y-92651000D01*
X161226500Y-92641000D01*
X161230500Y-92632000D01*
X161233500Y-92623000D01*
X161238500Y-92614000D01*
X161242500Y-92605000D01*
X161248500Y-92597000D01*
X161253500Y-92588000D01*
X161259500Y-92580000D01*
X161287500Y-92552000D01*
X161295500Y-92546000D01*
X161304500Y-92541000D01*
X161312500Y-92535000D01*
X161321500Y-92531000D01*
X161330500Y-92526000D01*
X161339500Y-92523000D01*
X161348500Y-92519000D01*
X161358500Y-92516000D01*
X161367500Y-92514000D01*
X161377500Y-92512000D01*
X161397500Y-92510000D01*
X161777500Y-92510000D01*
X161797500Y-92512000D01*
G37*
X161797500Y-92512000D02*
X161807500Y-92514000D01*
X161816500Y-92516000D01*
X161826500Y-92519000D01*
X161835500Y-92523000D01*
X161844500Y-92526000D01*
X161853500Y-92531000D01*
X161862500Y-92535000D01*
X161870500Y-92541000D01*
X161879500Y-92546000D01*
X161887500Y-92552000D01*
X161915500Y-92580000D01*
X161921500Y-92588000D01*
X161926500Y-92597000D01*
X161932500Y-92605000D01*
X161936500Y-92614000D01*
X161941500Y-92623000D01*
X161944500Y-92632000D01*
X161948500Y-92641000D01*
X161951500Y-92651000D01*
X161953500Y-92660000D01*
X161955500Y-92670000D01*
X161957500Y-92690000D01*
X161957500Y-92710000D01*
X161955500Y-92730000D01*
X161953500Y-92740000D01*
X161951500Y-92749000D01*
X161948500Y-92759000D01*
X161944500Y-92768000D01*
X161941500Y-92777000D01*
X161936500Y-92786000D01*
X161932500Y-92795000D01*
X161926500Y-92803000D01*
X161921500Y-92812000D01*
X161915500Y-92820000D01*
X161887500Y-92848000D01*
X161879500Y-92854000D01*
X161870500Y-92859000D01*
X161862500Y-92865000D01*
X161853500Y-92869000D01*
X161844500Y-92874000D01*
X161835500Y-92877000D01*
X161826500Y-92881000D01*
X161816500Y-92884000D01*
X161807500Y-92886000D01*
X161797500Y-92888000D01*
X161777500Y-92890000D01*
X161397500Y-92890000D01*
X161377500Y-92888000D01*
X161367500Y-92886000D01*
X161358500Y-92884000D01*
X161348500Y-92881000D01*
X161339500Y-92877000D01*
X161330500Y-92874000D01*
X161321500Y-92869000D01*
X161312500Y-92865000D01*
X161304500Y-92859000D01*
X161295500Y-92854000D01*
X161287500Y-92848000D01*
X161259500Y-92820000D01*
X161253500Y-92812000D01*
X161248500Y-92803000D01*
X161242500Y-92795000D01*
X161238500Y-92786000D01*
X161233500Y-92777000D01*
X161230500Y-92768000D01*
X161226500Y-92759000D01*
X161223500Y-92749000D01*
X161221500Y-92740000D01*
X161219500Y-92730000D01*
X161217500Y-92710000D01*
X161217500Y-92690000D01*
X161219500Y-92670000D01*
X161221500Y-92660000D01*
X161223500Y-92651000D01*
X161226500Y-92641000D01*
X161230500Y-92632000D01*
X161233500Y-92623000D01*
X161238500Y-92614000D01*
X161242500Y-92605000D01*
X161248500Y-92597000D01*
X161253500Y-92588000D01*
X161259500Y-92580000D01*
X161287500Y-92552000D01*
X161295500Y-92546000D01*
X161304500Y-92541000D01*
X161312500Y-92535000D01*
X161321500Y-92531000D01*
X161330500Y-92526000D01*
X161339500Y-92523000D01*
X161348500Y-92519000D01*
X161358500Y-92516000D01*
X161367500Y-92514000D01*
X161377500Y-92512000D01*
X161397500Y-92510000D01*
X161777500Y-92510000D01*
X161797500Y-92512000D01*
G36*
X161797500Y-93012000D02*
G01*
X161807500Y-93014000D01*
X161816500Y-93016000D01*
X161826500Y-93019000D01*
X161835500Y-93023000D01*
X161844500Y-93026000D01*
X161853500Y-93031000D01*
X161862500Y-93035000D01*
X161870500Y-93041000D01*
X161879500Y-93046000D01*
X161887500Y-93052000D01*
X161915500Y-93080000D01*
X161921500Y-93088000D01*
X161926500Y-93097000D01*
X161932500Y-93105000D01*
X161936500Y-93114000D01*
X161941500Y-93123000D01*
X161944500Y-93132000D01*
X161948500Y-93141000D01*
X161951500Y-93151000D01*
X161953500Y-93160000D01*
X161955500Y-93170000D01*
X161957500Y-93190000D01*
X161957500Y-93210000D01*
X161955500Y-93230000D01*
X161953500Y-93240000D01*
X161951500Y-93249000D01*
X161948500Y-93259000D01*
X161944500Y-93268000D01*
X161941500Y-93277000D01*
X161936500Y-93286000D01*
X161932500Y-93295000D01*
X161926500Y-93303000D01*
X161921500Y-93312000D01*
X161915500Y-93320000D01*
X161887500Y-93348000D01*
X161879500Y-93354000D01*
X161870500Y-93359000D01*
X161862500Y-93365000D01*
X161853500Y-93369000D01*
X161844500Y-93374000D01*
X161835500Y-93377000D01*
X161826500Y-93381000D01*
X161816500Y-93384000D01*
X161807500Y-93386000D01*
X161797500Y-93388000D01*
X161777500Y-93390000D01*
X161397500Y-93390000D01*
X161377500Y-93388000D01*
X161367500Y-93386000D01*
X161358500Y-93384000D01*
X161348500Y-93381000D01*
X161339500Y-93377000D01*
X161330500Y-93374000D01*
X161321500Y-93369000D01*
X161312500Y-93365000D01*
X161304500Y-93359000D01*
X161295500Y-93354000D01*
X161287500Y-93348000D01*
X161259500Y-93320000D01*
X161253500Y-93312000D01*
X161248500Y-93303000D01*
X161242500Y-93295000D01*
X161238500Y-93286000D01*
X161233500Y-93277000D01*
X161230500Y-93268000D01*
X161226500Y-93259000D01*
X161223500Y-93249000D01*
X161221500Y-93240000D01*
X161219500Y-93230000D01*
X161217500Y-93210000D01*
X161217500Y-93190000D01*
X161219500Y-93170000D01*
X161221500Y-93160000D01*
X161223500Y-93151000D01*
X161226500Y-93141000D01*
X161230500Y-93132000D01*
X161233500Y-93123000D01*
X161238500Y-93114000D01*
X161242500Y-93105000D01*
X161248500Y-93097000D01*
X161253500Y-93088000D01*
X161259500Y-93080000D01*
X161287500Y-93052000D01*
X161295500Y-93046000D01*
X161304500Y-93041000D01*
X161312500Y-93035000D01*
X161321500Y-93031000D01*
X161330500Y-93026000D01*
X161339500Y-93023000D01*
X161348500Y-93019000D01*
X161358500Y-93016000D01*
X161367500Y-93014000D01*
X161377500Y-93012000D01*
X161397500Y-93010000D01*
X161777500Y-93010000D01*
X161797500Y-93012000D01*
G37*
X161797500Y-93012000D02*
X161807500Y-93014000D01*
X161816500Y-93016000D01*
X161826500Y-93019000D01*
X161835500Y-93023000D01*
X161844500Y-93026000D01*
X161853500Y-93031000D01*
X161862500Y-93035000D01*
X161870500Y-93041000D01*
X161879500Y-93046000D01*
X161887500Y-93052000D01*
X161915500Y-93080000D01*
X161921500Y-93088000D01*
X161926500Y-93097000D01*
X161932500Y-93105000D01*
X161936500Y-93114000D01*
X161941500Y-93123000D01*
X161944500Y-93132000D01*
X161948500Y-93141000D01*
X161951500Y-93151000D01*
X161953500Y-93160000D01*
X161955500Y-93170000D01*
X161957500Y-93190000D01*
X161957500Y-93210000D01*
X161955500Y-93230000D01*
X161953500Y-93240000D01*
X161951500Y-93249000D01*
X161948500Y-93259000D01*
X161944500Y-93268000D01*
X161941500Y-93277000D01*
X161936500Y-93286000D01*
X161932500Y-93295000D01*
X161926500Y-93303000D01*
X161921500Y-93312000D01*
X161915500Y-93320000D01*
X161887500Y-93348000D01*
X161879500Y-93354000D01*
X161870500Y-93359000D01*
X161862500Y-93365000D01*
X161853500Y-93369000D01*
X161844500Y-93374000D01*
X161835500Y-93377000D01*
X161826500Y-93381000D01*
X161816500Y-93384000D01*
X161807500Y-93386000D01*
X161797500Y-93388000D01*
X161777500Y-93390000D01*
X161397500Y-93390000D01*
X161377500Y-93388000D01*
X161367500Y-93386000D01*
X161358500Y-93384000D01*
X161348500Y-93381000D01*
X161339500Y-93377000D01*
X161330500Y-93374000D01*
X161321500Y-93369000D01*
X161312500Y-93365000D01*
X161304500Y-93359000D01*
X161295500Y-93354000D01*
X161287500Y-93348000D01*
X161259500Y-93320000D01*
X161253500Y-93312000D01*
X161248500Y-93303000D01*
X161242500Y-93295000D01*
X161238500Y-93286000D01*
X161233500Y-93277000D01*
X161230500Y-93268000D01*
X161226500Y-93259000D01*
X161223500Y-93249000D01*
X161221500Y-93240000D01*
X161219500Y-93230000D01*
X161217500Y-93210000D01*
X161217500Y-93190000D01*
X161219500Y-93170000D01*
X161221500Y-93160000D01*
X161223500Y-93151000D01*
X161226500Y-93141000D01*
X161230500Y-93132000D01*
X161233500Y-93123000D01*
X161238500Y-93114000D01*
X161242500Y-93105000D01*
X161248500Y-93097000D01*
X161253500Y-93088000D01*
X161259500Y-93080000D01*
X161287500Y-93052000D01*
X161295500Y-93046000D01*
X161304500Y-93041000D01*
X161312500Y-93035000D01*
X161321500Y-93031000D01*
X161330500Y-93026000D01*
X161339500Y-93023000D01*
X161348500Y-93019000D01*
X161358500Y-93016000D01*
X161367500Y-93014000D01*
X161377500Y-93012000D01*
X161397500Y-93010000D01*
X161777500Y-93010000D01*
X161797500Y-93012000D01*
G36*
X164597500Y-91512000D02*
G01*
X164607500Y-91514000D01*
X164616500Y-91516000D01*
X164626500Y-91519000D01*
X164635500Y-91523000D01*
X164644500Y-91526000D01*
X164653500Y-91531000D01*
X164662500Y-91535000D01*
X164670500Y-91541000D01*
X164679500Y-91546000D01*
X164687500Y-91552000D01*
X164715500Y-91580000D01*
X164721500Y-91588000D01*
X164726500Y-91597000D01*
X164732500Y-91605000D01*
X164736500Y-91614000D01*
X164741500Y-91623000D01*
X164744500Y-91632000D01*
X164748500Y-91641000D01*
X164751500Y-91651000D01*
X164753500Y-91660000D01*
X164755500Y-91670000D01*
X164757500Y-91690000D01*
X164757500Y-91710000D01*
X164755500Y-91730000D01*
X164753500Y-91740000D01*
X164751500Y-91749000D01*
X164748500Y-91759000D01*
X164744500Y-91768000D01*
X164741500Y-91777000D01*
X164736500Y-91786000D01*
X164732500Y-91795000D01*
X164726500Y-91803000D01*
X164721500Y-91812000D01*
X164715500Y-91820000D01*
X164687500Y-91848000D01*
X164679500Y-91854000D01*
X164670500Y-91859000D01*
X164662500Y-91865000D01*
X164653500Y-91869000D01*
X164644500Y-91874000D01*
X164635500Y-91877000D01*
X164626500Y-91881000D01*
X164616500Y-91884000D01*
X164607500Y-91886000D01*
X164597500Y-91888000D01*
X164577500Y-91890000D01*
X164197500Y-91890000D01*
X164177500Y-91888000D01*
X164167500Y-91886000D01*
X164158500Y-91884000D01*
X164148500Y-91881000D01*
X164139500Y-91877000D01*
X164130500Y-91874000D01*
X164121500Y-91869000D01*
X164112500Y-91865000D01*
X164104500Y-91859000D01*
X164095500Y-91854000D01*
X164087500Y-91848000D01*
X164059500Y-91820000D01*
X164053500Y-91812000D01*
X164048500Y-91803000D01*
X164042500Y-91795000D01*
X164038500Y-91786000D01*
X164033500Y-91777000D01*
X164030500Y-91768000D01*
X164026500Y-91759000D01*
X164023500Y-91749000D01*
X164021500Y-91740000D01*
X164019500Y-91730000D01*
X164017500Y-91710000D01*
X164017500Y-91690000D01*
X164019500Y-91670000D01*
X164021500Y-91660000D01*
X164023500Y-91651000D01*
X164026500Y-91641000D01*
X164030500Y-91632000D01*
X164033500Y-91623000D01*
X164038500Y-91614000D01*
X164042500Y-91605000D01*
X164048500Y-91597000D01*
X164053500Y-91588000D01*
X164059500Y-91580000D01*
X164087500Y-91552000D01*
X164095500Y-91546000D01*
X164104500Y-91541000D01*
X164112500Y-91535000D01*
X164121500Y-91531000D01*
X164130500Y-91526000D01*
X164139500Y-91523000D01*
X164148500Y-91519000D01*
X164158500Y-91516000D01*
X164167500Y-91514000D01*
X164177500Y-91512000D01*
X164197500Y-91510000D01*
X164577500Y-91510000D01*
X164597500Y-91512000D01*
G37*
X164597500Y-91512000D02*
X164607500Y-91514000D01*
X164616500Y-91516000D01*
X164626500Y-91519000D01*
X164635500Y-91523000D01*
X164644500Y-91526000D01*
X164653500Y-91531000D01*
X164662500Y-91535000D01*
X164670500Y-91541000D01*
X164679500Y-91546000D01*
X164687500Y-91552000D01*
X164715500Y-91580000D01*
X164721500Y-91588000D01*
X164726500Y-91597000D01*
X164732500Y-91605000D01*
X164736500Y-91614000D01*
X164741500Y-91623000D01*
X164744500Y-91632000D01*
X164748500Y-91641000D01*
X164751500Y-91651000D01*
X164753500Y-91660000D01*
X164755500Y-91670000D01*
X164757500Y-91690000D01*
X164757500Y-91710000D01*
X164755500Y-91730000D01*
X164753500Y-91740000D01*
X164751500Y-91749000D01*
X164748500Y-91759000D01*
X164744500Y-91768000D01*
X164741500Y-91777000D01*
X164736500Y-91786000D01*
X164732500Y-91795000D01*
X164726500Y-91803000D01*
X164721500Y-91812000D01*
X164715500Y-91820000D01*
X164687500Y-91848000D01*
X164679500Y-91854000D01*
X164670500Y-91859000D01*
X164662500Y-91865000D01*
X164653500Y-91869000D01*
X164644500Y-91874000D01*
X164635500Y-91877000D01*
X164626500Y-91881000D01*
X164616500Y-91884000D01*
X164607500Y-91886000D01*
X164597500Y-91888000D01*
X164577500Y-91890000D01*
X164197500Y-91890000D01*
X164177500Y-91888000D01*
X164167500Y-91886000D01*
X164158500Y-91884000D01*
X164148500Y-91881000D01*
X164139500Y-91877000D01*
X164130500Y-91874000D01*
X164121500Y-91869000D01*
X164112500Y-91865000D01*
X164104500Y-91859000D01*
X164095500Y-91854000D01*
X164087500Y-91848000D01*
X164059500Y-91820000D01*
X164053500Y-91812000D01*
X164048500Y-91803000D01*
X164042500Y-91795000D01*
X164038500Y-91786000D01*
X164033500Y-91777000D01*
X164030500Y-91768000D01*
X164026500Y-91759000D01*
X164023500Y-91749000D01*
X164021500Y-91740000D01*
X164019500Y-91730000D01*
X164017500Y-91710000D01*
X164017500Y-91690000D01*
X164019500Y-91670000D01*
X164021500Y-91660000D01*
X164023500Y-91651000D01*
X164026500Y-91641000D01*
X164030500Y-91632000D01*
X164033500Y-91623000D01*
X164038500Y-91614000D01*
X164042500Y-91605000D01*
X164048500Y-91597000D01*
X164053500Y-91588000D01*
X164059500Y-91580000D01*
X164087500Y-91552000D01*
X164095500Y-91546000D01*
X164104500Y-91541000D01*
X164112500Y-91535000D01*
X164121500Y-91531000D01*
X164130500Y-91526000D01*
X164139500Y-91523000D01*
X164148500Y-91519000D01*
X164158500Y-91516000D01*
X164167500Y-91514000D01*
X164177500Y-91512000D01*
X164197500Y-91510000D01*
X164577500Y-91510000D01*
X164597500Y-91512000D01*
G36*
X164597500Y-93512000D02*
G01*
X164607500Y-93514000D01*
X164616500Y-93516000D01*
X164626500Y-93519000D01*
X164635500Y-93523000D01*
X164644500Y-93526000D01*
X164653500Y-93531000D01*
X164662500Y-93535000D01*
X164670500Y-93541000D01*
X164679500Y-93546000D01*
X164687500Y-93552000D01*
X164715500Y-93580000D01*
X164721500Y-93588000D01*
X164726500Y-93597000D01*
X164732500Y-93605000D01*
X164736500Y-93614000D01*
X164741500Y-93623000D01*
X164744500Y-93632000D01*
X164748500Y-93641000D01*
X164751500Y-93651000D01*
X164753500Y-93660000D01*
X164755500Y-93670000D01*
X164757500Y-93690000D01*
X164757500Y-93710000D01*
X164755500Y-93730000D01*
X164753500Y-93740000D01*
X164751500Y-93749000D01*
X164748500Y-93759000D01*
X164744500Y-93768000D01*
X164741500Y-93777000D01*
X164736500Y-93786000D01*
X164732500Y-93795000D01*
X164726500Y-93803000D01*
X164721500Y-93812000D01*
X164715500Y-93820000D01*
X164687500Y-93848000D01*
X164679500Y-93854000D01*
X164670500Y-93859000D01*
X164662500Y-93865000D01*
X164653500Y-93869000D01*
X164644500Y-93874000D01*
X164635500Y-93877000D01*
X164626500Y-93881000D01*
X164616500Y-93884000D01*
X164607500Y-93886000D01*
X164597500Y-93888000D01*
X164577500Y-93890000D01*
X164197500Y-93890000D01*
X164177500Y-93888000D01*
X164167500Y-93886000D01*
X164158500Y-93884000D01*
X164148500Y-93881000D01*
X164139500Y-93877000D01*
X164130500Y-93874000D01*
X164121500Y-93869000D01*
X164112500Y-93865000D01*
X164104500Y-93859000D01*
X164095500Y-93854000D01*
X164087500Y-93848000D01*
X164059500Y-93820000D01*
X164053500Y-93812000D01*
X164048500Y-93803000D01*
X164042500Y-93795000D01*
X164038500Y-93786000D01*
X164033500Y-93777000D01*
X164030500Y-93768000D01*
X164026500Y-93759000D01*
X164023500Y-93749000D01*
X164021500Y-93740000D01*
X164019500Y-93730000D01*
X164017500Y-93710000D01*
X164017500Y-93690000D01*
X164019500Y-93670000D01*
X164021500Y-93660000D01*
X164023500Y-93651000D01*
X164026500Y-93641000D01*
X164030500Y-93632000D01*
X164033500Y-93623000D01*
X164038500Y-93614000D01*
X164042500Y-93605000D01*
X164048500Y-93597000D01*
X164053500Y-93588000D01*
X164059500Y-93580000D01*
X164087500Y-93552000D01*
X164095500Y-93546000D01*
X164104500Y-93541000D01*
X164112500Y-93535000D01*
X164121500Y-93531000D01*
X164130500Y-93526000D01*
X164139500Y-93523000D01*
X164148500Y-93519000D01*
X164158500Y-93516000D01*
X164167500Y-93514000D01*
X164177500Y-93512000D01*
X164197500Y-93510000D01*
X164577500Y-93510000D01*
X164597500Y-93512000D01*
G37*
X164597500Y-93512000D02*
X164607500Y-93514000D01*
X164616500Y-93516000D01*
X164626500Y-93519000D01*
X164635500Y-93523000D01*
X164644500Y-93526000D01*
X164653500Y-93531000D01*
X164662500Y-93535000D01*
X164670500Y-93541000D01*
X164679500Y-93546000D01*
X164687500Y-93552000D01*
X164715500Y-93580000D01*
X164721500Y-93588000D01*
X164726500Y-93597000D01*
X164732500Y-93605000D01*
X164736500Y-93614000D01*
X164741500Y-93623000D01*
X164744500Y-93632000D01*
X164748500Y-93641000D01*
X164751500Y-93651000D01*
X164753500Y-93660000D01*
X164755500Y-93670000D01*
X164757500Y-93690000D01*
X164757500Y-93710000D01*
X164755500Y-93730000D01*
X164753500Y-93740000D01*
X164751500Y-93749000D01*
X164748500Y-93759000D01*
X164744500Y-93768000D01*
X164741500Y-93777000D01*
X164736500Y-93786000D01*
X164732500Y-93795000D01*
X164726500Y-93803000D01*
X164721500Y-93812000D01*
X164715500Y-93820000D01*
X164687500Y-93848000D01*
X164679500Y-93854000D01*
X164670500Y-93859000D01*
X164662500Y-93865000D01*
X164653500Y-93869000D01*
X164644500Y-93874000D01*
X164635500Y-93877000D01*
X164626500Y-93881000D01*
X164616500Y-93884000D01*
X164607500Y-93886000D01*
X164597500Y-93888000D01*
X164577500Y-93890000D01*
X164197500Y-93890000D01*
X164177500Y-93888000D01*
X164167500Y-93886000D01*
X164158500Y-93884000D01*
X164148500Y-93881000D01*
X164139500Y-93877000D01*
X164130500Y-93874000D01*
X164121500Y-93869000D01*
X164112500Y-93865000D01*
X164104500Y-93859000D01*
X164095500Y-93854000D01*
X164087500Y-93848000D01*
X164059500Y-93820000D01*
X164053500Y-93812000D01*
X164048500Y-93803000D01*
X164042500Y-93795000D01*
X164038500Y-93786000D01*
X164033500Y-93777000D01*
X164030500Y-93768000D01*
X164026500Y-93759000D01*
X164023500Y-93749000D01*
X164021500Y-93740000D01*
X164019500Y-93730000D01*
X164017500Y-93710000D01*
X164017500Y-93690000D01*
X164019500Y-93670000D01*
X164021500Y-93660000D01*
X164023500Y-93651000D01*
X164026500Y-93641000D01*
X164030500Y-93632000D01*
X164033500Y-93623000D01*
X164038500Y-93614000D01*
X164042500Y-93605000D01*
X164048500Y-93597000D01*
X164053500Y-93588000D01*
X164059500Y-93580000D01*
X164087500Y-93552000D01*
X164095500Y-93546000D01*
X164104500Y-93541000D01*
X164112500Y-93535000D01*
X164121500Y-93531000D01*
X164130500Y-93526000D01*
X164139500Y-93523000D01*
X164148500Y-93519000D01*
X164158500Y-93516000D01*
X164167500Y-93514000D01*
X164177500Y-93512000D01*
X164197500Y-93510000D01*
X164577500Y-93510000D01*
X164597500Y-93512000D01*
G36*
X162467500Y-90705000D02*
G01*
X162587500Y-90705000D01*
X162587500Y-89930000D01*
X162927500Y-89930000D01*
X162927500Y-90705000D01*
X163047500Y-90705000D01*
X163047500Y-89930000D01*
X163387500Y-89930000D01*
X163387500Y-90705000D01*
X163507500Y-90705000D01*
X163507500Y-89930000D01*
X163847500Y-89930000D01*
X163847500Y-94470000D01*
X163507500Y-94470000D01*
X163507500Y-93695000D01*
X163387500Y-93695000D01*
X163387500Y-94470000D01*
X163047500Y-94470000D01*
X163047500Y-93695000D01*
X162927500Y-93695000D01*
X162927500Y-94470000D01*
X162587500Y-94470000D01*
X162587500Y-93695000D01*
X162467500Y-93695000D01*
X162467500Y-94470000D01*
X162127500Y-94470000D01*
X162127500Y-89930000D01*
X162467500Y-89930000D01*
X162467500Y-90705000D01*
G37*
X162467500Y-90705000D02*
X162587500Y-90705000D01*
X162587500Y-89930000D01*
X162927500Y-89930000D01*
X162927500Y-90705000D01*
X163047500Y-90705000D01*
X163047500Y-89930000D01*
X163387500Y-89930000D01*
X163387500Y-90705000D01*
X163507500Y-90705000D01*
X163507500Y-89930000D01*
X163847500Y-89930000D01*
X163847500Y-94470000D01*
X163507500Y-94470000D01*
X163507500Y-93695000D01*
X163387500Y-93695000D01*
X163387500Y-94470000D01*
X163047500Y-94470000D01*
X163047500Y-93695000D01*
X162927500Y-93695000D01*
X162927500Y-94470000D01*
X162587500Y-94470000D01*
X162587500Y-93695000D01*
X162467500Y-93695000D01*
X162467500Y-94470000D01*
X162127500Y-94470000D01*
X162127500Y-89930000D01*
X162467500Y-89930000D01*
X162467500Y-90705000D01*
G36*
X164597500Y-92512000D02*
G01*
X164607500Y-92514000D01*
X164616500Y-92516000D01*
X164626500Y-92519000D01*
X164635500Y-92523000D01*
X164644500Y-92526000D01*
X164653500Y-92531000D01*
X164662500Y-92535000D01*
X164670500Y-92541000D01*
X164679500Y-92546000D01*
X164687500Y-92552000D01*
X164715500Y-92580000D01*
X164721500Y-92588000D01*
X164726500Y-92597000D01*
X164732500Y-92605000D01*
X164736500Y-92614000D01*
X164741500Y-92623000D01*
X164744500Y-92632000D01*
X164748500Y-92641000D01*
X164751500Y-92651000D01*
X164753500Y-92660000D01*
X164755500Y-92670000D01*
X164757500Y-92690000D01*
X164757500Y-92710000D01*
X164755500Y-92730000D01*
X164753500Y-92740000D01*
X164751500Y-92749000D01*
X164748500Y-92759000D01*
X164744500Y-92768000D01*
X164741500Y-92777000D01*
X164736500Y-92786000D01*
X164732500Y-92795000D01*
X164726500Y-92803000D01*
X164721500Y-92812000D01*
X164715500Y-92820000D01*
X164687500Y-92848000D01*
X164679500Y-92854000D01*
X164670500Y-92859000D01*
X164662500Y-92865000D01*
X164653500Y-92869000D01*
X164644500Y-92874000D01*
X164635500Y-92877000D01*
X164626500Y-92881000D01*
X164616500Y-92884000D01*
X164607500Y-92886000D01*
X164597500Y-92888000D01*
X164577500Y-92890000D01*
X164197500Y-92890000D01*
X164177500Y-92888000D01*
X164167500Y-92886000D01*
X164158500Y-92884000D01*
X164148500Y-92881000D01*
X164139500Y-92877000D01*
X164130500Y-92874000D01*
X164121500Y-92869000D01*
X164112500Y-92865000D01*
X164104500Y-92859000D01*
X164095500Y-92854000D01*
X164087500Y-92848000D01*
X164059500Y-92820000D01*
X164053500Y-92812000D01*
X164048500Y-92803000D01*
X164042500Y-92795000D01*
X164038500Y-92786000D01*
X164033500Y-92777000D01*
X164030500Y-92768000D01*
X164026500Y-92759000D01*
X164023500Y-92749000D01*
X164021500Y-92740000D01*
X164019500Y-92730000D01*
X164017500Y-92710000D01*
X164017500Y-92690000D01*
X164019500Y-92670000D01*
X164021500Y-92660000D01*
X164023500Y-92651000D01*
X164026500Y-92641000D01*
X164030500Y-92632000D01*
X164033500Y-92623000D01*
X164038500Y-92614000D01*
X164042500Y-92605000D01*
X164048500Y-92597000D01*
X164053500Y-92588000D01*
X164059500Y-92580000D01*
X164087500Y-92552000D01*
X164095500Y-92546000D01*
X164104500Y-92541000D01*
X164112500Y-92535000D01*
X164121500Y-92531000D01*
X164130500Y-92526000D01*
X164139500Y-92523000D01*
X164148500Y-92519000D01*
X164158500Y-92516000D01*
X164167500Y-92514000D01*
X164177500Y-92512000D01*
X164197500Y-92510000D01*
X164577500Y-92510000D01*
X164597500Y-92512000D01*
G37*
X164597500Y-92512000D02*
X164607500Y-92514000D01*
X164616500Y-92516000D01*
X164626500Y-92519000D01*
X164635500Y-92523000D01*
X164644500Y-92526000D01*
X164653500Y-92531000D01*
X164662500Y-92535000D01*
X164670500Y-92541000D01*
X164679500Y-92546000D01*
X164687500Y-92552000D01*
X164715500Y-92580000D01*
X164721500Y-92588000D01*
X164726500Y-92597000D01*
X164732500Y-92605000D01*
X164736500Y-92614000D01*
X164741500Y-92623000D01*
X164744500Y-92632000D01*
X164748500Y-92641000D01*
X164751500Y-92651000D01*
X164753500Y-92660000D01*
X164755500Y-92670000D01*
X164757500Y-92690000D01*
X164757500Y-92710000D01*
X164755500Y-92730000D01*
X164753500Y-92740000D01*
X164751500Y-92749000D01*
X164748500Y-92759000D01*
X164744500Y-92768000D01*
X164741500Y-92777000D01*
X164736500Y-92786000D01*
X164732500Y-92795000D01*
X164726500Y-92803000D01*
X164721500Y-92812000D01*
X164715500Y-92820000D01*
X164687500Y-92848000D01*
X164679500Y-92854000D01*
X164670500Y-92859000D01*
X164662500Y-92865000D01*
X164653500Y-92869000D01*
X164644500Y-92874000D01*
X164635500Y-92877000D01*
X164626500Y-92881000D01*
X164616500Y-92884000D01*
X164607500Y-92886000D01*
X164597500Y-92888000D01*
X164577500Y-92890000D01*
X164197500Y-92890000D01*
X164177500Y-92888000D01*
X164167500Y-92886000D01*
X164158500Y-92884000D01*
X164148500Y-92881000D01*
X164139500Y-92877000D01*
X164130500Y-92874000D01*
X164121500Y-92869000D01*
X164112500Y-92865000D01*
X164104500Y-92859000D01*
X164095500Y-92854000D01*
X164087500Y-92848000D01*
X164059500Y-92820000D01*
X164053500Y-92812000D01*
X164048500Y-92803000D01*
X164042500Y-92795000D01*
X164038500Y-92786000D01*
X164033500Y-92777000D01*
X164030500Y-92768000D01*
X164026500Y-92759000D01*
X164023500Y-92749000D01*
X164021500Y-92740000D01*
X164019500Y-92730000D01*
X164017500Y-92710000D01*
X164017500Y-92690000D01*
X164019500Y-92670000D01*
X164021500Y-92660000D01*
X164023500Y-92651000D01*
X164026500Y-92641000D01*
X164030500Y-92632000D01*
X164033500Y-92623000D01*
X164038500Y-92614000D01*
X164042500Y-92605000D01*
X164048500Y-92597000D01*
X164053500Y-92588000D01*
X164059500Y-92580000D01*
X164087500Y-92552000D01*
X164095500Y-92546000D01*
X164104500Y-92541000D01*
X164112500Y-92535000D01*
X164121500Y-92531000D01*
X164130500Y-92526000D01*
X164139500Y-92523000D01*
X164148500Y-92519000D01*
X164158500Y-92516000D01*
X164167500Y-92514000D01*
X164177500Y-92512000D01*
X164197500Y-92510000D01*
X164577500Y-92510000D01*
X164597500Y-92512000D01*
G36*
X164597500Y-91012000D02*
G01*
X164607500Y-91014000D01*
X164616500Y-91016000D01*
X164626500Y-91019000D01*
X164635500Y-91023000D01*
X164644500Y-91026000D01*
X164653500Y-91031000D01*
X164662500Y-91035000D01*
X164670500Y-91041000D01*
X164679500Y-91046000D01*
X164687500Y-91052000D01*
X164715500Y-91080000D01*
X164721500Y-91088000D01*
X164726500Y-91097000D01*
X164732500Y-91105000D01*
X164736500Y-91114000D01*
X164741500Y-91123000D01*
X164744500Y-91132000D01*
X164748500Y-91141000D01*
X164751500Y-91151000D01*
X164753500Y-91160000D01*
X164755500Y-91170000D01*
X164757500Y-91190000D01*
X164757500Y-91210000D01*
X164755500Y-91230000D01*
X164753500Y-91240000D01*
X164751500Y-91249000D01*
X164748500Y-91259000D01*
X164744500Y-91268000D01*
X164741500Y-91277000D01*
X164736500Y-91286000D01*
X164732500Y-91295000D01*
X164726500Y-91303000D01*
X164721500Y-91312000D01*
X164715500Y-91320000D01*
X164687500Y-91348000D01*
X164679500Y-91354000D01*
X164670500Y-91359000D01*
X164662500Y-91365000D01*
X164653500Y-91369000D01*
X164644500Y-91374000D01*
X164635500Y-91377000D01*
X164626500Y-91381000D01*
X164616500Y-91384000D01*
X164607500Y-91386000D01*
X164597500Y-91388000D01*
X164577500Y-91390000D01*
X164197500Y-91390000D01*
X164177500Y-91388000D01*
X164167500Y-91386000D01*
X164158500Y-91384000D01*
X164148500Y-91381000D01*
X164139500Y-91377000D01*
X164130500Y-91374000D01*
X164121500Y-91369000D01*
X164112500Y-91365000D01*
X164104500Y-91359000D01*
X164095500Y-91354000D01*
X164087500Y-91348000D01*
X164059500Y-91320000D01*
X164053500Y-91312000D01*
X164048500Y-91303000D01*
X164042500Y-91295000D01*
X164038500Y-91286000D01*
X164033500Y-91277000D01*
X164030500Y-91268000D01*
X164026500Y-91259000D01*
X164023500Y-91249000D01*
X164021500Y-91240000D01*
X164019500Y-91230000D01*
X164017500Y-91210000D01*
X164017500Y-91190000D01*
X164019500Y-91170000D01*
X164021500Y-91160000D01*
X164023500Y-91151000D01*
X164026500Y-91141000D01*
X164030500Y-91132000D01*
X164033500Y-91123000D01*
X164038500Y-91114000D01*
X164042500Y-91105000D01*
X164048500Y-91097000D01*
X164053500Y-91088000D01*
X164059500Y-91080000D01*
X164087500Y-91052000D01*
X164095500Y-91046000D01*
X164104500Y-91041000D01*
X164112500Y-91035000D01*
X164121500Y-91031000D01*
X164130500Y-91026000D01*
X164139500Y-91023000D01*
X164148500Y-91019000D01*
X164158500Y-91016000D01*
X164167500Y-91014000D01*
X164177500Y-91012000D01*
X164197500Y-91010000D01*
X164577500Y-91010000D01*
X164597500Y-91012000D01*
G37*
X164597500Y-91012000D02*
X164607500Y-91014000D01*
X164616500Y-91016000D01*
X164626500Y-91019000D01*
X164635500Y-91023000D01*
X164644500Y-91026000D01*
X164653500Y-91031000D01*
X164662500Y-91035000D01*
X164670500Y-91041000D01*
X164679500Y-91046000D01*
X164687500Y-91052000D01*
X164715500Y-91080000D01*
X164721500Y-91088000D01*
X164726500Y-91097000D01*
X164732500Y-91105000D01*
X164736500Y-91114000D01*
X164741500Y-91123000D01*
X164744500Y-91132000D01*
X164748500Y-91141000D01*
X164751500Y-91151000D01*
X164753500Y-91160000D01*
X164755500Y-91170000D01*
X164757500Y-91190000D01*
X164757500Y-91210000D01*
X164755500Y-91230000D01*
X164753500Y-91240000D01*
X164751500Y-91249000D01*
X164748500Y-91259000D01*
X164744500Y-91268000D01*
X164741500Y-91277000D01*
X164736500Y-91286000D01*
X164732500Y-91295000D01*
X164726500Y-91303000D01*
X164721500Y-91312000D01*
X164715500Y-91320000D01*
X164687500Y-91348000D01*
X164679500Y-91354000D01*
X164670500Y-91359000D01*
X164662500Y-91365000D01*
X164653500Y-91369000D01*
X164644500Y-91374000D01*
X164635500Y-91377000D01*
X164626500Y-91381000D01*
X164616500Y-91384000D01*
X164607500Y-91386000D01*
X164597500Y-91388000D01*
X164577500Y-91390000D01*
X164197500Y-91390000D01*
X164177500Y-91388000D01*
X164167500Y-91386000D01*
X164158500Y-91384000D01*
X164148500Y-91381000D01*
X164139500Y-91377000D01*
X164130500Y-91374000D01*
X164121500Y-91369000D01*
X164112500Y-91365000D01*
X164104500Y-91359000D01*
X164095500Y-91354000D01*
X164087500Y-91348000D01*
X164059500Y-91320000D01*
X164053500Y-91312000D01*
X164048500Y-91303000D01*
X164042500Y-91295000D01*
X164038500Y-91286000D01*
X164033500Y-91277000D01*
X164030500Y-91268000D01*
X164026500Y-91259000D01*
X164023500Y-91249000D01*
X164021500Y-91240000D01*
X164019500Y-91230000D01*
X164017500Y-91210000D01*
X164017500Y-91190000D01*
X164019500Y-91170000D01*
X164021500Y-91160000D01*
X164023500Y-91151000D01*
X164026500Y-91141000D01*
X164030500Y-91132000D01*
X164033500Y-91123000D01*
X164038500Y-91114000D01*
X164042500Y-91105000D01*
X164048500Y-91097000D01*
X164053500Y-91088000D01*
X164059500Y-91080000D01*
X164087500Y-91052000D01*
X164095500Y-91046000D01*
X164104500Y-91041000D01*
X164112500Y-91035000D01*
X164121500Y-91031000D01*
X164130500Y-91026000D01*
X164139500Y-91023000D01*
X164148500Y-91019000D01*
X164158500Y-91016000D01*
X164167500Y-91014000D01*
X164177500Y-91012000D01*
X164197500Y-91010000D01*
X164577500Y-91010000D01*
X164597500Y-91012000D01*
G36*
X161797500Y-92012000D02*
G01*
X161807500Y-92014000D01*
X161816500Y-92016000D01*
X161826500Y-92019000D01*
X161835500Y-92023000D01*
X161844500Y-92026000D01*
X161853500Y-92031000D01*
X161862500Y-92035000D01*
X161870500Y-92041000D01*
X161879500Y-92046000D01*
X161887500Y-92052000D01*
X161915500Y-92080000D01*
X161921500Y-92088000D01*
X161926500Y-92097000D01*
X161932500Y-92105000D01*
X161936500Y-92114000D01*
X161941500Y-92123000D01*
X161944500Y-92132000D01*
X161948500Y-92141000D01*
X161951500Y-92151000D01*
X161953500Y-92160000D01*
X161955500Y-92170000D01*
X161957500Y-92190000D01*
X161957500Y-92210000D01*
X161955500Y-92230000D01*
X161953500Y-92240000D01*
X161951500Y-92249000D01*
X161948500Y-92259000D01*
X161944500Y-92268000D01*
X161941500Y-92277000D01*
X161936500Y-92286000D01*
X161932500Y-92295000D01*
X161926500Y-92303000D01*
X161921500Y-92312000D01*
X161915500Y-92320000D01*
X161887500Y-92348000D01*
X161879500Y-92354000D01*
X161870500Y-92359000D01*
X161862500Y-92365000D01*
X161853500Y-92369000D01*
X161844500Y-92374000D01*
X161835500Y-92377000D01*
X161826500Y-92381000D01*
X161816500Y-92384000D01*
X161807500Y-92386000D01*
X161797500Y-92388000D01*
X161777500Y-92390000D01*
X161397500Y-92390000D01*
X161377500Y-92388000D01*
X161367500Y-92386000D01*
X161358500Y-92384000D01*
X161348500Y-92381000D01*
X161339500Y-92377000D01*
X161330500Y-92374000D01*
X161321500Y-92369000D01*
X161312500Y-92365000D01*
X161304500Y-92359000D01*
X161295500Y-92354000D01*
X161287500Y-92348000D01*
X161259500Y-92320000D01*
X161253500Y-92312000D01*
X161248500Y-92303000D01*
X161242500Y-92295000D01*
X161238500Y-92286000D01*
X161233500Y-92277000D01*
X161230500Y-92268000D01*
X161226500Y-92259000D01*
X161223500Y-92249000D01*
X161221500Y-92240000D01*
X161219500Y-92230000D01*
X161217500Y-92210000D01*
X161217500Y-92190000D01*
X161219500Y-92170000D01*
X161221500Y-92160000D01*
X161223500Y-92151000D01*
X161226500Y-92141000D01*
X161230500Y-92132000D01*
X161233500Y-92123000D01*
X161238500Y-92114000D01*
X161242500Y-92105000D01*
X161248500Y-92097000D01*
X161253500Y-92088000D01*
X161259500Y-92080000D01*
X161287500Y-92052000D01*
X161295500Y-92046000D01*
X161304500Y-92041000D01*
X161312500Y-92035000D01*
X161321500Y-92031000D01*
X161330500Y-92026000D01*
X161339500Y-92023000D01*
X161348500Y-92019000D01*
X161358500Y-92016000D01*
X161367500Y-92014000D01*
X161377500Y-92012000D01*
X161397500Y-92010000D01*
X161777500Y-92010000D01*
X161797500Y-92012000D01*
G37*
X161797500Y-92012000D02*
X161807500Y-92014000D01*
X161816500Y-92016000D01*
X161826500Y-92019000D01*
X161835500Y-92023000D01*
X161844500Y-92026000D01*
X161853500Y-92031000D01*
X161862500Y-92035000D01*
X161870500Y-92041000D01*
X161879500Y-92046000D01*
X161887500Y-92052000D01*
X161915500Y-92080000D01*
X161921500Y-92088000D01*
X161926500Y-92097000D01*
X161932500Y-92105000D01*
X161936500Y-92114000D01*
X161941500Y-92123000D01*
X161944500Y-92132000D01*
X161948500Y-92141000D01*
X161951500Y-92151000D01*
X161953500Y-92160000D01*
X161955500Y-92170000D01*
X161957500Y-92190000D01*
X161957500Y-92210000D01*
X161955500Y-92230000D01*
X161953500Y-92240000D01*
X161951500Y-92249000D01*
X161948500Y-92259000D01*
X161944500Y-92268000D01*
X161941500Y-92277000D01*
X161936500Y-92286000D01*
X161932500Y-92295000D01*
X161926500Y-92303000D01*
X161921500Y-92312000D01*
X161915500Y-92320000D01*
X161887500Y-92348000D01*
X161879500Y-92354000D01*
X161870500Y-92359000D01*
X161862500Y-92365000D01*
X161853500Y-92369000D01*
X161844500Y-92374000D01*
X161835500Y-92377000D01*
X161826500Y-92381000D01*
X161816500Y-92384000D01*
X161807500Y-92386000D01*
X161797500Y-92388000D01*
X161777500Y-92390000D01*
X161397500Y-92390000D01*
X161377500Y-92388000D01*
X161367500Y-92386000D01*
X161358500Y-92384000D01*
X161348500Y-92381000D01*
X161339500Y-92377000D01*
X161330500Y-92374000D01*
X161321500Y-92369000D01*
X161312500Y-92365000D01*
X161304500Y-92359000D01*
X161295500Y-92354000D01*
X161287500Y-92348000D01*
X161259500Y-92320000D01*
X161253500Y-92312000D01*
X161248500Y-92303000D01*
X161242500Y-92295000D01*
X161238500Y-92286000D01*
X161233500Y-92277000D01*
X161230500Y-92268000D01*
X161226500Y-92259000D01*
X161223500Y-92249000D01*
X161221500Y-92240000D01*
X161219500Y-92230000D01*
X161217500Y-92210000D01*
X161217500Y-92190000D01*
X161219500Y-92170000D01*
X161221500Y-92160000D01*
X161223500Y-92151000D01*
X161226500Y-92141000D01*
X161230500Y-92132000D01*
X161233500Y-92123000D01*
X161238500Y-92114000D01*
X161242500Y-92105000D01*
X161248500Y-92097000D01*
X161253500Y-92088000D01*
X161259500Y-92080000D01*
X161287500Y-92052000D01*
X161295500Y-92046000D01*
X161304500Y-92041000D01*
X161312500Y-92035000D01*
X161321500Y-92031000D01*
X161330500Y-92026000D01*
X161339500Y-92023000D01*
X161348500Y-92019000D01*
X161358500Y-92016000D01*
X161367500Y-92014000D01*
X161377500Y-92012000D01*
X161397500Y-92010000D01*
X161777500Y-92010000D01*
X161797500Y-92012000D01*
G36*
X161797500Y-93512000D02*
G01*
X161807500Y-93514000D01*
X161816500Y-93516000D01*
X161826500Y-93519000D01*
X161835500Y-93523000D01*
X161844500Y-93526000D01*
X161853500Y-93531000D01*
X161862500Y-93535000D01*
X161870500Y-93541000D01*
X161879500Y-93546000D01*
X161887500Y-93552000D01*
X161915500Y-93580000D01*
X161921500Y-93588000D01*
X161926500Y-93597000D01*
X161932500Y-93605000D01*
X161936500Y-93614000D01*
X161941500Y-93623000D01*
X161944500Y-93632000D01*
X161948500Y-93641000D01*
X161951500Y-93651000D01*
X161953500Y-93660000D01*
X161955500Y-93670000D01*
X161957500Y-93690000D01*
X161957500Y-93710000D01*
X161955500Y-93730000D01*
X161953500Y-93740000D01*
X161951500Y-93749000D01*
X161948500Y-93759000D01*
X161944500Y-93768000D01*
X161941500Y-93777000D01*
X161936500Y-93786000D01*
X161932500Y-93795000D01*
X161926500Y-93803000D01*
X161921500Y-93812000D01*
X161915500Y-93820000D01*
X161887500Y-93848000D01*
X161879500Y-93854000D01*
X161870500Y-93859000D01*
X161862500Y-93865000D01*
X161853500Y-93869000D01*
X161844500Y-93874000D01*
X161835500Y-93877000D01*
X161826500Y-93881000D01*
X161816500Y-93884000D01*
X161807500Y-93886000D01*
X161797500Y-93888000D01*
X161777500Y-93890000D01*
X161397500Y-93890000D01*
X161377500Y-93888000D01*
X161367500Y-93886000D01*
X161358500Y-93884000D01*
X161348500Y-93881000D01*
X161339500Y-93877000D01*
X161330500Y-93874000D01*
X161321500Y-93869000D01*
X161312500Y-93865000D01*
X161304500Y-93859000D01*
X161295500Y-93854000D01*
X161287500Y-93848000D01*
X161259500Y-93820000D01*
X161253500Y-93812000D01*
X161248500Y-93803000D01*
X161242500Y-93795000D01*
X161238500Y-93786000D01*
X161233500Y-93777000D01*
X161230500Y-93768000D01*
X161226500Y-93759000D01*
X161223500Y-93749000D01*
X161221500Y-93740000D01*
X161219500Y-93730000D01*
X161217500Y-93710000D01*
X161217500Y-93690000D01*
X161219500Y-93670000D01*
X161221500Y-93660000D01*
X161223500Y-93651000D01*
X161226500Y-93641000D01*
X161230500Y-93632000D01*
X161233500Y-93623000D01*
X161238500Y-93614000D01*
X161242500Y-93605000D01*
X161248500Y-93597000D01*
X161253500Y-93588000D01*
X161259500Y-93580000D01*
X161287500Y-93552000D01*
X161295500Y-93546000D01*
X161304500Y-93541000D01*
X161312500Y-93535000D01*
X161321500Y-93531000D01*
X161330500Y-93526000D01*
X161339500Y-93523000D01*
X161348500Y-93519000D01*
X161358500Y-93516000D01*
X161367500Y-93514000D01*
X161377500Y-93512000D01*
X161397500Y-93510000D01*
X161777500Y-93510000D01*
X161797500Y-93512000D01*
G37*
X161797500Y-93512000D02*
X161807500Y-93514000D01*
X161816500Y-93516000D01*
X161826500Y-93519000D01*
X161835500Y-93523000D01*
X161844500Y-93526000D01*
X161853500Y-93531000D01*
X161862500Y-93535000D01*
X161870500Y-93541000D01*
X161879500Y-93546000D01*
X161887500Y-93552000D01*
X161915500Y-93580000D01*
X161921500Y-93588000D01*
X161926500Y-93597000D01*
X161932500Y-93605000D01*
X161936500Y-93614000D01*
X161941500Y-93623000D01*
X161944500Y-93632000D01*
X161948500Y-93641000D01*
X161951500Y-93651000D01*
X161953500Y-93660000D01*
X161955500Y-93670000D01*
X161957500Y-93690000D01*
X161957500Y-93710000D01*
X161955500Y-93730000D01*
X161953500Y-93740000D01*
X161951500Y-93749000D01*
X161948500Y-93759000D01*
X161944500Y-93768000D01*
X161941500Y-93777000D01*
X161936500Y-93786000D01*
X161932500Y-93795000D01*
X161926500Y-93803000D01*
X161921500Y-93812000D01*
X161915500Y-93820000D01*
X161887500Y-93848000D01*
X161879500Y-93854000D01*
X161870500Y-93859000D01*
X161862500Y-93865000D01*
X161853500Y-93869000D01*
X161844500Y-93874000D01*
X161835500Y-93877000D01*
X161826500Y-93881000D01*
X161816500Y-93884000D01*
X161807500Y-93886000D01*
X161797500Y-93888000D01*
X161777500Y-93890000D01*
X161397500Y-93890000D01*
X161377500Y-93888000D01*
X161367500Y-93886000D01*
X161358500Y-93884000D01*
X161348500Y-93881000D01*
X161339500Y-93877000D01*
X161330500Y-93874000D01*
X161321500Y-93869000D01*
X161312500Y-93865000D01*
X161304500Y-93859000D01*
X161295500Y-93854000D01*
X161287500Y-93848000D01*
X161259500Y-93820000D01*
X161253500Y-93812000D01*
X161248500Y-93803000D01*
X161242500Y-93795000D01*
X161238500Y-93786000D01*
X161233500Y-93777000D01*
X161230500Y-93768000D01*
X161226500Y-93759000D01*
X161223500Y-93749000D01*
X161221500Y-93740000D01*
X161219500Y-93730000D01*
X161217500Y-93710000D01*
X161217500Y-93690000D01*
X161219500Y-93670000D01*
X161221500Y-93660000D01*
X161223500Y-93651000D01*
X161226500Y-93641000D01*
X161230500Y-93632000D01*
X161233500Y-93623000D01*
X161238500Y-93614000D01*
X161242500Y-93605000D01*
X161248500Y-93597000D01*
X161253500Y-93588000D01*
X161259500Y-93580000D01*
X161287500Y-93552000D01*
X161295500Y-93546000D01*
X161304500Y-93541000D01*
X161312500Y-93535000D01*
X161321500Y-93531000D01*
X161330500Y-93526000D01*
X161339500Y-93523000D01*
X161348500Y-93519000D01*
X161358500Y-93516000D01*
X161367500Y-93514000D01*
X161377500Y-93512000D01*
X161397500Y-93510000D01*
X161777500Y-93510000D01*
X161797500Y-93512000D01*
G36*
X164597500Y-92012000D02*
G01*
X164607500Y-92014000D01*
X164616500Y-92016000D01*
X164626500Y-92019000D01*
X164635500Y-92023000D01*
X164644500Y-92026000D01*
X164653500Y-92031000D01*
X164662500Y-92035000D01*
X164670500Y-92041000D01*
X164679500Y-92046000D01*
X164687500Y-92052000D01*
X164715500Y-92080000D01*
X164721500Y-92088000D01*
X164726500Y-92097000D01*
X164732500Y-92105000D01*
X164736500Y-92114000D01*
X164741500Y-92123000D01*
X164744500Y-92132000D01*
X164748500Y-92141000D01*
X164751500Y-92151000D01*
X164753500Y-92160000D01*
X164755500Y-92170000D01*
X164757500Y-92190000D01*
X164757500Y-92210000D01*
X164755500Y-92230000D01*
X164753500Y-92240000D01*
X164751500Y-92249000D01*
X164748500Y-92259000D01*
X164744500Y-92268000D01*
X164741500Y-92277000D01*
X164736500Y-92286000D01*
X164732500Y-92295000D01*
X164726500Y-92303000D01*
X164721500Y-92312000D01*
X164715500Y-92320000D01*
X164687500Y-92348000D01*
X164679500Y-92354000D01*
X164670500Y-92359000D01*
X164662500Y-92365000D01*
X164653500Y-92369000D01*
X164644500Y-92374000D01*
X164635500Y-92377000D01*
X164626500Y-92381000D01*
X164616500Y-92384000D01*
X164607500Y-92386000D01*
X164597500Y-92388000D01*
X164577500Y-92390000D01*
X164197500Y-92390000D01*
X164177500Y-92388000D01*
X164167500Y-92386000D01*
X164158500Y-92384000D01*
X164148500Y-92381000D01*
X164139500Y-92377000D01*
X164130500Y-92374000D01*
X164121500Y-92369000D01*
X164112500Y-92365000D01*
X164104500Y-92359000D01*
X164095500Y-92354000D01*
X164087500Y-92348000D01*
X164059500Y-92320000D01*
X164053500Y-92312000D01*
X164048500Y-92303000D01*
X164042500Y-92295000D01*
X164038500Y-92286000D01*
X164033500Y-92277000D01*
X164030500Y-92268000D01*
X164026500Y-92259000D01*
X164023500Y-92249000D01*
X164021500Y-92240000D01*
X164019500Y-92230000D01*
X164017500Y-92210000D01*
X164017500Y-92190000D01*
X164019500Y-92170000D01*
X164021500Y-92160000D01*
X164023500Y-92151000D01*
X164026500Y-92141000D01*
X164030500Y-92132000D01*
X164033500Y-92123000D01*
X164038500Y-92114000D01*
X164042500Y-92105000D01*
X164048500Y-92097000D01*
X164053500Y-92088000D01*
X164059500Y-92080000D01*
X164087500Y-92052000D01*
X164095500Y-92046000D01*
X164104500Y-92041000D01*
X164112500Y-92035000D01*
X164121500Y-92031000D01*
X164130500Y-92026000D01*
X164139500Y-92023000D01*
X164148500Y-92019000D01*
X164158500Y-92016000D01*
X164167500Y-92014000D01*
X164177500Y-92012000D01*
X164197500Y-92010000D01*
X164577500Y-92010000D01*
X164597500Y-92012000D01*
G37*
X164597500Y-92012000D02*
X164607500Y-92014000D01*
X164616500Y-92016000D01*
X164626500Y-92019000D01*
X164635500Y-92023000D01*
X164644500Y-92026000D01*
X164653500Y-92031000D01*
X164662500Y-92035000D01*
X164670500Y-92041000D01*
X164679500Y-92046000D01*
X164687500Y-92052000D01*
X164715500Y-92080000D01*
X164721500Y-92088000D01*
X164726500Y-92097000D01*
X164732500Y-92105000D01*
X164736500Y-92114000D01*
X164741500Y-92123000D01*
X164744500Y-92132000D01*
X164748500Y-92141000D01*
X164751500Y-92151000D01*
X164753500Y-92160000D01*
X164755500Y-92170000D01*
X164757500Y-92190000D01*
X164757500Y-92210000D01*
X164755500Y-92230000D01*
X164753500Y-92240000D01*
X164751500Y-92249000D01*
X164748500Y-92259000D01*
X164744500Y-92268000D01*
X164741500Y-92277000D01*
X164736500Y-92286000D01*
X164732500Y-92295000D01*
X164726500Y-92303000D01*
X164721500Y-92312000D01*
X164715500Y-92320000D01*
X164687500Y-92348000D01*
X164679500Y-92354000D01*
X164670500Y-92359000D01*
X164662500Y-92365000D01*
X164653500Y-92369000D01*
X164644500Y-92374000D01*
X164635500Y-92377000D01*
X164626500Y-92381000D01*
X164616500Y-92384000D01*
X164607500Y-92386000D01*
X164597500Y-92388000D01*
X164577500Y-92390000D01*
X164197500Y-92390000D01*
X164177500Y-92388000D01*
X164167500Y-92386000D01*
X164158500Y-92384000D01*
X164148500Y-92381000D01*
X164139500Y-92377000D01*
X164130500Y-92374000D01*
X164121500Y-92369000D01*
X164112500Y-92365000D01*
X164104500Y-92359000D01*
X164095500Y-92354000D01*
X164087500Y-92348000D01*
X164059500Y-92320000D01*
X164053500Y-92312000D01*
X164048500Y-92303000D01*
X164042500Y-92295000D01*
X164038500Y-92286000D01*
X164033500Y-92277000D01*
X164030500Y-92268000D01*
X164026500Y-92259000D01*
X164023500Y-92249000D01*
X164021500Y-92240000D01*
X164019500Y-92230000D01*
X164017500Y-92210000D01*
X164017500Y-92190000D01*
X164019500Y-92170000D01*
X164021500Y-92160000D01*
X164023500Y-92151000D01*
X164026500Y-92141000D01*
X164030500Y-92132000D01*
X164033500Y-92123000D01*
X164038500Y-92114000D01*
X164042500Y-92105000D01*
X164048500Y-92097000D01*
X164053500Y-92088000D01*
X164059500Y-92080000D01*
X164087500Y-92052000D01*
X164095500Y-92046000D01*
X164104500Y-92041000D01*
X164112500Y-92035000D01*
X164121500Y-92031000D01*
X164130500Y-92026000D01*
X164139500Y-92023000D01*
X164148500Y-92019000D01*
X164158500Y-92016000D01*
X164167500Y-92014000D01*
X164177500Y-92012000D01*
X164197500Y-92010000D01*
X164577500Y-92010000D01*
X164597500Y-92012000D01*
G36*
X161797500Y-91012000D02*
G01*
X161807500Y-91014000D01*
X161816500Y-91016000D01*
X161826500Y-91019000D01*
X161835500Y-91023000D01*
X161844500Y-91026000D01*
X161853500Y-91031000D01*
X161862500Y-91035000D01*
X161870500Y-91041000D01*
X161879500Y-91046000D01*
X161887500Y-91052000D01*
X161915500Y-91080000D01*
X161921500Y-91088000D01*
X161926500Y-91097000D01*
X161932500Y-91105000D01*
X161936500Y-91114000D01*
X161941500Y-91123000D01*
X161944500Y-91132000D01*
X161948500Y-91141000D01*
X161951500Y-91151000D01*
X161953500Y-91160000D01*
X161955500Y-91170000D01*
X161957500Y-91190000D01*
X161957500Y-91210000D01*
X161955500Y-91230000D01*
X161953500Y-91240000D01*
X161951500Y-91249000D01*
X161948500Y-91259000D01*
X161944500Y-91268000D01*
X161941500Y-91277000D01*
X161936500Y-91286000D01*
X161932500Y-91295000D01*
X161926500Y-91303000D01*
X161921500Y-91312000D01*
X161915500Y-91320000D01*
X161887500Y-91348000D01*
X161879500Y-91354000D01*
X161870500Y-91359000D01*
X161862500Y-91365000D01*
X161853500Y-91369000D01*
X161844500Y-91374000D01*
X161835500Y-91377000D01*
X161826500Y-91381000D01*
X161816500Y-91384000D01*
X161807500Y-91386000D01*
X161797500Y-91388000D01*
X161777500Y-91390000D01*
X161397500Y-91390000D01*
X161377500Y-91388000D01*
X161367500Y-91386000D01*
X161358500Y-91384000D01*
X161348500Y-91381000D01*
X161339500Y-91377000D01*
X161330500Y-91374000D01*
X161321500Y-91369000D01*
X161312500Y-91365000D01*
X161304500Y-91359000D01*
X161295500Y-91354000D01*
X161287500Y-91348000D01*
X161259500Y-91320000D01*
X161253500Y-91312000D01*
X161248500Y-91303000D01*
X161242500Y-91295000D01*
X161238500Y-91286000D01*
X161233500Y-91277000D01*
X161230500Y-91268000D01*
X161226500Y-91259000D01*
X161223500Y-91249000D01*
X161221500Y-91240000D01*
X161219500Y-91230000D01*
X161217500Y-91210000D01*
X161217500Y-91190000D01*
X161219500Y-91170000D01*
X161221500Y-91160000D01*
X161223500Y-91151000D01*
X161226500Y-91141000D01*
X161230500Y-91132000D01*
X161233500Y-91123000D01*
X161238500Y-91114000D01*
X161242500Y-91105000D01*
X161248500Y-91097000D01*
X161253500Y-91088000D01*
X161259500Y-91080000D01*
X161287500Y-91052000D01*
X161295500Y-91046000D01*
X161304500Y-91041000D01*
X161312500Y-91035000D01*
X161321500Y-91031000D01*
X161330500Y-91026000D01*
X161339500Y-91023000D01*
X161348500Y-91019000D01*
X161358500Y-91016000D01*
X161367500Y-91014000D01*
X161377500Y-91012000D01*
X161397500Y-91010000D01*
X161777500Y-91010000D01*
X161797500Y-91012000D01*
G37*
X161797500Y-91012000D02*
X161807500Y-91014000D01*
X161816500Y-91016000D01*
X161826500Y-91019000D01*
X161835500Y-91023000D01*
X161844500Y-91026000D01*
X161853500Y-91031000D01*
X161862500Y-91035000D01*
X161870500Y-91041000D01*
X161879500Y-91046000D01*
X161887500Y-91052000D01*
X161915500Y-91080000D01*
X161921500Y-91088000D01*
X161926500Y-91097000D01*
X161932500Y-91105000D01*
X161936500Y-91114000D01*
X161941500Y-91123000D01*
X161944500Y-91132000D01*
X161948500Y-91141000D01*
X161951500Y-91151000D01*
X161953500Y-91160000D01*
X161955500Y-91170000D01*
X161957500Y-91190000D01*
X161957500Y-91210000D01*
X161955500Y-91230000D01*
X161953500Y-91240000D01*
X161951500Y-91249000D01*
X161948500Y-91259000D01*
X161944500Y-91268000D01*
X161941500Y-91277000D01*
X161936500Y-91286000D01*
X161932500Y-91295000D01*
X161926500Y-91303000D01*
X161921500Y-91312000D01*
X161915500Y-91320000D01*
X161887500Y-91348000D01*
X161879500Y-91354000D01*
X161870500Y-91359000D01*
X161862500Y-91365000D01*
X161853500Y-91369000D01*
X161844500Y-91374000D01*
X161835500Y-91377000D01*
X161826500Y-91381000D01*
X161816500Y-91384000D01*
X161807500Y-91386000D01*
X161797500Y-91388000D01*
X161777500Y-91390000D01*
X161397500Y-91390000D01*
X161377500Y-91388000D01*
X161367500Y-91386000D01*
X161358500Y-91384000D01*
X161348500Y-91381000D01*
X161339500Y-91377000D01*
X161330500Y-91374000D01*
X161321500Y-91369000D01*
X161312500Y-91365000D01*
X161304500Y-91359000D01*
X161295500Y-91354000D01*
X161287500Y-91348000D01*
X161259500Y-91320000D01*
X161253500Y-91312000D01*
X161248500Y-91303000D01*
X161242500Y-91295000D01*
X161238500Y-91286000D01*
X161233500Y-91277000D01*
X161230500Y-91268000D01*
X161226500Y-91259000D01*
X161223500Y-91249000D01*
X161221500Y-91240000D01*
X161219500Y-91230000D01*
X161217500Y-91210000D01*
X161217500Y-91190000D01*
X161219500Y-91170000D01*
X161221500Y-91160000D01*
X161223500Y-91151000D01*
X161226500Y-91141000D01*
X161230500Y-91132000D01*
X161233500Y-91123000D01*
X161238500Y-91114000D01*
X161242500Y-91105000D01*
X161248500Y-91097000D01*
X161253500Y-91088000D01*
X161259500Y-91080000D01*
X161287500Y-91052000D01*
X161295500Y-91046000D01*
X161304500Y-91041000D01*
X161312500Y-91035000D01*
X161321500Y-91031000D01*
X161330500Y-91026000D01*
X161339500Y-91023000D01*
X161348500Y-91019000D01*
X161358500Y-91016000D01*
X161367500Y-91014000D01*
X161377500Y-91012000D01*
X161397500Y-91010000D01*
X161777500Y-91010000D01*
X161797500Y-91012000D01*
G36*
X164597500Y-90512000D02*
G01*
X164607500Y-90514000D01*
X164616500Y-90516000D01*
X164626500Y-90519000D01*
X164635500Y-90523000D01*
X164644500Y-90526000D01*
X164653500Y-90531000D01*
X164662500Y-90535000D01*
X164670500Y-90541000D01*
X164679500Y-90546000D01*
X164687500Y-90552000D01*
X164715500Y-90580000D01*
X164721500Y-90588000D01*
X164726500Y-90597000D01*
X164732500Y-90605000D01*
X164736500Y-90614000D01*
X164741500Y-90623000D01*
X164744500Y-90632000D01*
X164748500Y-90641000D01*
X164751500Y-90651000D01*
X164753500Y-90660000D01*
X164755500Y-90670000D01*
X164757500Y-90690000D01*
X164757500Y-90710000D01*
X164755500Y-90730000D01*
X164753500Y-90740000D01*
X164751500Y-90749000D01*
X164748500Y-90759000D01*
X164744500Y-90768000D01*
X164741500Y-90777000D01*
X164736500Y-90786000D01*
X164732500Y-90795000D01*
X164726500Y-90803000D01*
X164721500Y-90812000D01*
X164715500Y-90820000D01*
X164687500Y-90848000D01*
X164679500Y-90854000D01*
X164670500Y-90859000D01*
X164662500Y-90865000D01*
X164653500Y-90869000D01*
X164644500Y-90874000D01*
X164635500Y-90877000D01*
X164626500Y-90881000D01*
X164616500Y-90884000D01*
X164607500Y-90886000D01*
X164597500Y-90888000D01*
X164577500Y-90890000D01*
X164197500Y-90890000D01*
X164177500Y-90888000D01*
X164167500Y-90886000D01*
X164158500Y-90884000D01*
X164148500Y-90881000D01*
X164139500Y-90877000D01*
X164130500Y-90874000D01*
X164121500Y-90869000D01*
X164112500Y-90865000D01*
X164104500Y-90859000D01*
X164095500Y-90854000D01*
X164087500Y-90848000D01*
X164059500Y-90820000D01*
X164053500Y-90812000D01*
X164048500Y-90803000D01*
X164042500Y-90795000D01*
X164038500Y-90786000D01*
X164033500Y-90777000D01*
X164030500Y-90768000D01*
X164026500Y-90759000D01*
X164023500Y-90749000D01*
X164021500Y-90740000D01*
X164019500Y-90730000D01*
X164017500Y-90710000D01*
X164017500Y-90690000D01*
X164019500Y-90670000D01*
X164021500Y-90660000D01*
X164023500Y-90651000D01*
X164026500Y-90641000D01*
X164030500Y-90632000D01*
X164033500Y-90623000D01*
X164038500Y-90614000D01*
X164042500Y-90605000D01*
X164048500Y-90597000D01*
X164053500Y-90588000D01*
X164059500Y-90580000D01*
X164087500Y-90552000D01*
X164095500Y-90546000D01*
X164104500Y-90541000D01*
X164112500Y-90535000D01*
X164121500Y-90531000D01*
X164130500Y-90526000D01*
X164139500Y-90523000D01*
X164148500Y-90519000D01*
X164158500Y-90516000D01*
X164167500Y-90514000D01*
X164177500Y-90512000D01*
X164197500Y-90510000D01*
X164577500Y-90510000D01*
X164597500Y-90512000D01*
G37*
X164597500Y-90512000D02*
X164607500Y-90514000D01*
X164616500Y-90516000D01*
X164626500Y-90519000D01*
X164635500Y-90523000D01*
X164644500Y-90526000D01*
X164653500Y-90531000D01*
X164662500Y-90535000D01*
X164670500Y-90541000D01*
X164679500Y-90546000D01*
X164687500Y-90552000D01*
X164715500Y-90580000D01*
X164721500Y-90588000D01*
X164726500Y-90597000D01*
X164732500Y-90605000D01*
X164736500Y-90614000D01*
X164741500Y-90623000D01*
X164744500Y-90632000D01*
X164748500Y-90641000D01*
X164751500Y-90651000D01*
X164753500Y-90660000D01*
X164755500Y-90670000D01*
X164757500Y-90690000D01*
X164757500Y-90710000D01*
X164755500Y-90730000D01*
X164753500Y-90740000D01*
X164751500Y-90749000D01*
X164748500Y-90759000D01*
X164744500Y-90768000D01*
X164741500Y-90777000D01*
X164736500Y-90786000D01*
X164732500Y-90795000D01*
X164726500Y-90803000D01*
X164721500Y-90812000D01*
X164715500Y-90820000D01*
X164687500Y-90848000D01*
X164679500Y-90854000D01*
X164670500Y-90859000D01*
X164662500Y-90865000D01*
X164653500Y-90869000D01*
X164644500Y-90874000D01*
X164635500Y-90877000D01*
X164626500Y-90881000D01*
X164616500Y-90884000D01*
X164607500Y-90886000D01*
X164597500Y-90888000D01*
X164577500Y-90890000D01*
X164197500Y-90890000D01*
X164177500Y-90888000D01*
X164167500Y-90886000D01*
X164158500Y-90884000D01*
X164148500Y-90881000D01*
X164139500Y-90877000D01*
X164130500Y-90874000D01*
X164121500Y-90869000D01*
X164112500Y-90865000D01*
X164104500Y-90859000D01*
X164095500Y-90854000D01*
X164087500Y-90848000D01*
X164059500Y-90820000D01*
X164053500Y-90812000D01*
X164048500Y-90803000D01*
X164042500Y-90795000D01*
X164038500Y-90786000D01*
X164033500Y-90777000D01*
X164030500Y-90768000D01*
X164026500Y-90759000D01*
X164023500Y-90749000D01*
X164021500Y-90740000D01*
X164019500Y-90730000D01*
X164017500Y-90710000D01*
X164017500Y-90690000D01*
X164019500Y-90670000D01*
X164021500Y-90660000D01*
X164023500Y-90651000D01*
X164026500Y-90641000D01*
X164030500Y-90632000D01*
X164033500Y-90623000D01*
X164038500Y-90614000D01*
X164042500Y-90605000D01*
X164048500Y-90597000D01*
X164053500Y-90588000D01*
X164059500Y-90580000D01*
X164087500Y-90552000D01*
X164095500Y-90546000D01*
X164104500Y-90541000D01*
X164112500Y-90535000D01*
X164121500Y-90531000D01*
X164130500Y-90526000D01*
X164139500Y-90523000D01*
X164148500Y-90519000D01*
X164158500Y-90516000D01*
X164167500Y-90514000D01*
X164177500Y-90512000D01*
X164197500Y-90510000D01*
X164577500Y-90510000D01*
X164597500Y-90512000D01*
G36*
G01*
X167500000Y-91975000D02*
X168000000Y-91975000D01*
G75*
G02*
X168225000Y-92200000I0J-225000D01*
G01*
X168225000Y-92650000D01*
G75*
G02*
X168000000Y-92875000I-225000J0D01*
G01*
X167500000Y-92875000D01*
G75*
G02*
X167275000Y-92650000I0J225000D01*
G01*
X167275000Y-92200000D01*
G75*
G02*
X167500000Y-91975000I225000J0D01*
G01*
G37*
G36*
G01*
X167500000Y-93525000D02*
X168000000Y-93525000D01*
G75*
G02*
X168225000Y-93750000I0J-225000D01*
G01*
X168225000Y-94200000D01*
G75*
G02*
X168000000Y-94425000I-225000J0D01*
G01*
X167500000Y-94425000D01*
G75*
G02*
X167275000Y-94200000I0J225000D01*
G01*
X167275000Y-93750000D01*
G75*
G02*
X167500000Y-93525000I225000J0D01*
G01*
G37*
D11*
X127350000Y-106126000D03*
X129890000Y-103206000D03*
X132430000Y-106126000D03*
X134970000Y-103206000D03*
X137510000Y-106126000D03*
X140050000Y-103206000D03*
X142590000Y-106126000D03*
X145130000Y-103206000D03*
X147670000Y-106126000D03*
X150210000Y-103206000D03*
X152750000Y-106126000D03*
X155290000Y-103206000D03*
X157830000Y-106126000D03*
X160370000Y-103206000D03*
X162910000Y-106126000D03*
X165450000Y-103206000D03*
D12*
X147573100Y-88500001D03*
X147573100Y-89499999D03*
X146226900Y-89000000D03*
G36*
G01*
X169140000Y-96427500D02*
X169560000Y-96427500D01*
G75*
G02*
X169650000Y-96517500I0J-90000D01*
G01*
X169650000Y-97557500D01*
G75*
G02*
X169560000Y-97647500I-90000J0D01*
G01*
X169140000Y-97647500D01*
G75*
G02*
X169050000Y-97557500I0J90000D01*
G01*
X169050000Y-96517500D01*
G75*
G02*
X169140000Y-96427500I90000J0D01*
G01*
G37*
G36*
G01*
X170090000Y-96427500D02*
X170510000Y-96427500D01*
G75*
G02*
X170600000Y-96517500I0J-90000D01*
G01*
X170600000Y-97557500D01*
G75*
G02*
X170510000Y-97647500I-90000J0D01*
G01*
X170090000Y-97647500D01*
G75*
G02*
X170000000Y-97557500I0J90000D01*
G01*
X170000000Y-96517500D01*
G75*
G02*
X170090000Y-96427500I90000J0D01*
G01*
G37*
G36*
G01*
X171040000Y-96427500D02*
X171460000Y-96427500D01*
G75*
G02*
X171550000Y-96517500I0J-90000D01*
G01*
X171550000Y-97557500D01*
G75*
G02*
X171460000Y-97647500I-90000J0D01*
G01*
X171040000Y-97647500D01*
G75*
G02*
X170950000Y-97557500I0J90000D01*
G01*
X170950000Y-96517500D01*
G75*
G02*
X171040000Y-96427500I90000J0D01*
G01*
G37*
G36*
G01*
X171040000Y-98917500D02*
X171460000Y-98917500D01*
G75*
G02*
X171550000Y-99007500I0J-90000D01*
G01*
X171550000Y-100047500D01*
G75*
G02*
X171460000Y-100137500I-90000J0D01*
G01*
X171040000Y-100137500D01*
G75*
G02*
X170950000Y-100047500I0J90000D01*
G01*
X170950000Y-99007500D01*
G75*
G02*
X171040000Y-98917500I90000J0D01*
G01*
G37*
G36*
G01*
X169140000Y-98917500D02*
X169560000Y-98917500D01*
G75*
G02*
X169650000Y-99007500I0J-90000D01*
G01*
X169650000Y-100047500D01*
G75*
G02*
X169560000Y-100137500I-90000J0D01*
G01*
X169140000Y-100137500D01*
G75*
G02*
X169050000Y-100047500I0J90000D01*
G01*
X169050000Y-99007500D01*
G75*
G02*
X169140000Y-98917500I90000J0D01*
G01*
G37*
D13*
X135500000Y-95600000D03*
G36*
G01*
X148040000Y-94670000D02*
X148040000Y-94330000D01*
G75*
G02*
X148180000Y-94190000I140000J0D01*
G01*
X148460000Y-94190000D01*
G75*
G02*
X148600000Y-94330000I0J-140000D01*
G01*
X148600000Y-94670000D01*
G75*
G02*
X148460000Y-94810000I-140000J0D01*
G01*
X148180000Y-94810000D01*
G75*
G02*
X148040000Y-94670000I0J140000D01*
G01*
G37*
G36*
G01*
X149000000Y-94670000D02*
X149000000Y-94330000D01*
G75*
G02*
X149140000Y-94190000I140000J0D01*
G01*
X149420000Y-94190000D01*
G75*
G02*
X149560000Y-94330000I0J-140000D01*
G01*
X149560000Y-94670000D01*
G75*
G02*
X149420000Y-94810000I-140000J0D01*
G01*
X149140000Y-94810000D01*
G75*
G02*
X149000000Y-94670000I0J140000D01*
G01*
G37*
G36*
G01*
X170375000Y-92875000D02*
X170375000Y-91975000D01*
G75*
G02*
X170625000Y-91725000I250000J0D01*
G01*
X171150000Y-91725000D01*
G75*
G02*
X171400000Y-91975000I0J-250000D01*
G01*
X171400000Y-92875000D01*
G75*
G02*
X171150000Y-93125000I-250000J0D01*
G01*
X170625000Y-93125000D01*
G75*
G02*
X170375000Y-92875000I0J250000D01*
G01*
G37*
G36*
G01*
X172200000Y-92875000D02*
X172200000Y-91975000D01*
G75*
G02*
X172450000Y-91725000I250000J0D01*
G01*
X172975000Y-91725000D01*
G75*
G02*
X173225000Y-91975000I0J-250000D01*
G01*
X173225000Y-92875000D01*
G75*
G02*
X172975000Y-93125000I-250000J0D01*
G01*
X172450000Y-93125000D01*
G75*
G02*
X172200000Y-92875000I0J250000D01*
G01*
G37*
G36*
G01*
X165950000Y-91975000D02*
X166450000Y-91975000D01*
G75*
G02*
X166675000Y-92200000I0J-225000D01*
G01*
X166675000Y-92650000D01*
G75*
G02*
X166450000Y-92875000I-225000J0D01*
G01*
X165950000Y-92875000D01*
G75*
G02*
X165725000Y-92650000I0J225000D01*
G01*
X165725000Y-92200000D01*
G75*
G02*
X165950000Y-91975000I225000J0D01*
G01*
G37*
G36*
G01*
X165950000Y-93525000D02*
X166450000Y-93525000D01*
G75*
G02*
X166675000Y-93750000I0J-225000D01*
G01*
X166675000Y-94200000D01*
G75*
G02*
X166450000Y-94425000I-225000J0D01*
G01*
X165950000Y-94425000D01*
G75*
G02*
X165725000Y-94200000I0J225000D01*
G01*
X165725000Y-93750000D01*
G75*
G02*
X165950000Y-93525000I225000J0D01*
G01*
G37*
G36*
G01*
X154780000Y-93815000D02*
X154780000Y-94185000D01*
G75*
G02*
X154645000Y-94320000I-135000J0D01*
G01*
X154375000Y-94320000D01*
G75*
G02*
X154240000Y-94185000I0J135000D01*
G01*
X154240000Y-93815000D01*
G75*
G02*
X154375000Y-93680000I135000J0D01*
G01*
X154645000Y-93680000D01*
G75*
G02*
X154780000Y-93815000I0J-135000D01*
G01*
G37*
G36*
G01*
X153760000Y-93815000D02*
X153760000Y-94185000D01*
G75*
G02*
X153625000Y-94320000I-135000J0D01*
G01*
X153355000Y-94320000D01*
G75*
G02*
X153220000Y-94185000I0J135000D01*
G01*
X153220000Y-93815000D01*
G75*
G02*
X153355000Y-93680000I135000J0D01*
G01*
X153625000Y-93680000D01*
G75*
G02*
X153760000Y-93815000I0J-135000D01*
G01*
G37*
G36*
G01*
X159550000Y-91975000D02*
X160050000Y-91975000D01*
G75*
G02*
X160275000Y-92200000I0J-225000D01*
G01*
X160275000Y-92650000D01*
G75*
G02*
X160050000Y-92875000I-225000J0D01*
G01*
X159550000Y-92875000D01*
G75*
G02*
X159325000Y-92650000I0J225000D01*
G01*
X159325000Y-92200000D01*
G75*
G02*
X159550000Y-91975000I225000J0D01*
G01*
G37*
G36*
G01*
X159550000Y-93525000D02*
X160050000Y-93525000D01*
G75*
G02*
X160275000Y-93750000I0J-225000D01*
G01*
X160275000Y-94200000D01*
G75*
G02*
X160050000Y-94425000I-225000J0D01*
G01*
X159550000Y-94425000D01*
G75*
G02*
X159325000Y-94200000I0J225000D01*
G01*
X159325000Y-93750000D01*
G75*
G02*
X159550000Y-93525000I225000J0D01*
G01*
G37*
X152600000Y-96750000D03*
G36*
G01*
X171080000Y-100890000D02*
X171420000Y-100890000D01*
G75*
G02*
X171560000Y-101030000I0J-140000D01*
G01*
X171560000Y-101310000D01*
G75*
G02*
X171420000Y-101450000I-140000J0D01*
G01*
X171080000Y-101450000D01*
G75*
G02*
X170940000Y-101310000I0J140000D01*
G01*
X170940000Y-101030000D01*
G75*
G02*
X171080000Y-100890000I140000J0D01*
G01*
G37*
G36*
G01*
X171080000Y-101850000D02*
X171420000Y-101850000D01*
G75*
G02*
X171560000Y-101990000I0J-140000D01*
G01*
X171560000Y-102270000D01*
G75*
G02*
X171420000Y-102410000I-140000J0D01*
G01*
X171080000Y-102410000D01*
G75*
G02*
X170940000Y-102270000I0J140000D01*
G01*
X170940000Y-101990000D01*
G75*
G02*
X171080000Y-101850000I140000J0D01*
G01*
G37*
D14*
X139950000Y-91800000D03*
X139950000Y-89000000D03*
D13*
X154100000Y-89200000D03*
G36*
G01*
X153325000Y-92950000D02*
X153325000Y-92050000D01*
G75*
G02*
X153575000Y-91800000I250000J0D01*
G01*
X154100000Y-91800000D01*
G75*
G02*
X154350000Y-92050000I0J-250000D01*
G01*
X154350000Y-92950000D01*
G75*
G02*
X154100000Y-93200000I-250000J0D01*
G01*
X153575000Y-93200000D01*
G75*
G02*
X153325000Y-92950000I0J250000D01*
G01*
G37*
G36*
G01*
X155150000Y-92950000D02*
X155150000Y-92050000D01*
G75*
G02*
X155400000Y-91800000I250000J0D01*
G01*
X155925000Y-91800000D01*
G75*
G02*
X156175000Y-92050000I0J-250000D01*
G01*
X156175000Y-92950000D01*
G75*
G02*
X155925000Y-93200000I-250000J0D01*
G01*
X155400000Y-93200000D01*
G75*
G02*
X155150000Y-92950000I0J250000D01*
G01*
G37*
G36*
G01*
X156780000Y-91990000D02*
X157120000Y-91990000D01*
G75*
G02*
X157260000Y-92130000I0J-140000D01*
G01*
X157260000Y-92410000D01*
G75*
G02*
X157120000Y-92550000I-140000J0D01*
G01*
X156780000Y-92550000D01*
G75*
G02*
X156640000Y-92410000I0J140000D01*
G01*
X156640000Y-92130000D01*
G75*
G02*
X156780000Y-91990000I140000J0D01*
G01*
G37*
G36*
G01*
X156780000Y-92950000D02*
X157120000Y-92950000D01*
G75*
G02*
X157260000Y-93090000I0J-140000D01*
G01*
X157260000Y-93370000D01*
G75*
G02*
X157120000Y-93510000I-140000J0D01*
G01*
X156780000Y-93510000D01*
G75*
G02*
X156640000Y-93370000I0J140000D01*
G01*
X156640000Y-93090000D01*
G75*
G02*
X156780000Y-92950000I140000J0D01*
G01*
G37*
G36*
G01*
X167785000Y-91470000D02*
X167415000Y-91470000D01*
G75*
G02*
X167280000Y-91335000I0J135000D01*
G01*
X167280000Y-91065000D01*
G75*
G02*
X167415000Y-90930000I135000J0D01*
G01*
X167785000Y-90930000D01*
G75*
G02*
X167920000Y-91065000I0J-135000D01*
G01*
X167920000Y-91335000D01*
G75*
G02*
X167785000Y-91470000I-135000J0D01*
G01*
G37*
G36*
G01*
X167785000Y-90450000D02*
X167415000Y-90450000D01*
G75*
G02*
X167280000Y-90315000I0J135000D01*
G01*
X167280000Y-90045000D01*
G75*
G02*
X167415000Y-89910000I135000J0D01*
G01*
X167785000Y-89910000D01*
G75*
G02*
X167920000Y-90045000I0J-135000D01*
G01*
X167920000Y-90315000D01*
G75*
G02*
X167785000Y-90450000I-135000J0D01*
G01*
G37*
G36*
G01*
X169880000Y-90965000D02*
X169880000Y-91335000D01*
G75*
G02*
X169745000Y-91470000I-135000J0D01*
G01*
X169475000Y-91470000D01*
G75*
G02*
X169340000Y-91335000I0J135000D01*
G01*
X169340000Y-90965000D01*
G75*
G02*
X169475000Y-90830000I135000J0D01*
G01*
X169745000Y-90830000D01*
G75*
G02*
X169880000Y-90965000I0J-135000D01*
G01*
G37*
G36*
G01*
X168860000Y-90965000D02*
X168860000Y-91335000D01*
G75*
G02*
X168725000Y-91470000I-135000J0D01*
G01*
X168455000Y-91470000D01*
G75*
G02*
X168320000Y-91335000I0J135000D01*
G01*
X168320000Y-90965000D01*
G75*
G02*
X168455000Y-90830000I135000J0D01*
G01*
X168725000Y-90830000D01*
G75*
G02*
X168860000Y-90965000I0J-135000D01*
G01*
G37*
D15*
X164135000Y-97250000D03*
X161765000Y-97250000D03*
G36*
G01*
X171420000Y-96060000D02*
X171080000Y-96060000D01*
G75*
G02*
X170940000Y-95920000I0J140000D01*
G01*
X170940000Y-95640000D01*
G75*
G02*
X171080000Y-95500000I140000J0D01*
G01*
X171420000Y-95500000D01*
G75*
G02*
X171560000Y-95640000I0J-140000D01*
G01*
X171560000Y-95920000D01*
G75*
G02*
X171420000Y-96060000I-140000J0D01*
G01*
G37*
G36*
G01*
X171420000Y-95100000D02*
X171080000Y-95100000D01*
G75*
G02*
X170940000Y-94960000I0J140000D01*
G01*
X170940000Y-94680000D01*
G75*
G02*
X171080000Y-94540000I140000J0D01*
G01*
X171420000Y-94540000D01*
G75*
G02*
X171560000Y-94680000I0J-140000D01*
G01*
X171560000Y-94960000D01*
G75*
G02*
X171420000Y-95100000I-140000J0D01*
G01*
G37*
G36*
G01*
X140760000Y-96830000D02*
X140760000Y-97170000D01*
G75*
G02*
X140620000Y-97310000I-140000J0D01*
G01*
X140340000Y-97310000D01*
G75*
G02*
X140200000Y-97170000I0J140000D01*
G01*
X140200000Y-96830000D01*
G75*
G02*
X140340000Y-96690000I140000J0D01*
G01*
X140620000Y-96690000D01*
G75*
G02*
X140760000Y-96830000I0J-140000D01*
G01*
G37*
G36*
G01*
X139800000Y-96830000D02*
X139800000Y-97170000D01*
G75*
G02*
X139660000Y-97310000I-140000J0D01*
G01*
X139380000Y-97310000D01*
G75*
G02*
X139240000Y-97170000I0J140000D01*
G01*
X139240000Y-96830000D01*
G75*
G02*
X139380000Y-96690000I140000J0D01*
G01*
X139660000Y-96690000D01*
G75*
G02*
X139800000Y-96830000I0J-140000D01*
G01*
G37*
D13*
X156300000Y-89200000D03*
D14*
X137550000Y-91800000D03*
X137550000Y-89000000D03*
G36*
G01*
X146385100Y-97070000D02*
X145789900Y-97070000D01*
G75*
G02*
X145787500Y-97067600I0J2400D01*
G01*
X145787500Y-96832400D01*
G75*
G02*
X145789900Y-96830000I2400J0D01*
G01*
X146385100Y-96830000D01*
G75*
G02*
X146387500Y-96832400I0J-2400D01*
G01*
X146387500Y-97067600D01*
G75*
G02*
X146385100Y-97070000I-2400J0D01*
G01*
G37*
G36*
G01*
X145805100Y-98150000D02*
X145569900Y-98150000D01*
G75*
G02*
X145567500Y-98147600I0J2400D01*
G01*
X145567500Y-97552400D01*
G75*
G02*
X145569900Y-97550000I2400J0D01*
G01*
X145805100Y-97550000D01*
G75*
G02*
X145807500Y-97552400I0J-2400D01*
G01*
X145807500Y-98147600D01*
G75*
G02*
X145805100Y-98150000I-2400J0D01*
G01*
G37*
G36*
G01*
X145305100Y-98150000D02*
X145069900Y-98150000D01*
G75*
G02*
X145067500Y-98147600I0J2400D01*
G01*
X145067500Y-97552400D01*
G75*
G02*
X145069900Y-97550000I2400J0D01*
G01*
X145305100Y-97550000D01*
G75*
G02*
X145307500Y-97552400I0J-2400D01*
G01*
X145307500Y-98147600D01*
G75*
G02*
X145305100Y-98150000I-2400J0D01*
G01*
G37*
G36*
G01*
X144805100Y-98150000D02*
X144569900Y-98150000D01*
G75*
G02*
X144567500Y-98147600I0J2400D01*
G01*
X144567500Y-97552400D01*
G75*
G02*
X144569900Y-97550000I2400J0D01*
G01*
X144805100Y-97550000D01*
G75*
G02*
X144807500Y-97552400I0J-2400D01*
G01*
X144807500Y-98147600D01*
G75*
G02*
X144805100Y-98150000I-2400J0D01*
G01*
G37*
G36*
G01*
X144305100Y-98150000D02*
X144069900Y-98150000D01*
G75*
G02*
X144067500Y-98147600I0J2400D01*
G01*
X144067500Y-97552400D01*
G75*
G02*
X144069900Y-97550000I2400J0D01*
G01*
X144305100Y-97550000D01*
G75*
G02*
X144307500Y-97552400I0J-2400D01*
G01*
X144307500Y-98147600D01*
G75*
G02*
X144305100Y-98150000I-2400J0D01*
G01*
G37*
G36*
G01*
X143805100Y-98150000D02*
X143569900Y-98150000D01*
G75*
G02*
X143567500Y-98147600I0J2400D01*
G01*
X143567500Y-97552400D01*
G75*
G02*
X143569900Y-97550000I2400J0D01*
G01*
X143805100Y-97550000D01*
G75*
G02*
X143807500Y-97552400I0J-2400D01*
G01*
X143807500Y-98147600D01*
G75*
G02*
X143805100Y-98150000I-2400J0D01*
G01*
G37*
G36*
G01*
X143305100Y-98150000D02*
X143069900Y-98150000D01*
G75*
G02*
X143067500Y-98147600I0J2400D01*
G01*
X143067500Y-97552400D01*
G75*
G02*
X143069900Y-97550000I2400J0D01*
G01*
X143305100Y-97550000D01*
G75*
G02*
X143307500Y-97552400I0J-2400D01*
G01*
X143307500Y-98147600D01*
G75*
G02*
X143305100Y-98150000I-2400J0D01*
G01*
G37*
G36*
G01*
X142805100Y-98150000D02*
X142569900Y-98150000D01*
G75*
G02*
X142567500Y-98147600I0J2400D01*
G01*
X142567500Y-97552400D01*
G75*
G02*
X142569900Y-97550000I2400J0D01*
G01*
X142805100Y-97550000D01*
G75*
G02*
X142807500Y-97552400I0J-2400D01*
G01*
X142807500Y-98147600D01*
G75*
G02*
X142805100Y-98150000I-2400J0D01*
G01*
G37*
G36*
G01*
X142305100Y-98150000D02*
X142069900Y-98150000D01*
G75*
G02*
X142067500Y-98147600I0J2400D01*
G01*
X142067500Y-97552400D01*
G75*
G02*
X142069900Y-97550000I2400J0D01*
G01*
X142305100Y-97550000D01*
G75*
G02*
X142307500Y-97552400I0J-2400D01*
G01*
X142307500Y-98147600D01*
G75*
G02*
X142305100Y-98150000I-2400J0D01*
G01*
G37*
G36*
G01*
X142085100Y-97070000D02*
X141489900Y-97070000D01*
G75*
G02*
X141487500Y-97067600I0J2400D01*
G01*
X141487500Y-96832400D01*
G75*
G02*
X141489900Y-96830000I2400J0D01*
G01*
X142085100Y-96830000D01*
G75*
G02*
X142087500Y-96832400I0J-2400D01*
G01*
X142087500Y-97067600D01*
G75*
G02*
X142085100Y-97070000I-2400J0D01*
G01*
G37*
G36*
G01*
X142085100Y-95570000D02*
X141489900Y-95570000D01*
G75*
G02*
X141487500Y-95567600I0J2400D01*
G01*
X141487500Y-95332400D01*
G75*
G02*
X141489900Y-95330000I2400J0D01*
G01*
X142085100Y-95330000D01*
G75*
G02*
X142087500Y-95332400I0J-2400D01*
G01*
X142087500Y-95567600D01*
G75*
G02*
X142085100Y-95570000I-2400J0D01*
G01*
G37*
G36*
G01*
X142305100Y-94850000D02*
X142069900Y-94850000D01*
G75*
G02*
X142067500Y-94847600I0J2400D01*
G01*
X142067500Y-94252400D01*
G75*
G02*
X142069900Y-94250000I2400J0D01*
G01*
X142305100Y-94250000D01*
G75*
G02*
X142307500Y-94252400I0J-2400D01*
G01*
X142307500Y-94847600D01*
G75*
G02*
X142305100Y-94850000I-2400J0D01*
G01*
G37*
G36*
G01*
X142805100Y-94850000D02*
X142569900Y-94850000D01*
G75*
G02*
X142567500Y-94847600I0J2400D01*
G01*
X142567500Y-94252400D01*
G75*
G02*
X142569900Y-94250000I2400J0D01*
G01*
X142805100Y-94250000D01*
G75*
G02*
X142807500Y-94252400I0J-2400D01*
G01*
X142807500Y-94847600D01*
G75*
G02*
X142805100Y-94850000I-2400J0D01*
G01*
G37*
G36*
G01*
X143305100Y-94850000D02*
X143069900Y-94850000D01*
G75*
G02*
X143067500Y-94847600I0J2400D01*
G01*
X143067500Y-94252400D01*
G75*
G02*
X143069900Y-94250000I2400J0D01*
G01*
X143305100Y-94250000D01*
G75*
G02*
X143307500Y-94252400I0J-2400D01*
G01*
X143307500Y-94847600D01*
G75*
G02*
X143305100Y-94850000I-2400J0D01*
G01*
G37*
G36*
G01*
X143805100Y-94850000D02*
X143569900Y-94850000D01*
G75*
G02*
X143567500Y-94847600I0J2400D01*
G01*
X143567500Y-94252400D01*
G75*
G02*
X143569900Y-94250000I2400J0D01*
G01*
X143805100Y-94250000D01*
G75*
G02*
X143807500Y-94252400I0J-2400D01*
G01*
X143807500Y-94847600D01*
G75*
G02*
X143805100Y-94850000I-2400J0D01*
G01*
G37*
G36*
G01*
X144305100Y-94850000D02*
X144069900Y-94850000D01*
G75*
G02*
X144067500Y-94847600I0J2400D01*
G01*
X144067500Y-94252400D01*
G75*
G02*
X144069900Y-94250000I2400J0D01*
G01*
X144305100Y-94250000D01*
G75*
G02*
X144307500Y-94252400I0J-2400D01*
G01*
X144307500Y-94847600D01*
G75*
G02*
X144305100Y-94850000I-2400J0D01*
G01*
G37*
G36*
G01*
X144805100Y-94850000D02*
X144569900Y-94850000D01*
G75*
G02*
X144567500Y-94847600I0J2400D01*
G01*
X144567500Y-94252400D01*
G75*
G02*
X144569900Y-94250000I2400J0D01*
G01*
X144805100Y-94250000D01*
G75*
G02*
X144807500Y-94252400I0J-2400D01*
G01*
X144807500Y-94847600D01*
G75*
G02*
X144805100Y-94850000I-2400J0D01*
G01*
G37*
G36*
G01*
X145305100Y-94850000D02*
X145069900Y-94850000D01*
G75*
G02*
X145067500Y-94847600I0J2400D01*
G01*
X145067500Y-94252400D01*
G75*
G02*
X145069900Y-94250000I2400J0D01*
G01*
X145305100Y-94250000D01*
G75*
G02*
X145307500Y-94252400I0J-2400D01*
G01*
X145307500Y-94847600D01*
G75*
G02*
X145305100Y-94850000I-2400J0D01*
G01*
G37*
G36*
G01*
X145805100Y-94850000D02*
X145569900Y-94850000D01*
G75*
G02*
X145567500Y-94847600I0J2400D01*
G01*
X145567500Y-94252400D01*
G75*
G02*
X145569900Y-94250000I2400J0D01*
G01*
X145805100Y-94250000D01*
G75*
G02*
X145807500Y-94252400I0J-2400D01*
G01*
X145807500Y-94847600D01*
G75*
G02*
X145805100Y-94850000I-2400J0D01*
G01*
G37*
G36*
G01*
X146385100Y-95570000D02*
X145789900Y-95570000D01*
G75*
G02*
X145787500Y-95567600I0J2400D01*
G01*
X145787500Y-95332400D01*
G75*
G02*
X145789900Y-95330000I2400J0D01*
G01*
X146385100Y-95330000D01*
G75*
G02*
X146387500Y-95332400I0J-2400D01*
G01*
X146387500Y-95567600D01*
G75*
G02*
X146385100Y-95570000I-2400J0D01*
G01*
G37*
D16*
X143937500Y-96200000D03*
G36*
G01*
X158000000Y-91975000D02*
X158500000Y-91975000D01*
G75*
G02*
X158725000Y-92200000I0J-225000D01*
G01*
X158725000Y-92650000D01*
G75*
G02*
X158500000Y-92875000I-225000J0D01*
G01*
X158000000Y-92875000D01*
G75*
G02*
X157775000Y-92650000I0J225000D01*
G01*
X157775000Y-92200000D01*
G75*
G02*
X158000000Y-91975000I225000J0D01*
G01*
G37*
G36*
G01*
X158000000Y-93525000D02*
X158500000Y-93525000D01*
G75*
G02*
X158725000Y-93750000I0J-225000D01*
G01*
X158725000Y-94200000D01*
G75*
G02*
X158500000Y-94425000I-225000J0D01*
G01*
X158000000Y-94425000D01*
G75*
G02*
X157775000Y-94200000I0J225000D01*
G01*
X157775000Y-93750000D01*
G75*
G02*
X158000000Y-93525000I225000J0D01*
G01*
G37*
D11*
X137510000Y-85800000D03*
X140050000Y-82880000D03*
X142590000Y-85800000D03*
X145130000Y-82880000D03*
X147670000Y-85800000D03*
X150210000Y-82880000D03*
X152750000Y-85800000D03*
X155290000Y-82880000D03*
X157830000Y-85800000D03*
X160370000Y-82880000D03*
X162910000Y-85800000D03*
X165450000Y-82880000D03*
G36*
G01*
X169050000Y-91975000D02*
X169550000Y-91975000D01*
G75*
G02*
X169775000Y-92200000I0J-225000D01*
G01*
X169775000Y-92650000D01*
G75*
G02*
X169550000Y-92875000I-225000J0D01*
G01*
X169050000Y-92875000D01*
G75*
G02*
X168825000Y-92650000I0J225000D01*
G01*
X168825000Y-92200000D01*
G75*
G02*
X169050000Y-91975000I225000J0D01*
G01*
G37*
G36*
G01*
X169050000Y-93525000D02*
X169550000Y-93525000D01*
G75*
G02*
X169775000Y-93750000I0J-225000D01*
G01*
X169775000Y-94200000D01*
G75*
G02*
X169550000Y-94425000I-225000J0D01*
G01*
X169050000Y-94425000D01*
G75*
G02*
X168825000Y-94200000I0J225000D01*
G01*
X168825000Y-93750000D01*
G75*
G02*
X169050000Y-93525000I225000J0D01*
G01*
G37*
D13*
X152908000Y-101447600D03*
X150600000Y-88900000D03*
G36*
G01*
X168120000Y-100160000D02*
X167780000Y-100160000D01*
G75*
G02*
X167640000Y-100020000I0J140000D01*
G01*
X167640000Y-99740000D01*
G75*
G02*
X167780000Y-99600000I140000J0D01*
G01*
X168120000Y-99600000D01*
G75*
G02*
X168260000Y-99740000I0J-140000D01*
G01*
X168260000Y-100020000D01*
G75*
G02*
X168120000Y-100160000I-140000J0D01*
G01*
G37*
G36*
G01*
X168120000Y-99200000D02*
X167780000Y-99200000D01*
G75*
G02*
X167640000Y-99060000I0J140000D01*
G01*
X167640000Y-98780000D01*
G75*
G02*
X167780000Y-98640000I140000J0D01*
G01*
X168120000Y-98640000D01*
G75*
G02*
X168260000Y-98780000I0J-140000D01*
G01*
X168260000Y-99060000D01*
G75*
G02*
X168120000Y-99200000I-140000J0D01*
G01*
G37*
G36*
G01*
X165240000Y-90070000D02*
X165240000Y-89730000D01*
G75*
G02*
X165380000Y-89590000I140000J0D01*
G01*
X165660000Y-89590000D01*
G75*
G02*
X165800000Y-89730000I0J-140000D01*
G01*
X165800000Y-90070000D01*
G75*
G02*
X165660000Y-90210000I-140000J0D01*
G01*
X165380000Y-90210000D01*
G75*
G02*
X165240000Y-90070000I0J140000D01*
G01*
G37*
G36*
G01*
X166200000Y-90070000D02*
X166200000Y-89730000D01*
G75*
G02*
X166340000Y-89590000I140000J0D01*
G01*
X166620000Y-89590000D01*
G75*
G02*
X166760000Y-89730000I0J-140000D01*
G01*
X166760000Y-90070000D01*
G75*
G02*
X166620000Y-90210000I-140000J0D01*
G01*
X166340000Y-90210000D01*
G75*
G02*
X166200000Y-90070000I0J140000D01*
G01*
G37*
X159700000Y-89300000D03*
X148100000Y-96000000D03*
M02*
