M48
; DRILL file {KiCad 6.0.10+dfsg-1~bpo11+1} date Tue Feb 14 07:13:26 2023
; FORMAT={-:-/ absolute / inch / decimal}
; #@! TF.CreationDate,2023-02-14T07:13:26+00:00
; #@! TF.GenerationSoftware,Kicad,Pcbnew,6.0.10+dfsg-1~bpo11+1
; #@! TF.FileFunction,Plated,1,2,PTH
FMAT,2
INCH
; #@! TA.AperFunction,Plated,PTH,ViaDrill
T1C0.0157
%
G90
G05
T1
X4.911Y-4.1433
X4.9331Y-3.4961
X4.962Y-4.031
X5.03Y-3.999
X5.0394Y-3.2323
X5.077Y-4.213
X5.1654Y-3.2323
X5.187Y-4.051
X5.213Y-4.01
X5.235Y-3.957
X5.2406Y-4.0705
X5.2953Y-3.5079
X5.3445Y-3.9065
X5.345Y-3.959
X5.3583Y-3.5591
X5.4291Y-4.0118
X5.437Y-3.7638
X5.5039Y-3.6929
X5.5039Y-3.9685
X5.5236Y-3.8858
X5.5655Y-3.6643
X5.5665Y-3.9843
X5.594Y-4.031
X5.6215Y-3.9324
X5.6299Y-3.2677
X5.6437Y-4.0669
X5.645Y-3.964
X5.7297Y-3.6437
X5.7565Y-3.4331
X5.7678Y-3.8448
X5.7687Y-3.6495
X5.7728Y-3.9242
X5.8071Y-3.2244
X5.8248Y-4.0689
X5.8297Y-3.9675
X5.8465Y-3.5039
X5.8657Y-3.9517
X5.8701Y-3.8809
X5.899Y-3.377
X5.9244Y-3.7646
X5.933Y-3.655
X5.974Y-3.656
X5.9764Y-4.0669
X5.9803Y-3.9232
X5.9823Y-3.5256
X5.9843Y-3.2323
X6.049Y-3.203
X6.065Y-3.3484
X6.075Y-3.921
X6.1105Y-3.3743
X6.113Y-4.179
X6.148Y-3.753
X6.154Y-3.36
X6.1744Y-3.9653
X6.195Y-3.754
X6.2126Y-3.2244
X6.241Y-3.756
X6.2441Y-3.9648
X6.262Y-3.592
X6.287Y-3.757
X6.341Y-3.493
X6.3445Y-4.2224
X6.348Y-3.427
X6.39Y-3.501
X6.4094Y-3.2244
X6.444Y-3.505
X6.4567Y-3.939
X6.4764Y-3.4173
X6.616Y-3.76
X6.626Y-3.2441
X6.626Y-3.2913
X6.6417Y-4.0413
X6.6654Y-3.185
X6.6654Y-3.5157
X6.7953Y-4.1988
X6.834Y-3.69
X6.866Y-3.646
T0
M30
