M48
; DRILL file {KiCad 6.0.10+dfsg-1~bpo11+1} date Fri Feb  3 04:09:12 2023
; FORMAT={-:-/ absolute / inch / decimal}
; #@! TF.CreationDate,2023-02-03T04:09:12+00:00
; #@! TF.GenerationSoftware,Kicad,Pcbnew,6.0.10+dfsg-1~bpo11+1
; #@! TF.FileFunction,Plated,1,2,PTH
FMAT,2
INCH
; #@! TA.AperFunction,Plated,PTH,ViaDrill
T1C0.0157
%
G90
G05
T1
X4.929Y-4.139
X4.9331Y-3.4961
X4.962Y-4.031
X5.03Y-3.999
X5.077Y-4.213
X5.187Y-4.051
X5.213Y-4.01
X5.235Y-3.957
X5.3445Y-3.9065
X5.345Y-3.959
X5.4291Y-4.0118
X5.472Y-3.675
X5.565Y-3.866
X5.5664Y-3.9407
X5.594Y-4.031
X5.6305Y-3.9065
X5.6437Y-4.0669
X5.645Y-3.964
X5.7262Y-3.9292
X5.7297Y-3.6545
X5.7487Y-3.7115
X5.784Y-3.9073
X5.785Y-3.834
X5.8248Y-4.0689
X5.8272Y-3.9701
X5.8366Y-3.2342
X5.866Y-3.49
X5.8661Y-3.9311
X5.8937Y-4.1998
X5.899Y-3.377
X5.933Y-3.655
X5.974Y-3.656
X5.9764Y-4.0669
X5.9803Y-3.9232
X5.9823Y-3.5256
X6.065Y-3.3484
X6.075Y-3.921
X6.1105Y-3.3743
X6.113Y-4.179
X6.148Y-3.753
X6.154Y-3.36
X6.195Y-3.754
X6.241Y-3.756
X6.262Y-3.592
X6.287Y-3.757
X6.341Y-3.493
X6.3445Y-4.2224
X6.348Y-3.427
X6.39Y-3.501
X6.444Y-3.505
X6.4567Y-3.939
X6.616Y-3.76
X6.6417Y-4.0413
X6.7953Y-4.1988
X6.834Y-3.69
X6.866Y-3.646
T0
M30
