G04 #@! TF.GenerationSoftware,KiCad,Pcbnew,6.0.10+dfsg-1~bpo11+1*
G04 #@! TF.CreationDate,2023-02-14T07:13:26+00:00*
G04 #@! TF.ProjectId,cellular-featherwing-pcb,63656c6c-756c-4617-922d-666561746865,rev?*
G04 #@! TF.SameCoordinates,Original*
G04 #@! TF.FileFunction,Legend,Top*
G04 #@! TF.FilePolarity,Positive*
%FSLAX46Y46*%
G04 Gerber Fmt 4.6, Leading zero omitted, Abs format (unit mm)*
G04 Created by KiCad (PCBNEW 6.0.10+dfsg-1~bpo11+1) date 2023-02-14 07:13:26*
%MOMM*%
%LPD*%
G01*
G04 APERTURE LIST*
%ADD10C,0.150000*%
%ADD11C,0.120000*%
%ADD12C,0.127000*%
%ADD13C,0.200000*%
%ADD14C,0.240000*%
%ADD15C,0.100000*%
%ADD16C,0.010000*%
%ADD17C,1.000000*%
%ADD18R,0.700000X1.150000*%
%ADD19R,1.150000X0.700000*%
%ADD20R,1.000000X1.000000*%
%ADD21R,1.000000X1.050000*%
%ADD22R,1.050000X2.200000*%
%ADD23R,0.900000X1.200000*%
%ADD24R,1.300000X1.800000*%
%ADD25R,0.355600X0.762000*%
G04 APERTURE END LIST*
D10*
X140452380Y-97538095D02*
X140452380Y-96966666D01*
X141452380Y-97252380D02*
X140452380Y-97252380D01*
X141452380Y-96633333D02*
X140452380Y-96633333D01*
X140452380Y-96252380D01*
X140500000Y-96157142D01*
X140547619Y-96109523D01*
X140642857Y-96061904D01*
X140785714Y-96061904D01*
X140880952Y-96109523D01*
X140928571Y-96157142D01*
X140976190Y-96252380D01*
X140976190Y-96633333D01*
X141452380Y-95109523D02*
X141452380Y-95680952D01*
X141452380Y-95395238D02*
X140452380Y-95395238D01*
X140595238Y-95490476D01*
X140690476Y-95585714D01*
X140738095Y-95680952D01*
X140785714Y-94252380D02*
X141452380Y-94252380D01*
X140404761Y-94490476D02*
X141119047Y-94728571D01*
X141119047Y-94109523D01*
X168961175Y-83767110D02*
X169533555Y-83767110D01*
X169648031Y-83805268D01*
X169724348Y-83881586D01*
X169762506Y-83996062D01*
X169762506Y-84072379D01*
X169228286Y-83042096D02*
X169762506Y-83042096D01*
X168923017Y-83232889D02*
X169495396Y-83423682D01*
X169495396Y-82927620D01*
X139852380Y-85188095D02*
X139852380Y-84616666D01*
X140852380Y-84902380D02*
X139852380Y-84902380D01*
X140852380Y-84283333D02*
X139852380Y-84283333D01*
X139852380Y-83902380D01*
X139900000Y-83807142D01*
X139947619Y-83759523D01*
X140042857Y-83711904D01*
X140185714Y-83711904D01*
X140280952Y-83759523D01*
X140328571Y-83807142D01*
X140376190Y-83902380D01*
X140376190Y-84283333D01*
X140852380Y-82759523D02*
X140852380Y-83330952D01*
X140852380Y-83045238D02*
X139852380Y-83045238D01*
X139995238Y-83140476D01*
X140090476Y-83235714D01*
X140138095Y-83330952D01*
X139852380Y-81854761D02*
X139852380Y-82330952D01*
X140328571Y-82378571D01*
X140280952Y-82330952D01*
X140233333Y-82235714D01*
X140233333Y-81997619D01*
X140280952Y-81902380D01*
X140328571Y-81854761D01*
X140423809Y-81807142D01*
X140661904Y-81807142D01*
X140757142Y-81854761D01*
X140804761Y-81902380D01*
X140852380Y-81997619D01*
X140852380Y-82235714D01*
X140804761Y-82330952D01*
X140757142Y-82378571D01*
D11*
X140950000Y-91100000D02*
G75*
G03*
X140950000Y-91100000I-700000J0D01*
G01*
X141900000Y-81300000D02*
X167750000Y-81300000D01*
X168700000Y-82250000D02*
X168700000Y-104100000D01*
X168700000Y-104100000D02*
X141900000Y-104100000D01*
X167750000Y-81300000D02*
X168700000Y-82250000D01*
X165450000Y-81000000D02*
X164600000Y-81000000D01*
X141900000Y-104100000D02*
X141900000Y-81300000D01*
X127626359Y-105620000D02*
X127933641Y-105620000D01*
X127626359Y-104860000D02*
X127933641Y-104860000D01*
X148660000Y-105392164D02*
X148660000Y-105607836D01*
X147940000Y-105392164D02*
X147940000Y-105607836D01*
X171060000Y-98942164D02*
X171060000Y-99157836D01*
X170340000Y-98942164D02*
X170340000Y-99157836D01*
X168990000Y-87822164D02*
X168990000Y-88037836D01*
X169710000Y-87822164D02*
X169710000Y-88037836D01*
X170953641Y-87830000D02*
X170646359Y-87830000D01*
X170953641Y-87070000D02*
X170646359Y-87070000D01*
X172610000Y-87822164D02*
X172610000Y-88037836D01*
X171890000Y-87822164D02*
X171890000Y-88037836D01*
D12*
X170950000Y-82142500D02*
X173550000Y-82142500D01*
X173000000Y-84982500D02*
X173550000Y-84982500D01*
X170950000Y-84982500D02*
X171500000Y-84982500D01*
D10*
X172325000Y-86062500D02*
G75*
G03*
X172325000Y-86062500I-75000J0D01*
G01*
D11*
X151572936Y-106835000D02*
X152027064Y-106835000D01*
X151572936Y-105365000D02*
X152027064Y-105365000D01*
X146940000Y-105392164D02*
X146940000Y-105607836D01*
X147660000Y-105392164D02*
X147660000Y-105607836D01*
X140900000Y-86400000D02*
G75*
G03*
X140900000Y-86400000I-700000J0D01*
G01*
X131400000Y-104793641D02*
X131400000Y-104486359D01*
X132160000Y-104793641D02*
X132160000Y-104486359D01*
X133440000Y-99132164D02*
X133440000Y-99347836D01*
X132720000Y-99132164D02*
X132720000Y-99347836D01*
D13*
X127136000Y-97400000D02*
X125600000Y-97400000D01*
X136800000Y-97400000D02*
X135264000Y-97400000D01*
X136200000Y-83400000D02*
X126200000Y-83400000D01*
X136800000Y-91797000D02*
X136800000Y-85701000D01*
X136800000Y-94464000D02*
X136800000Y-97400000D01*
X125600000Y-97400000D02*
X125600000Y-94464000D01*
X125600000Y-85701000D02*
X125600000Y-91797000D01*
D14*
X135587000Y-98045000D02*
G75*
G03*
X135587000Y-98045000I-120000J0D01*
G01*
D11*
X174235000Y-96077064D02*
X174235000Y-95622936D01*
X172765000Y-96077064D02*
X172765000Y-95622936D01*
X171627100Y-89891200D02*
X171210540Y-89891200D01*
X171627100Y-90521725D02*
X171627100Y-89891200D01*
X170189460Y-89891200D02*
X169772900Y-89891200D01*
X169772900Y-89891200D02*
X169772900Y-90521725D01*
X168756900Y-91300900D02*
G75*
G03*
X168756900Y-91300900I-127000J0D01*
G01*
X172710000Y-90542164D02*
X172710000Y-90757836D01*
X171990000Y-90542164D02*
X171990000Y-90757836D01*
D15*
X173875000Y-86462500D02*
G75*
G03*
X173875000Y-86462500I-50000J0D01*
G01*
D11*
X149660000Y-105392164D02*
X149660000Y-105607836D01*
X148940000Y-105392164D02*
X148940000Y-105607836D01*
X134020000Y-99132164D02*
X134020000Y-99347836D01*
X134740000Y-99132164D02*
X134740000Y-99347836D01*
X172110000Y-97710000D02*
X172110000Y-93500000D01*
X169090000Y-93500000D02*
X169090000Y-97710000D01*
X169090000Y-97710000D02*
X172110000Y-97710000D01*
X128500000Y-102593641D02*
X128500000Y-102286359D01*
X129260000Y-102593641D02*
X129260000Y-102286359D01*
X174385000Y-88865000D02*
X172915000Y-88865000D01*
X172915000Y-88865000D02*
X172915000Y-91150000D01*
X174385000Y-91150000D02*
X174385000Y-88865000D01*
X169860000Y-98942164D02*
X169860000Y-99157836D01*
X169140000Y-98942164D02*
X169140000Y-99157836D01*
X128240000Y-99632164D02*
X128240000Y-99847836D01*
X127520000Y-99632164D02*
X127520000Y-99847836D01*
X172260000Y-98942164D02*
X172260000Y-99157836D01*
X171540000Y-98942164D02*
X171540000Y-99157836D01*
X129810000Y-101140000D02*
G75*
G03*
X129810000Y-101140000I-10000J0D01*
G01*
X129240000Y-99632164D02*
X129240000Y-99847836D01*
X128520000Y-99632164D02*
X128520000Y-99847836D01*
X135000000Y-104393641D02*
X135000000Y-104086359D01*
X135760000Y-104393641D02*
X135760000Y-104086359D01*
X146660000Y-107410000D02*
X146660000Y-104390000D01*
X142450000Y-107410000D02*
X146660000Y-107410000D01*
X146660000Y-104390000D02*
X142450000Y-104390000D01*
%LPC*%
G36*
X130775000Y-101140700D02*
G01*
X130324564Y-101140700D01*
X130324564Y-100240000D01*
X130775000Y-100240000D01*
X130775000Y-101140700D01*
G37*
D16*
X130775000Y-101140700D02*
X130324564Y-101140700D01*
X130324564Y-100240000D01*
X130775000Y-100240000D01*
X130775000Y-101140700D01*
G36*
X132075000Y-99239692D02*
G01*
X131625262Y-99239692D01*
X131625262Y-98340000D01*
X132075000Y-98340000D01*
X132075000Y-99239692D01*
G37*
X132075000Y-99239692D02*
X131625262Y-99239692D01*
X131625262Y-98340000D01*
X132075000Y-98340000D01*
X132075000Y-99239692D01*
G36*
X131425000Y-99239435D02*
G01*
X130974746Y-99239435D01*
X130974746Y-98340000D01*
X131425000Y-98340000D01*
X131425000Y-99239435D01*
G37*
X131425000Y-99239435D02*
X130974746Y-99239435D01*
X130974746Y-98340000D01*
X131425000Y-98340000D01*
X131425000Y-99239435D01*
G36*
X132075000Y-101141810D02*
G01*
X131625551Y-101141810D01*
X131625551Y-100240000D01*
X132075000Y-100240000D01*
X132075000Y-101141810D01*
G37*
X132075000Y-101141810D02*
X131625551Y-101141810D01*
X131625551Y-100240000D01*
X132075000Y-100240000D01*
X132075000Y-101141810D01*
G36*
X131425000Y-101140820D02*
G01*
X130974869Y-101140820D01*
X130974869Y-100240000D01*
X131425000Y-100240000D01*
X131425000Y-101140820D01*
G37*
X131425000Y-101140820D02*
X130974869Y-101140820D01*
X130974869Y-100240000D01*
X131425000Y-100240000D01*
X131425000Y-101140820D01*
G36*
X130775000Y-99239917D02*
G01*
X130324855Y-99239917D01*
X130324855Y-98340000D01*
X130775000Y-98340000D01*
X130775000Y-99239917D01*
G37*
X130775000Y-99239917D02*
X130324855Y-99239917D01*
X130324855Y-98340000D01*
X130775000Y-98340000D01*
X130775000Y-99239917D01*
D17*
X140250000Y-91100000D03*
D18*
X165000000Y-83520000D03*
X163900000Y-83520000D03*
X162800000Y-83520000D03*
X161700000Y-83520000D03*
X160600000Y-83520000D03*
X159500000Y-83520000D03*
X158400000Y-83520000D03*
X157300000Y-83520000D03*
X156200000Y-83520000D03*
X155100000Y-83520000D03*
X153400000Y-83520000D03*
X152300000Y-83520000D03*
X151200000Y-83520000D03*
X150100000Y-83520000D03*
X149000000Y-83520000D03*
X147900000Y-83520000D03*
X146800000Y-83520000D03*
X145700000Y-83520000D03*
D19*
X144270000Y-85250000D03*
X144270000Y-86350000D03*
X144270000Y-87450000D03*
X144270000Y-88550000D03*
X144270000Y-89650000D03*
X144270000Y-90750000D03*
X144270000Y-93250000D03*
X144270000Y-94350000D03*
X144270000Y-95450000D03*
X144270000Y-96550000D03*
X144270000Y-97650000D03*
X144270000Y-98750000D03*
X144270000Y-99850000D03*
D18*
X145700000Y-101880000D03*
X146800000Y-101880000D03*
X147900000Y-101880000D03*
X149000000Y-101880000D03*
X150100000Y-101880000D03*
X151200000Y-101880000D03*
X152300000Y-101880000D03*
X153400000Y-101880000D03*
X155100000Y-101880000D03*
X156200000Y-101880000D03*
X157300000Y-101880000D03*
X158400000Y-101880000D03*
X159500000Y-101880000D03*
X160600000Y-101880000D03*
X161700000Y-101880000D03*
X162800000Y-101880000D03*
X163900000Y-101880000D03*
X165000000Y-101880000D03*
D19*
X166330000Y-99850000D03*
X166330000Y-98750000D03*
X166330000Y-97650000D03*
X166330000Y-96550000D03*
X166330000Y-95450000D03*
X166330000Y-94350000D03*
X166330000Y-93250000D03*
X166330000Y-90750000D03*
X166330000Y-89650000D03*
X166330000Y-88550000D03*
X166330000Y-87450000D03*
X166330000Y-86350000D03*
X166330000Y-85250000D03*
D20*
X159550000Y-86750000D03*
X157850000Y-86750000D03*
X156150000Y-86750000D03*
X154450000Y-86750000D03*
X152750000Y-86750000D03*
X151050000Y-86750000D03*
X147650000Y-90150000D03*
X147650000Y-91850000D03*
X147650000Y-93550000D03*
X147650000Y-95250000D03*
X151050000Y-98650000D03*
X152750000Y-98650000D03*
X154450000Y-98650000D03*
X156150000Y-98650000D03*
X157850000Y-98650000D03*
X159550000Y-98650000D03*
X162950000Y-95250000D03*
X162950000Y-93550000D03*
X162950000Y-91850000D03*
X162950000Y-90150000D03*
X159550000Y-88450000D03*
X157850000Y-88450000D03*
X156150000Y-88450000D03*
X154450000Y-88450000D03*
X152750000Y-88450000D03*
X151050000Y-88450000D03*
X149350000Y-90150000D03*
X149350000Y-91850000D03*
X149350000Y-93550000D03*
X149350000Y-95250000D03*
X151050000Y-96950000D03*
X152750000Y-96950000D03*
X154450000Y-96950000D03*
X156150000Y-96950000D03*
X157850000Y-96950000D03*
X159550000Y-96950000D03*
X161250000Y-95250000D03*
X161250000Y-93550000D03*
X161250000Y-91850000D03*
X161250000Y-90150000D03*
G36*
G01*
X127000000Y-105425000D02*
X127000000Y-105055000D01*
G75*
G02*
X127135000Y-104920000I135000J0D01*
G01*
X127405000Y-104920000D01*
G75*
G02*
X127540000Y-105055000I0J-135000D01*
G01*
X127540000Y-105425000D01*
G75*
G02*
X127405000Y-105560000I-135000J0D01*
G01*
X127135000Y-105560000D01*
G75*
G02*
X127000000Y-105425000I0J135000D01*
G01*
G37*
G36*
G01*
X128020000Y-105425000D02*
X128020000Y-105055000D01*
G75*
G02*
X128155000Y-104920000I135000J0D01*
G01*
X128425000Y-104920000D01*
G75*
G02*
X128560000Y-105055000I0J-135000D01*
G01*
X128560000Y-105425000D01*
G75*
G02*
X128425000Y-105560000I-135000J0D01*
G01*
X128155000Y-105560000D01*
G75*
G02*
X128020000Y-105425000I0J135000D01*
G01*
G37*
G36*
G01*
X148130000Y-104740000D02*
X148470000Y-104740000D01*
G75*
G02*
X148610000Y-104880000I0J-140000D01*
G01*
X148610000Y-105160000D01*
G75*
G02*
X148470000Y-105300000I-140000J0D01*
G01*
X148130000Y-105300000D01*
G75*
G02*
X147990000Y-105160000I0J140000D01*
G01*
X147990000Y-104880000D01*
G75*
G02*
X148130000Y-104740000I140000J0D01*
G01*
G37*
G36*
G01*
X148130000Y-105700000D02*
X148470000Y-105700000D01*
G75*
G02*
X148610000Y-105840000I0J-140000D01*
G01*
X148610000Y-106120000D01*
G75*
G02*
X148470000Y-106260000I-140000J0D01*
G01*
X148130000Y-106260000D01*
G75*
G02*
X147990000Y-106120000I0J140000D01*
G01*
X147990000Y-105840000D01*
G75*
G02*
X148130000Y-105700000I140000J0D01*
G01*
G37*
G36*
G01*
X170530000Y-98290000D02*
X170870000Y-98290000D01*
G75*
G02*
X171010000Y-98430000I0J-140000D01*
G01*
X171010000Y-98710000D01*
G75*
G02*
X170870000Y-98850000I-140000J0D01*
G01*
X170530000Y-98850000D01*
G75*
G02*
X170390000Y-98710000I0J140000D01*
G01*
X170390000Y-98430000D01*
G75*
G02*
X170530000Y-98290000I140000J0D01*
G01*
G37*
G36*
G01*
X170530000Y-99250000D02*
X170870000Y-99250000D01*
G75*
G02*
X171010000Y-99390000I0J-140000D01*
G01*
X171010000Y-99670000D01*
G75*
G02*
X170870000Y-99810000I-140000J0D01*
G01*
X170530000Y-99810000D01*
G75*
G02*
X170390000Y-99670000I0J140000D01*
G01*
X170390000Y-99390000D01*
G75*
G02*
X170530000Y-99250000I140000J0D01*
G01*
G37*
G36*
G01*
X169180000Y-87170000D02*
X169520000Y-87170000D01*
G75*
G02*
X169660000Y-87310000I0J-140000D01*
G01*
X169660000Y-87590000D01*
G75*
G02*
X169520000Y-87730000I-140000J0D01*
G01*
X169180000Y-87730000D01*
G75*
G02*
X169040000Y-87590000I0J140000D01*
G01*
X169040000Y-87310000D01*
G75*
G02*
X169180000Y-87170000I140000J0D01*
G01*
G37*
G36*
G01*
X169180000Y-88130000D02*
X169520000Y-88130000D01*
G75*
G02*
X169660000Y-88270000I0J-140000D01*
G01*
X169660000Y-88550000D01*
G75*
G02*
X169520000Y-88690000I-140000J0D01*
G01*
X169180000Y-88690000D01*
G75*
G02*
X169040000Y-88550000I0J140000D01*
G01*
X169040000Y-88270000D01*
G75*
G02*
X169180000Y-88130000I140000J0D01*
G01*
G37*
G36*
G01*
X171580000Y-87265000D02*
X171580000Y-87635000D01*
G75*
G02*
X171445000Y-87770000I-135000J0D01*
G01*
X171175000Y-87770000D01*
G75*
G02*
X171040000Y-87635000I0J135000D01*
G01*
X171040000Y-87265000D01*
G75*
G02*
X171175000Y-87130000I135000J0D01*
G01*
X171445000Y-87130000D01*
G75*
G02*
X171580000Y-87265000I0J-135000D01*
G01*
G37*
G36*
G01*
X170560000Y-87265000D02*
X170560000Y-87635000D01*
G75*
G02*
X170425000Y-87770000I-135000J0D01*
G01*
X170155000Y-87770000D01*
G75*
G02*
X170020000Y-87635000I0J135000D01*
G01*
X170020000Y-87265000D01*
G75*
G02*
X170155000Y-87130000I135000J0D01*
G01*
X170425000Y-87130000D01*
G75*
G02*
X170560000Y-87265000I0J-135000D01*
G01*
G37*
G36*
G01*
X172080000Y-87170000D02*
X172420000Y-87170000D01*
G75*
G02*
X172560000Y-87310000I0J-140000D01*
G01*
X172560000Y-87590000D01*
G75*
G02*
X172420000Y-87730000I-140000J0D01*
G01*
X172080000Y-87730000D01*
G75*
G02*
X171940000Y-87590000I0J140000D01*
G01*
X171940000Y-87310000D01*
G75*
G02*
X172080000Y-87170000I140000J0D01*
G01*
G37*
G36*
G01*
X172080000Y-88130000D02*
X172420000Y-88130000D01*
G75*
G02*
X172560000Y-88270000I0J-140000D01*
G01*
X172560000Y-88550000D01*
G75*
G02*
X172420000Y-88690000I-140000J0D01*
G01*
X172080000Y-88690000D01*
G75*
G02*
X171940000Y-88550000I0J140000D01*
G01*
X171940000Y-88270000D01*
G75*
G02*
X172080000Y-88130000I140000J0D01*
G01*
G37*
D21*
X172250000Y-85087500D03*
D22*
X170775000Y-83562500D03*
X173725000Y-83562500D03*
G36*
G01*
X150375000Y-106550000D02*
X150375000Y-105650000D01*
G75*
G02*
X150625000Y-105400000I250000J0D01*
G01*
X151150000Y-105400000D01*
G75*
G02*
X151400000Y-105650000I0J-250000D01*
G01*
X151400000Y-106550000D01*
G75*
G02*
X151150000Y-106800000I-250000J0D01*
G01*
X150625000Y-106800000D01*
G75*
G02*
X150375000Y-106550000I0J250000D01*
G01*
G37*
G36*
G01*
X152200000Y-106550000D02*
X152200000Y-105650000D01*
G75*
G02*
X152450000Y-105400000I250000J0D01*
G01*
X152975000Y-105400000D01*
G75*
G02*
X153225000Y-105650000I0J-250000D01*
G01*
X153225000Y-106550000D01*
G75*
G02*
X152975000Y-106800000I-250000J0D01*
G01*
X152450000Y-106800000D01*
G75*
G02*
X152200000Y-106550000I0J250000D01*
G01*
G37*
G36*
G01*
X147130000Y-104740000D02*
X147470000Y-104740000D01*
G75*
G02*
X147610000Y-104880000I0J-140000D01*
G01*
X147610000Y-105160000D01*
G75*
G02*
X147470000Y-105300000I-140000J0D01*
G01*
X147130000Y-105300000D01*
G75*
G02*
X146990000Y-105160000I0J140000D01*
G01*
X146990000Y-104880000D01*
G75*
G02*
X147130000Y-104740000I140000J0D01*
G01*
G37*
G36*
G01*
X147130000Y-105700000D02*
X147470000Y-105700000D01*
G75*
G02*
X147610000Y-105840000I0J-140000D01*
G01*
X147610000Y-106120000D01*
G75*
G02*
X147470000Y-106260000I-140000J0D01*
G01*
X147130000Y-106260000D01*
G75*
G02*
X146990000Y-106120000I0J140000D01*
G01*
X146990000Y-105840000D01*
G75*
G02*
X147130000Y-105700000I140000J0D01*
G01*
G37*
D17*
X140200000Y-86400000D03*
G36*
G01*
X131965000Y-105420000D02*
X131595000Y-105420000D01*
G75*
G02*
X131460000Y-105285000I0J135000D01*
G01*
X131460000Y-105015000D01*
G75*
G02*
X131595000Y-104880000I135000J0D01*
G01*
X131965000Y-104880000D01*
G75*
G02*
X132100000Y-105015000I0J-135000D01*
G01*
X132100000Y-105285000D01*
G75*
G02*
X131965000Y-105420000I-135000J0D01*
G01*
G37*
G36*
G01*
X131965000Y-104400000D02*
X131595000Y-104400000D01*
G75*
G02*
X131460000Y-104265000I0J135000D01*
G01*
X131460000Y-103995000D01*
G75*
G02*
X131595000Y-103860000I135000J0D01*
G01*
X131965000Y-103860000D01*
G75*
G02*
X132100000Y-103995000I0J-135000D01*
G01*
X132100000Y-104265000D01*
G75*
G02*
X131965000Y-104400000I-135000J0D01*
G01*
G37*
G36*
G01*
X132910000Y-98480000D02*
X133250000Y-98480000D01*
G75*
G02*
X133390000Y-98620000I0J-140000D01*
G01*
X133390000Y-98900000D01*
G75*
G02*
X133250000Y-99040000I-140000J0D01*
G01*
X132910000Y-99040000D01*
G75*
G02*
X132770000Y-98900000I0J140000D01*
G01*
X132770000Y-98620000D01*
G75*
G02*
X132910000Y-98480000I140000J0D01*
G01*
G37*
G36*
G01*
X132910000Y-99440000D02*
X133250000Y-99440000D01*
G75*
G02*
X133390000Y-99580000I0J-140000D01*
G01*
X133390000Y-99860000D01*
G75*
G02*
X133250000Y-100000000I-140000J0D01*
G01*
X132910000Y-100000000D01*
G75*
G02*
X132770000Y-99860000I0J140000D01*
G01*
X132770000Y-99580000D01*
G75*
G02*
X132910000Y-99440000I140000J0D01*
G01*
G37*
D23*
X134375000Y-97200000D03*
X131835000Y-97200000D03*
X129295000Y-97200000D03*
X133105000Y-97200000D03*
X130565000Y-97200000D03*
X128025000Y-97200000D03*
D24*
X137350000Y-93100000D03*
X125050000Y-93100000D03*
X125050000Y-84300000D03*
X137350000Y-84300000D03*
G36*
G01*
X173950000Y-97275000D02*
X173050000Y-97275000D01*
G75*
G02*
X172800000Y-97025000I0J250000D01*
G01*
X172800000Y-96500000D01*
G75*
G02*
X173050000Y-96250000I250000J0D01*
G01*
X173950000Y-96250000D01*
G75*
G02*
X174200000Y-96500000I0J-250000D01*
G01*
X174200000Y-97025000D01*
G75*
G02*
X173950000Y-97275000I-250000J0D01*
G01*
G37*
G36*
G01*
X173950000Y-95450000D02*
X173050000Y-95450000D01*
G75*
G02*
X172800000Y-95200000I0J250000D01*
G01*
X172800000Y-94675000D01*
G75*
G02*
X173050000Y-94425000I250000J0D01*
G01*
X173950000Y-94425000D01*
G75*
G02*
X174200000Y-94675000I0J-250000D01*
G01*
X174200000Y-95200000D01*
G75*
G02*
X173950000Y-95450000I-250000J0D01*
G01*
G37*
D25*
X170200001Y-91123100D03*
X171199999Y-91123100D03*
X170700000Y-89776900D03*
G36*
G01*
X172180000Y-89890000D02*
X172520000Y-89890000D01*
G75*
G02*
X172660000Y-90030000I0J-140000D01*
G01*
X172660000Y-90310000D01*
G75*
G02*
X172520000Y-90450000I-140000J0D01*
G01*
X172180000Y-90450000D01*
G75*
G02*
X172040000Y-90310000I0J140000D01*
G01*
X172040000Y-90030000D01*
G75*
G02*
X172180000Y-89890000I140000J0D01*
G01*
G37*
G36*
G01*
X172180000Y-90850000D02*
X172520000Y-90850000D01*
G75*
G02*
X172660000Y-90990000I0J-140000D01*
G01*
X172660000Y-91270000D01*
G75*
G02*
X172520000Y-91410000I-140000J0D01*
G01*
X172180000Y-91410000D01*
G75*
G02*
X172040000Y-91270000I0J140000D01*
G01*
X172040000Y-90990000D01*
G75*
G02*
X172180000Y-90850000I140000J0D01*
G01*
G37*
G36*
G01*
X173515000Y-86290000D02*
X173515000Y-86635000D01*
G75*
G02*
X173367500Y-86782500I-147500J0D01*
G01*
X173072500Y-86782500D01*
G75*
G02*
X172925000Y-86635000I0J147500D01*
G01*
X172925000Y-86290000D01*
G75*
G02*
X173072500Y-86142500I147500J0D01*
G01*
X173367500Y-86142500D01*
G75*
G02*
X173515000Y-86290000I0J-147500D01*
G01*
G37*
G36*
G01*
X172545000Y-86290000D02*
X172545000Y-86635000D01*
G75*
G02*
X172397500Y-86782500I-147500J0D01*
G01*
X172102500Y-86782500D01*
G75*
G02*
X171955000Y-86635000I0J147500D01*
G01*
X171955000Y-86290000D01*
G75*
G02*
X172102500Y-86142500I147500J0D01*
G01*
X172397500Y-86142500D01*
G75*
G02*
X172545000Y-86290000I0J-147500D01*
G01*
G37*
G36*
G01*
X149130000Y-104740000D02*
X149470000Y-104740000D01*
G75*
G02*
X149610000Y-104880000I0J-140000D01*
G01*
X149610000Y-105160000D01*
G75*
G02*
X149470000Y-105300000I-140000J0D01*
G01*
X149130000Y-105300000D01*
G75*
G02*
X148990000Y-105160000I0J140000D01*
G01*
X148990000Y-104880000D01*
G75*
G02*
X149130000Y-104740000I140000J0D01*
G01*
G37*
G36*
G01*
X149130000Y-105700000D02*
X149470000Y-105700000D01*
G75*
G02*
X149610000Y-105840000I0J-140000D01*
G01*
X149610000Y-106120000D01*
G75*
G02*
X149470000Y-106260000I-140000J0D01*
G01*
X149130000Y-106260000D01*
G75*
G02*
X148990000Y-106120000I0J140000D01*
G01*
X148990000Y-105840000D01*
G75*
G02*
X149130000Y-105700000I140000J0D01*
G01*
G37*
G36*
G01*
X134210000Y-98480000D02*
X134550000Y-98480000D01*
G75*
G02*
X134690000Y-98620000I0J-140000D01*
G01*
X134690000Y-98900000D01*
G75*
G02*
X134550000Y-99040000I-140000J0D01*
G01*
X134210000Y-99040000D01*
G75*
G02*
X134070000Y-98900000I0J140000D01*
G01*
X134070000Y-98620000D01*
G75*
G02*
X134210000Y-98480000I140000J0D01*
G01*
G37*
G36*
G01*
X134210000Y-99440000D02*
X134550000Y-99440000D01*
G75*
G02*
X134690000Y-99580000I0J-140000D01*
G01*
X134690000Y-99860000D01*
G75*
G02*
X134550000Y-100000000I-140000J0D01*
G01*
X134210000Y-100000000D01*
G75*
G02*
X134070000Y-99860000I0J140000D01*
G01*
X134070000Y-99580000D01*
G75*
G02*
X134210000Y-99440000I140000J0D01*
G01*
G37*
G36*
G01*
X171525000Y-97450000D02*
X169675000Y-97450000D01*
G75*
G02*
X169425000Y-97200000I0J250000D01*
G01*
X169425000Y-96375000D01*
G75*
G02*
X169675000Y-96125000I250000J0D01*
G01*
X171525000Y-96125000D01*
G75*
G02*
X171775000Y-96375000I0J-250000D01*
G01*
X171775000Y-97200000D01*
G75*
G02*
X171525000Y-97450000I-250000J0D01*
G01*
G37*
G36*
G01*
X171525000Y-94375000D02*
X169675000Y-94375000D01*
G75*
G02*
X169425000Y-94125000I0J250000D01*
G01*
X169425000Y-93300000D01*
G75*
G02*
X169675000Y-93050000I250000J0D01*
G01*
X171525000Y-93050000D01*
G75*
G02*
X171775000Y-93300000I0J-250000D01*
G01*
X171775000Y-94125000D01*
G75*
G02*
X171525000Y-94375000I-250000J0D01*
G01*
G37*
G36*
G01*
X129065000Y-103220000D02*
X128695000Y-103220000D01*
G75*
G02*
X128560000Y-103085000I0J135000D01*
G01*
X128560000Y-102815000D01*
G75*
G02*
X128695000Y-102680000I135000J0D01*
G01*
X129065000Y-102680000D01*
G75*
G02*
X129200000Y-102815000I0J-135000D01*
G01*
X129200000Y-103085000D01*
G75*
G02*
X129065000Y-103220000I-135000J0D01*
G01*
G37*
G36*
G01*
X129065000Y-102200000D02*
X128695000Y-102200000D01*
G75*
G02*
X128560000Y-102065000I0J135000D01*
G01*
X128560000Y-101795000D01*
G75*
G02*
X128695000Y-101660000I135000J0D01*
G01*
X129065000Y-101660000D01*
G75*
G02*
X129200000Y-101795000I0J-135000D01*
G01*
X129200000Y-102065000D01*
G75*
G02*
X129065000Y-102200000I-135000J0D01*
G01*
G37*
G36*
G01*
X173393750Y-89125000D02*
X173906250Y-89125000D01*
G75*
G02*
X174125000Y-89343750I0J-218750D01*
G01*
X174125000Y-89781250D01*
G75*
G02*
X173906250Y-90000000I-218750J0D01*
G01*
X173393750Y-90000000D01*
G75*
G02*
X173175000Y-89781250I0J218750D01*
G01*
X173175000Y-89343750D01*
G75*
G02*
X173393750Y-89125000I218750J0D01*
G01*
G37*
G36*
G01*
X173393750Y-90700000D02*
X173906250Y-90700000D01*
G75*
G02*
X174125000Y-90918750I0J-218750D01*
G01*
X174125000Y-91356250D01*
G75*
G02*
X173906250Y-91575000I-218750J0D01*
G01*
X173393750Y-91575000D01*
G75*
G02*
X173175000Y-91356250I0J218750D01*
G01*
X173175000Y-90918750D01*
G75*
G02*
X173393750Y-90700000I218750J0D01*
G01*
G37*
G36*
G01*
X169330000Y-98290000D02*
X169670000Y-98290000D01*
G75*
G02*
X169810000Y-98430000I0J-140000D01*
G01*
X169810000Y-98710000D01*
G75*
G02*
X169670000Y-98850000I-140000J0D01*
G01*
X169330000Y-98850000D01*
G75*
G02*
X169190000Y-98710000I0J140000D01*
G01*
X169190000Y-98430000D01*
G75*
G02*
X169330000Y-98290000I140000J0D01*
G01*
G37*
G36*
G01*
X169330000Y-99250000D02*
X169670000Y-99250000D01*
G75*
G02*
X169810000Y-99390000I0J-140000D01*
G01*
X169810000Y-99670000D01*
G75*
G02*
X169670000Y-99810000I-140000J0D01*
G01*
X169330000Y-99810000D01*
G75*
G02*
X169190000Y-99670000I0J140000D01*
G01*
X169190000Y-99390000D01*
G75*
G02*
X169330000Y-99250000I140000J0D01*
G01*
G37*
G36*
G01*
X127710000Y-98980000D02*
X128050000Y-98980000D01*
G75*
G02*
X128190000Y-99120000I0J-140000D01*
G01*
X128190000Y-99400000D01*
G75*
G02*
X128050000Y-99540000I-140000J0D01*
G01*
X127710000Y-99540000D01*
G75*
G02*
X127570000Y-99400000I0J140000D01*
G01*
X127570000Y-99120000D01*
G75*
G02*
X127710000Y-98980000I140000J0D01*
G01*
G37*
G36*
G01*
X127710000Y-99940000D02*
X128050000Y-99940000D01*
G75*
G02*
X128190000Y-100080000I0J-140000D01*
G01*
X128190000Y-100360000D01*
G75*
G02*
X128050000Y-100500000I-140000J0D01*
G01*
X127710000Y-100500000D01*
G75*
G02*
X127570000Y-100360000I0J140000D01*
G01*
X127570000Y-100080000D01*
G75*
G02*
X127710000Y-99940000I140000J0D01*
G01*
G37*
G36*
G01*
X171730000Y-98290000D02*
X172070000Y-98290000D01*
G75*
G02*
X172210000Y-98430000I0J-140000D01*
G01*
X172210000Y-98710000D01*
G75*
G02*
X172070000Y-98850000I-140000J0D01*
G01*
X171730000Y-98850000D01*
G75*
G02*
X171590000Y-98710000I0J140000D01*
G01*
X171590000Y-98430000D01*
G75*
G02*
X171730000Y-98290000I140000J0D01*
G01*
G37*
G36*
G01*
X171730000Y-99250000D02*
X172070000Y-99250000D01*
G75*
G02*
X172210000Y-99390000I0J-140000D01*
G01*
X172210000Y-99670000D01*
G75*
G02*
X172070000Y-99810000I-140000J0D01*
G01*
X171730000Y-99810000D01*
G75*
G02*
X171590000Y-99670000I0J140000D01*
G01*
X171590000Y-99390000D01*
G75*
G02*
X171730000Y-99250000I140000J0D01*
G01*
G37*
G36*
G01*
X128710000Y-98980000D02*
X129050000Y-98980000D01*
G75*
G02*
X129190000Y-99120000I0J-140000D01*
G01*
X129190000Y-99400000D01*
G75*
G02*
X129050000Y-99540000I-140000J0D01*
G01*
X128710000Y-99540000D01*
G75*
G02*
X128570000Y-99400000I0J140000D01*
G01*
X128570000Y-99120000D01*
G75*
G02*
X128710000Y-98980000I140000J0D01*
G01*
G37*
G36*
G01*
X128710000Y-99940000D02*
X129050000Y-99940000D01*
G75*
G02*
X129190000Y-100080000I0J-140000D01*
G01*
X129190000Y-100360000D01*
G75*
G02*
X129050000Y-100500000I-140000J0D01*
G01*
X128710000Y-100500000D01*
G75*
G02*
X128570000Y-100360000I0J140000D01*
G01*
X128570000Y-100080000D01*
G75*
G02*
X128710000Y-99940000I140000J0D01*
G01*
G37*
G36*
G01*
X135565000Y-105020000D02*
X135195000Y-105020000D01*
G75*
G02*
X135060000Y-104885000I0J135000D01*
G01*
X135060000Y-104615000D01*
G75*
G02*
X135195000Y-104480000I135000J0D01*
G01*
X135565000Y-104480000D01*
G75*
G02*
X135700000Y-104615000I0J-135000D01*
G01*
X135700000Y-104885000D01*
G75*
G02*
X135565000Y-105020000I-135000J0D01*
G01*
G37*
G36*
G01*
X135565000Y-104000000D02*
X135195000Y-104000000D01*
G75*
G02*
X135060000Y-103865000I0J135000D01*
G01*
X135060000Y-103595000D01*
G75*
G02*
X135195000Y-103460000I135000J0D01*
G01*
X135565000Y-103460000D01*
G75*
G02*
X135700000Y-103595000I0J-135000D01*
G01*
X135700000Y-103865000D01*
G75*
G02*
X135565000Y-104000000I-135000J0D01*
G01*
G37*
G36*
G01*
X146400000Y-104975000D02*
X146400000Y-106825000D01*
G75*
G02*
X146150000Y-107075000I-250000J0D01*
G01*
X145325000Y-107075000D01*
G75*
G02*
X145075000Y-106825000I0J250000D01*
G01*
X145075000Y-104975000D01*
G75*
G02*
X145325000Y-104725000I250000J0D01*
G01*
X146150000Y-104725000D01*
G75*
G02*
X146400000Y-104975000I0J-250000D01*
G01*
G37*
G36*
G01*
X143325000Y-104975000D02*
X143325000Y-106825000D01*
G75*
G02*
X143075000Y-107075000I-250000J0D01*
G01*
X142250000Y-107075000D01*
G75*
G02*
X142000000Y-106825000I0J250000D01*
G01*
X142000000Y-104975000D01*
G75*
G02*
X142250000Y-104725000I250000J0D01*
G01*
X143075000Y-104725000D01*
G75*
G02*
X143325000Y-104975000I0J-250000D01*
G01*
G37*
M02*
